<svg xmlns="http://www.w3.org/2000/svg" id="Ebene_1" data-name="Ebene 1" viewBox="0 0 90.78 48.87"><defs><style>.cls-1{fill:orange;}.cls-2{fill:#048263;}.cls-3{fill:#fff;}</style></defs><path class="cls-1" d="M36.06,23.58l6-10.33,2.28,1.32-.33.57-1.17-.68-5.3,9.19,1.17.68-.33.57Z" transform="translate(-6.33 -0.86)"/><path class="cls-1" d="M40.7,23.71l4.86-8.42,1.93,1.11a4,4,0,0,1,.92.7,1.89,1.89,0,0,1,.48.79,1.81,1.81,0,0,1,0,.9,3.25,3.25,0,0,1-.41,1,3.13,3.13,0,0,1-.65.82,1.41,1.41,0,0,1-.74.37,1.49,1.49,0,0,1-.84-.11,2.14,2.14,0,0,1,.6.86,1.9,1.9,0,0,1,0,1,3.59,3.59,0,0,1-.45,1.12,4.42,4.42,0,0,1-.69.92,2.49,2.49,0,0,1-.83.53,2,2,0,0,1-.95.09A2.74,2.74,0,0,1,43,25Zm4-4.23.69.4a2,2,0,0,0,.86.31.94.94,0,0,0,.66-.22,2.83,2.83,0,0,0,.58-.75,1.7,1.7,0,0,0,.31-.94,1,1,0,0,0-.36-.65,6.3,6.3,0,0,0-.94-.63l-.28-.16Zm-2.35,4.06.79.46a1.45,1.45,0,0,0,1.27.24,2.38,2.38,0,0,0,.95-1,2.62,2.62,0,0,0,.37-1,1.21,1.21,0,0,0-.13-.8,2,2,0,0,0-.72-.66l-.7-.4Z" transform="translate(-6.33 -0.86)"/><path class="cls-1" d="M46.15,26.85,51,18.43l3.26,1.89-.5.87L51.68,20l-1.61,2.79,1.69,1-.48.83-1.69-1-1.78,3.09,2.11,1.21-.49.85Z" transform="translate(-6.33 -0.86)"/><path class="cls-1" d="M51.3,29.83l4.36-7.55-1.43-.82.51-.87,4,2.29-.51.88L56.83,23,52.48,30.5Z" transform="translate(-6.33 -0.86)"/><path class="cls-1" d="M54.19,31.49l6.65-7.38,1.13.65-3.06,9.46-1.11-.64.84-2.35-1.72-1-1.63,1.89Zm3.37-2L59,30.3l1.48-4.2Z" transform="translate(-6.33 -0.86)"/><path class="cls-1" d="M58.27,36.4l.33-.57,1.18.68,5.29-9.18-1.17-.68.34-.58,2.29,1.33-6,10.33Z" transform="translate(-6.33 -0.86)"/><path class="cls-2" d="M-77.61-33.87" transform="translate(-6.33 -0.86)"/><rect class="cls-3" x="1.22" y="28.79" width="80" height="1" transform="translate(13.84 -17.55) rotate(30)"/><rect class="cls-3" x="22.22" y="20.79" width="80" height="1" transform="translate(12.65 -29.12) rotate(30)"/></svg>