<svg xmlns="http://www.w3.org/2000/svg" id="Ebene_1" data-name="Ebene 1" viewBox="0 0 39 22"><defs><style>.cls-1{fill:#048263;}.cls-2{fill:orange;}</style></defs><path class="cls-1" d="M5.2,17.67V5.74H7.84V6.4H6.48V17H7.84v.67Z"/><path class="cls-1" d="M9.28,15.46V5.74h2.23a4.36,4.36,0,0,1,1.15.14,2,2,0,0,1,.81.45,1.74,1.74,0,0,1,.48.76,3.48,3.48,0,0,1,.15,1.08,3.54,3.54,0,0,1-.14,1,1.64,1.64,0,0,1-.46.69,1.52,1.52,0,0,1-.79.32,2.16,2.16,0,0,1,.95.45,1.91,1.91,0,0,1,.53.82,3.51,3.51,0,0,1,.18,1.19,4.59,4.59,0,0,1-.14,1.15,2.27,2.27,0,0,1-.46.87,2,2,0,0,1-.77.56,3,3,0,0,1-1.13.2Zm1.36-5.67h.8a2,2,0,0,0,.9-.16.91.91,0,0,0,.46-.52,3,3,0,0,0,.13-.94,1.82,1.82,0,0,0-.2-1,1,1,0,0,0-.64-.38A7,7,0,0,0,11,6.75h-.32Zm0,4.69h.91a1.44,1.44,0,0,0,1.22-.42,2.43,2.43,0,0,0,.3-1.38,2.76,2.76,0,0,0-.16-1A1.18,1.18,0,0,0,12.4,11a1.8,1.8,0,0,0-1-.21h-.8Z"/><path class="cls-1" d="M15.57,15.46V5.74h3.77v1H16.92V10h2v1h-2v3.56h2.44v1Z"/><path class="cls-1" d="M21.52,15.46V6.75H19.88v-1h4.59v1H22.88v8.71Z"/><path class="cls-1" d="M24.86,15.46l2.06-9.72h1.31l2.07,9.72H29L28.58,13h-2l-.47,2.45ZM26.78,12H28.4l-.82-4.38Z"/><path class="cls-1" d="M30.84,17.67V17H32.2V6.41H30.84V5.74H33.5V17.67Z"/><rect class="cls-2" x="1.72" y="2.25" width="36" height="0.5"/><rect class="cls-2" x="1.72" y="20.25" width="36" height="0.5"/></svg>