<svg xmlns="http://www.w3.org/2000/svg" id="Ebene_1" data-name="Ebene 1" viewBox="0 0 40.43 34.02"><defs><style>.cls-1{fill:#048263;}.cls-2{fill:orange;}</style></defs><path class="cls-1" d="M4.06,10.58,10,.25l2.28,1.32L12,2.14l-1.17-.68-5.3,9.19,1.17.68-.33.57Z" transform="translate(0.49 4.51)"/><path class="cls-1" d="M8.7,10.71l4.86-8.42L15.49,3.4a4,4,0,0,1,.92.7,1.89,1.89,0,0,1,.48.79,1.81,1.81,0,0,1,0,.9,3.25,3.25,0,0,1-.41,1,3.13,3.13,0,0,1-.65.82,1.41,1.41,0,0,1-.74.37,1.49,1.49,0,0,1-.84-.11,2.14,2.14,0,0,1,.6.86,1.9,1.9,0,0,1,0,1,3.59,3.59,0,0,1-.45,1.12,4.42,4.42,0,0,1-.69.92,2.49,2.49,0,0,1-.83.53,2,2,0,0,1-1,.09A2.74,2.74,0,0,1,11,12Zm4-4.23.69.4a2,2,0,0,0,.86.31A.94.94,0,0,0,14.92,7a2.83,2.83,0,0,0,.58-.75,1.7,1.7,0,0,0,.31-.94,1,1,0,0,0-.36-.65A6.3,6.3,0,0,0,14.51,4l-.28-.16Zm-2.35,4.06.79.46a1.45,1.45,0,0,0,1.27.24,2.38,2.38,0,0,0,.95-1,2.62,2.62,0,0,0,.37-1,1.21,1.21,0,0,0-.13-.8,2,2,0,0,0-.72-.66l-.7-.4Z" transform="translate(0.49 4.51)"/><path class="cls-1" d="M14.15,13.85,19,5.43l3.26,1.89-.5.87L19.68,7,18.07,9.77l1.69,1-.48.83-1.69-1-1.78,3.09,2.11,1.21-.49.85Z" transform="translate(0.49 4.51)"/><path class="cls-1" d="M19.3,16.83l4.36-7.55-1.43-.82.51-.87,4,2.29-.51.88L24.83,10,20.48,17.5Z" transform="translate(0.49 4.51)"/><path class="cls-1" d="M22.19,18.49l6.65-7.38,1.13.65-3.06,9.46-1.11-.64.84-2.35-1.72-1-1.63,1.89Zm3.37-2L27,17.3l1.48-4.2Z" transform="translate(0.49 4.51)"/><path class="cls-1" d="M26.27,23.4l.33-.57,1.18.68,5.29-9.18-1.17-.68.34-.58,2.29,1.33-6,10.33Z" transform="translate(0.49 4.51)"/><path class="cls-1" d="M-98.61-39.87" transform="translate(0.49 4.51)"/><rect class="cls-2" x="6.22" y="4.46" width="36" height="0.5" transform="translate(6.09 -6.97) rotate(30)"/><rect class="cls-2" x="-2.78" y="20.04" width="36" height="0.5" transform="translate(12.68 -0.38) rotate(30)"/></svg>