<svg xmlns="http://www.w3.org/2000/svg" id="svg8" viewBox="0 0 150 162.3">
    <g id="layer1">
        <path fill="#FFF" id="path24"
            d="M86.16,162.16c0-.1,0-.14-.17-.14s-.17,0-.17-.07,0-.06-.1-.06a.13.13,0,0,1-.11-.14c0-.1,0-.14-.16-.14s-.52-.12-.52-.23a.13.13,0,0,0-.14-.11c-.07,0-.13,0-.13-.07s0-.06-.1-.06a.12.12,0,0,1-.11-.13c0-.1-.08-.16-.3-.22s-.31-.13-.31-.21-.13-.2-.35-.2a.12.12,0,0,1-.13-.13.12.12,0,0,0-.14-.14c-.07,0-.13,0-.13-.07S83,160,82.92,160s-.2,0-.22-.11a.41.41,0,0,0-.39-.3c-.13,0-.18,0-.18-.13s-.06-.14-.2-.17-.21-.09-.21-.18a.12.12,0,0,0-.13-.13c-.08,0-.14,0-.14-.07s-.06-.07-.14-.07-.13,0-.13-.13-.08-.16-.21-.22-.2-.14-.2-.2-.08-.13-.21-.16-.2-.09-.2-.15a.37.37,0,0,0-.27-.3s-.07-.06-.07-.13,0-.14-.18-.14-.17,0-.17-.07-.23-.07-.57-.07c-.54,0-.58,0-.61-.15l0-.15v.15c0,.19-.21.21-.21,0s0-.14-.1-.14-.1.06-.1.14-.05.13-.18.13-.17,0-.17-.13,0-.14-.1-.14-.1.06-.1.14,0,.13-.27.13-.28,0-.28-.13,0-.14-.61-.14-.62,0-.62.14,0,.13-.06.13-.07-.06-.07-.13,0-.14-.07-.14-.07.06-.07.14,0,.13-2,.13a11.36,11.36,0,0,0-1.94.07s0,.07-.1.07a.13.13,0,0,0-.11.14c0,.07,0,.13-.06.13s-.07.09-.07.2,0,.21-.1.23-.11.17-.13.33-.07.31-.11.32a.14.14,0,0,0-.07.12.1.1,0,0,1-.1.1c-.15,0-.13.26,0,.29s.12,0,0,0-.12.08-.12.42,0,.41-.09.41a3.08,3.08,0,0,0-.18,1.38.74.74,0,0,1-.1.44c-.11.11-.58.13-.58,0s-.14-.06-.31-.06-.31,0-.31-.14,0-.14-.12-.14c-.23,0-.56-.14-.56-.24s-.06-.1-.14-.1-.13,0-.13-.07,0-.06-.11-.06a.11.11,0,0,1-.1-.11.34.34,0,0,0-.3-.3.13.13,0,0,1-.11-.14c0-.09-.06-.15-.17-.18a.18.18,0,0,1-.17-.17c0-.1,0-.13-.2-.13s-.21,0-.21-.07-.06-.07-.14-.07-.13,0-.13-.12a.34.34,0,0,0-.14-.22.34.34,0,0,1-.14-.22c0-.09-.05-.12-.2-.12s-.2,0-.2-.17,0-.17-.13-.17-.32-.19-.38-.4-.09-.15-.15-.15-.1-.05-.1-.13-.06-.14-.21-.17a.44.44,0,0,1-.25-.16.57.57,0,0,0-.16-.23.37.37,0,0,1-.13-.22.1.1,0,0,0-.1-.11c-.06,0-.1,0-.1-.07a2.06,2.06,0,0,0-.79-.07,2,2,0,0,0-.78.07c0,.1-.8.09-.85,0s0-.06-.08,0-.17.09-.37.09-.34,0-.36-.09,0-.06,0,0-.62.12-.62,0a4.27,4.27,0,0,0-1.16-.07,4.21,4.21,0,0,0-1.16.07s0,.07-.11.07-.1,0-.1-.07a18.6,18.6,0,0,0-2.49-.07,18.47,18.47,0,0,0-2.49.07s-.07.07-.14.07a.13.13,0,0,0-.14.14c0,.07,0,.13-.07.13s-.06.11-.06.24,0,.24-.11.24-.1.06-.1.14a.12.12,0,0,0,.1.13c.06,0,.11,0,.11.07s0,.07-.11.07-.1.08-.1.34,0,.34-.09.34-.11.12-.13.35a1.18,1.18,0,0,1-.14.44,1,1,0,0,0-.15.44c0,.29-.07.35-.21.39a.83.83,0,0,1-.35,0l-.41-.08c-.16,0-.23-.08-.23-.16s-.07-.14-.3-.18-.31-.07-.31-.17a.12.12,0,0,0-.1-.13c-.06,0-.1,0-.1-.07s0-.07-.11-.07a.12.12,0,0,1-.1-.13c0-.11,0-.14-.21-.14s-.21,0-.24-.2-.09-.2-.27-.24-.24-.08-.24-.16-.41-.36-.59-.36-.09-.07-.12-.17-.08-.17-.14-.17-.1-.06-.1-.13-.07-.14-.21-.17a.36.36,0,0,1-.28-.25c0-.12-.12-.2-.2-.2a.12.12,0,0,1-.13-.13c0-.08,0-.14-.07-.14s-.07-.09-.07-.2,0-.2-.32-.25-.89,0-1.59,0-4.12,0-7.61,0c-6.4,0-7.14,0-7.14-.22,0-.06-.08-.09-.2-.09s-.21,0-.21-.07-.06-.07-.13-.07-.14,0-.14-.13,0-.14-.14-.14a.35.35,0,0,1-.34-.3c0-.06-.07-.11-.15-.12a.21.21,0,0,1-.18-.18.15.15,0,0,0-.15-.15c-.07,0-.13,0-.13-.07s-.08-.07-.17-.07c-.25,0-.38-.07-.38-.2s-.07-.14-.31-.17-.3-.08-.3-.17-.1-.13-.94-.17c-.51,0-1.32,0-1.8,0-.84,0-.88,0-.88-.14s-.05-.13-.21-.13-.2,0-.2.13-.05.14-.41.14-.41,0-.41-.14.81-.13-7.31-.17c-2.55,0-3.78,0-3.88-.09a1.15,1.15,0,0,0-.44-.08c-.24,0-.31,0-.34-.12a.29.29,0,0,0-.24-.17c-.15,0-.22-.08-.22-.18a.18.18,0,0,0-.13-.16c-.1,0-.14-.1-.14-.22s0-.17-.07-.17-.07-.08-.07-.17,0-.17-.13-.17-.14-.05-.14-.27c0-.56-.08-.89-.21-.89s-.27-.35-.27-.64a.12.12,0,0,0-.13-.12c-.11,0-.14,0-.14-.23s0-.24-.07-.24-.07-.08-.07-.17a.18.18,0,0,0-.13-.19c-.1,0-.14-.12-.18-.39s-.08-.35-.14-.35a.34.34,0,0,1-.3-.33c0-.08,0-.14-.1-.14a.1.1,0,0,1-.1-.11.36.36,0,0,0-.11-.21.43.43,0,0,1-.1-.23c0-.09,0-.14-.13-.14s-.14,0-.14-.16-.07-.38-.21-.38-.13,0-.13-.08-.18-.26-.3-.26a.12.12,0,0,1-.11-.13.29.29,0,0,0-.28-.28.16.16,0,0,1-.14-.16.2.2,0,0,0-.17-.17c-.1,0-.16-.09-.19-.22s-.08-.2-.17-.2-.14-.06-.16-.16-.09-.17-.24-.22-.22-.11-.24-.2a.18.18,0,0,0-.17-.16c-.09,0-.15-.07-.15-.14a.29.29,0,0,0-.29-.29c-.07,0-.12,0-.12-.1a.36.36,0,0,0-.3-.31c-.06,0-.11-.06-.13-.15s-.08-.16-.38-.22-.35-.09-.35-.18-.06-.13-.17-.13-.19,0-.21-.07a.29.29,0,0,0-.2-.06c-.11,0-.17,0-.2-.18s-.09-.17-.25-.17-.2,0-.2-.13S1,143,.92,143s-.18,0-.21-.17-.09-.17-.15-.17a.3.3,0,0,1-.26-.38l0-.17H3.48c3.09,0,3.14,0,3.14-.13s0-.14.17-.14.17,0,.17.14,0,.13.14.13.13,0,.13-.13,0-.14,1.93-.14l17.21-.06c.27,0,.32,0,.32-.14s0-.14.07-.14.07-.09.07-.21,0-.2.13-.2.14-.06.15-.46,0-.46.18-.48.15-.07.15-.19,0-.17.07-.17.07-.06.07-.13,0-.14.14-.14.13-.05.13-.14.15-.34.27-.34.21-.29.21-.52,0-.16.16-.16.59-.14.59-.25.07-.09.17-.09.17,0,.17-.07.11-.07.24-.07.24,0,.24-.14.19-.17.22,0l0,.15v-.15c0-.15,0-.15.66-.15.39,0,.65,0,.65-.07a10.46,10.46,0,0,1,2.62,0c0,.06,0,.06.08,0s.28-.09.89-.09c.8,0,.85,0,.85-.14s0-.13.1-.13.1.06.1.13,0,.14.69.14.68,0,.68-.14.05-.13,2-.14c1.08,0,2,0,2.14,0l.35,0c.12,0,.19-.05.19-.12a.41.41,0,0,1,.1-.21.36.36,0,0,0,.11-.23c0-.07,0-.13.1-.13s.1-.07.1-.2,0-.21.2-.25.2-.07.24-.38.07-.33.18-.33.15-.06.18-.21a.28.28,0,0,1,.2-.25.19.19,0,0,0,.16-.2.25.25,0,0,1,.17-.24.28.28,0,0,0,.17-.24c0-.09,0-.16.07-.16s.07-.07.08-.16a.2.2,0,0,1,.18-.17c.12,0,.15-.07.15-.22s0-.2.07-.2.07-.06.07-.14,0-.14.1-.14.12-.08.15-.2a.28.28,0,0,1,.2-.25c.12,0,.16-.09.16-.24s0-.19.07-.19.07-.1.07-.21,0-.2.14-.2.13-.05.13-.14a.21.21,0,0,1,.07-.17.22.22,0,0,0,.07-.18c0-.07,0-.13.1-.13s.12-.09.14-.24.07-.24.11-.24.06-.07.06-.17,0-.17.1-.17.1-.06.1-.17,0-.17.07-.17.07-.11.07-.24,0-.24.13-.24.14-.06.18-.35.08-.35.18-.38.12-.09.12-.23,0-.2.11-.2.1-.07.1-.2,0-.21.09-.21.11-.12.14-.34.07-.34.17-.34.21-.13.21-.48c0-.15,0-.27.07-.27s.07-.09.07-.21,0-.2.1-.2.1-.07.1-.2,0-.21.11-.21.1-.07.1-.2,0-.21.07-.21.11-.17.23-.7c0-.13.09-.19.18-.19s.13,0,.13-.34,0-.34.07-.34.07-.09.07-.2,0-.21.1-.21.11-.07.11-.26,0-.46,0-.71.07-.47.17-.5.13-.14.16-.41S50,121,50,121s.06-.09.06-.21,0-.2.13-.2.14-.1.22-.62a2.05,2.05,0,0,1,.14-.61s.07-.16.1-.35a.6.6,0,0,1,.14-.38c.06,0,.09-.16.09-.41s0-.36.1-.36.11-.07.11-.21,0-.2.06-.2.07-.23.07-.55v-.54l-.27-.08c-.19-.06-.27-.12-.27-.21s0-.13-.08-.13a.39.39,0,0,1-.27-.26s-.1-.08-.23-.11-.24-.07-.24-.2-.05-.17-.28-.2-.27-.08-.27-.18,0-.14-.29-.14c-.47,0-1-.15-1-.28s-.08-.12-.3-.16-.31-.07-.31-.21-.05-.17-.25-.21-.26-.09-.28-.17-.1-.13-.23-.13-.2,0-.2-.07-.09-.06-.2-.06-.21,0-.21-.14-.06-.14-.37-.18-.38-.06-.38-.2,0-.16-.3-.2-.31-.07-.31-.18,0-.13-.21-.13-.2,0-.2-.06-.11-.09-.24-.11-.24-.08-.24-.18,0-.13-.2-.13-.21,0-.21-.16,0-.17-.31-.21-.3-.07-.3-.17-.07-.14-.18-.17-.37-.19-.37-.3-.14-.09-.31-.12-.3-.07-.3-.2,0-.17-.25-.21-.26-.09-.28-.17a.18.18,0,0,0-.17-.13c-.07,0-.12,0-.12-.07s0-.07-.11-.07a.12.12,0,0,1-.1-.13c0-.09,0-.14-.13-.14-.24,0-.55-.15-.55-.27s-.1-.14-.31-.19-.31-.12-.31-.19a.1.1,0,0,0-.1-.1s-.1,0-.1-.07-.07-.07-.16-.07a.19.19,0,0,1-.21-.17c0-.11-.09-.17-.17-.17a.2.2,0,0,1-.18-.14c0-.09-.1-.13-.24-.13s-.2,0-.2-.07,0-.07-.1-.07a.11.11,0,0,1-.11-.1.09.09,0,0,0-.1-.1.1.1,0,0,1-.1-.11c0-.06-.07-.1-.17-.1s-.17,0-.17-.1a.1.1,0,0,0-.11-.1c-.05,0-.1,0-.1-.07s0-.07-.1-.07-.1-.06-.1-.14,0-.13-.17-.13-.17,0-.17-.07-.07-.07-.14-.07-.14,0-.14-.07a.5.5,0,0,0-.36-.34.2.2,0,0,1-.16-.1c0-.06-.07-.1-.1-.1s-.26-.19-.26-.31-.06-.1-.15-.1-.33-.15-.33-.27-.08-.08-.17-.08-.17,0-.17-.1a.11.11,0,0,0-.11-.1s-.1,0-.1-.07a.37.37,0,0,0-.27-.27.37.37,0,0,1-.27-.27s0-.07-.11-.07a.11.11,0,0,1-.1-.1s-.09-.12-.2-.14-.21-.09-.21-.14a.1.1,0,0,0-.1-.1.1.1,0,0,1-.1-.1.1.1,0,0,0-.09-.11.34.34,0,0,1-.19-.13.29.29,0,0,0-.17-.14s-.11-.06-.17-.14a.32.32,0,0,0-.22-.13.11.11,0,0,1-.12-.1c0-.06,0-.11-.07-.11s-.07,0-.07-.1-.06-.1-.13-.1-.14,0-.14-.07a.37.37,0,0,0-.27-.27s-.07-.06-.07-.14-.05-.14-.1-.14-.11,0-.11-.06,0-.07-.1-.07a.1.1,0,0,1-.1-.08c0-.1-.18-.26-.3-.26s-.11,0-.11-.06a.67.67,0,0,0-.33-.35c-.05,0-.08-.07-.08-.14s-.06-.15-.2-.18a.31.31,0,0,1-.26-.25c0-.17-.1-.22-.24-.24a.22.22,0,0,1-.22-.19c0-.09-.08-.16-.14-.16a.1.1,0,0,1-.1-.11.35.35,0,0,0-.3-.3.11.11,0,0,1-.11-.11s0-.1-.07-.1-.07,0-.07-.1a.09.09,0,0,0-.1-.1.09.09,0,0,1-.1-.08.37.37,0,0,0-.3-.27.1.1,0,0,1-.11-.1.35.35,0,0,0-.34-.3c-.11,0-.14-.05-.14-.21s0-.2-.14-.2-.13,0-.13-.08a.34.34,0,0,0-.1-.17.41.41,0,0,1-.11-.24c0-.07,0-.13-.07-.13s-.27-.18-.27-.34,0-.14-.13-.14a.22.22,0,0,1-.18-.13.19.19,0,0,0-.16-.14c-.1,0-.16-.1-.25-.38s-.15-.37-.24-.37-.14-.09-.21-.34-.12-.34-.19-.34-.14-.09-.18-.23-.11-.22-.22-.24-.15-.07-.15-.22,0-.2-.07-.2-.07-.06-.07-.14,0-.13-.13-.13-.14-.07-.18-.34-.07-.34-.19-.36-.16-.09-.21-.31-.09-.29-.18-.29-.13,0-.13-.17,0-.17-.07-.17-.07-.1-.07-.21,0-.2-.13-.2-.14,0-.14-.17-.07-.38-.21-.38-.13-.05-.13-.2,0-.21-.07-.21-.07-.08-.07-.17,0-.17-.14-.17-.13-.05-.13-.15-.15-.67-.24-.67-.24-.37-.24-.57-.05-.11-.14-.11-.13-.05-.13-.14,0-.14-.07-.14-.07-.09-.07-.2,0-.21-.1-.21-.12-.08-.15-.2-.07-.2-.1-.2-.06-.08-.06-.18,0-.17-.1-.17-.24-.38-.24-.66c0-.11,0-.16-.13-.16s-.14-.08-.21-.37-.12-.38-.17-.38-.22-.26-.28-.66c0-.22-.07-.29-.16-.29s-.21-.18-.21-.46c0-.11,0-.16-.13-.16S19,85,19,84.79s-.09-.29-.18-.31-.14-.12-.18-.37-.07-.33-.1-.33-.06-.11-.06-.24,0-.24-.13-.24-.13-.08-.18-.51-.06-.52-.17-.52-.13,0-.13-.41a.76.76,0,0,0-.07-.41s-.07-.09-.07-.2,0-.21-.14-.21-.13,0-.13-.34,0-.34-.07-.34-.07-.14-.07-.31,0-.3-.1-.3-.24-.49-.24-.92c0-.27,0-.31-.14-.31s-.14,0-.14-.21,0-.2-.06-.2-.07-.11-.07-.24,0-.24-.1-.24-.11-.11-.13-.32c-.08-.65-.17-1.42-.18-1.44s0,0-.1,0-.14-.26-.22-1.28c0-.56-.06-.64-.17-.64s-.13,0-.13-.41,0-.41-.06-.41-.07-.09-.07-.2,0-.21-.1-.21A2.7,2.7,0,0,1,15,71.43c0-.28-.06-.35-.16-.35s-.12-.09-.16-.46,0-.58,0-.72,0-.26-.13-.26-.13-.08-.17-.77c-.05-.94-.11-1.28-.21-1.28a9.45,9.45,0,0,1-.18-2.4c0-.31,0-.53-.07-.53a4.89,4.89,0,0,1-.06-1.2c0-1.11,0-1.19-.13-1.19s-.13-.09-.17-1.11c-.06-1.56-.06-8.52,0-13,0-3.57,0-3.74.17-3.74s.13-.07.13-.88a3.3,3.3,0,0,1,.06-.91A16.3,16.3,0,0,0,14,40.27c0-.35,0-.46.09-.46s.16-.47.23-2.24c0-1.11.06-1.25.16-1.25s.12-.1.16-.72c0-.4,0-.93,0-1.16,0-.39,0-.44.14-.44s.14,0,.14-.37,0-.38.07-.38.06-.12.06-.26c0-.46.09-.9.17-.9s.12-.21.22-1.45c0-.44.06-.53.16-.53s.12-.12.16-1c.06-1.23.1-1.55.21-1.55s.24-.3.29-.79c0-.31.07-.44.13-.44s.1-.08.1-.21,0-.2.07-.2.06-.17.06-.38,0-.37.14-.37.14-.05.14-.23a4.55,4.55,0,0,1,.25-1.55c.06,0,.09-.1.09-.31s0-.3.07-.3.07-.13.07-.28,0-.27.13-.27.14-.05.14-.24,0-.24.07-.24.07-.21.07-.51c0-.46,0-.51.13-.51s.13-.07.18-.68.06-.69.17-.69.13-.06.13-.54c0-.32,0-.55.07-.55s.07-.18.07-.42,0-.42.12-.44.29-.56.29-.9q0-.15.12-.15c.14,0,.22-.23.22-.62,0-.15,0-.2.13-.2s.13-.07.17-.31.08-.31.11-.31.07-.09.07-.2,0-.21.07-.21.26-.23.26-.49,0-.26.14-.26.14-.06.18-.44.06-.44.17-.44.13-.05.13-.2a.35.35,0,0,1,.07-.25s.07-.13.07-.24,0-.2.13-.2.14,0,.14-.17,0-.17.07-.17.07-.1.07-.21,0-.2.13-.2a.13.13,0,0,0,.14-.14c0-.28.15-.82.23-.82s.25-.43.25-.74,0-.21.13-.21.14,0,.14-.24,0-.24.07-.24.07-.13.07-.28,0-.27.13-.27.21-.17.21-.53c0-.17,0-.22.14-.22s.13,0,.13-.2,0-.21.07-.21.07,0,.07-.1.05-.1.12-.1.14-.1.2-.36a3.24,3.24,0,0,0,.09-.48c0-.07.05-.12.14-.12s.13-.05.13-.22c0-.36.07-.53.21-.53s.13-.05.13-.15.23-.81.32-.81.23-.43.23-.64a.11.11,0,0,1,.12-.11c.1,0,.14-.09.21-.46.13-.65.14-.7.25-.7s.1-.07.1-.2,0-.21.07-.21.08-.17.11-.37.07-.38.17-.38.13,0,.13-.15c0-.29.08-.46.21-.46a.12.12,0,0,0,.13-.11s0-.1.07-.1.07,0,.07-.1.07-.1.2-.1.21,0,.21-.07S27,0,27.2,0s.38,0,.38.07.06.07.14.07.13,0,.13-.07A2.21,2.21,0,0,1,28.67,0a2.21,2.21,0,0,1,.82.07s.14.07.31.07.3,0,.3.1.1.1.42.1.42,0,.45.1a.18.18,0,0,0,.16.11.17.17,0,0,1,.16.1c0,.06.13.1.25.1s.2,0,.2.1S31.81,1,32,1s.2,0,.2.09.15.18.45.18.44.06.44.18a.1.1,0,0,0,.1.09c.08,0,.11.08.11.31s0,.31-.11.31a.1.1,0,0,0-.1.1c0,.06,0,.1-.06.1s-.09.17-.11.38-.08.37-.14.37-.1.09-.1.28,0,.27-.07.27-.07.14-.07.31,0,.3-.1.3-.1.07-.1.21,0,.2-.07.2-.08.08-.11.17a.26.26,0,0,1-.2.2.19.19,0,0,0-.17.21c0,.13,0,.17-.13.17s-.14.05-.14.21,0,.2-.06.2-.08.13-.1.28-.08.27-.11.27-.07.05-.07.1,0,.1-.06.1-.09.17-.11.38-.08.38-.15.38a.09.09,0,0,0-.09.1s0,.1-.07.1-.07.14-.07.31v.32l.74-.05A2.91,2.91,0,0,0,32.07,8c0-.09.55-.07.58,0a25,25,0,0,0,4.06,0c0-.09.54-.11.58,0a1.44,1.44,0,0,0,.52.09c.37,0,.52,0,.59-.06s.31-.12.31,0,.12.07.27.07.27,0,.27-.07.08-.07.17-.07.18,0,.18.07.06.07.13.07.14,0,.14-.07a8.85,8.85,0,0,1,2.41,0c0,.06,0,.06,0,0s.1-.09.21-.09.21,0,.21-.07a3.38,3.38,0,0,1,1.45,0c0,.07,0,.07,0,0s.28-.12.28,0,.33.09.36,0,.35-.09,1.17-.11,1.13-.05,1.13-.13a.1.1,0,0,1,.11-.09.11.11,0,0,1,.1.1c0,.09.11.11.58.11s.58,0,.58-.11a.11.11,0,0,1,.1-.1.1.1,0,0,1,.1.1c0,.09.15.11.91.11a15,15,0,0,1,2.7.14c0,.08.29.08.29,0s.07-.07.17-.07.17,0,.17.07.1.07.23.07.25,0,.26.07a1.84,1.84,0,0,0,.77.11,2.81,2.81,0,0,1,.77.1,1.63,1.63,0,0,0,.57.06c.43,0,.54,0,.54.1s.09.11.37.11.38,0,.4.12,0,.11,0,0,.21-.17.21,0,.09.1.34.1a.73.73,0,0,1,.36.06,2,2,0,0,0,.82.09.23.23,0,0,0,.16-.18c0-.1.09-.17.14-.17a.1.1,0,0,0,.09-.11c0-.06.07-.1.17-.1s.18,0,.18-.07,0-.07.1-.07.14-.07.18-.16.15-.18.37-.22.3-.08.3-.13a.1.1,0,0,1,.1-.1.11.11,0,0,0,.11-.1.09.09,0,0,1,.1-.1.1.1,0,0,0,.1-.11s.08-.12.17-.14S61.1,7,61.1,7s0-.06.11-.06.1,0,.1-.07.07-.07.17-.07.17,0,.17-.1a.13.13,0,0,1,.14-.11c.07,0,.13,0,.13-.1s0-.1.07-.1.07,0,.07-.1.07-.11.2-.11.21,0,.21-.1.09-.15.2-.19.21-.12.21-.16A.09.09,0,0,1,63,5.6a.1.1,0,0,0,.1-.1c0-.07.07-.11.17-.11s.17,0,.17-.07A.63.63,0,0,1,63.78,5s0,0,0-.1.07-.1.21-.1.21,0,.24-.17.09-.17.24-.17a.29.29,0,0,0,.23-.1.16.16,0,0,1,.14-.11.09.09,0,0,0,.1-.1A.1.1,0,0,1,65.1,4a.11.11,0,0,0,.1-.1.11.11,0,0,1,.1-.11.09.09,0,0,0,.1-.1c0-.06.06-.1.14-.1s.14,0,.14-.07.09-.07.2-.07c.29,0,.41-.06.41-.21s.06-.15.21-.17.2-.09.2-.14.08-.09.21-.09.2,0,.2-.1.07-.11.21-.11.2,0,.2-.09.15-.14.34-.21a.81.81,0,0,0,.34-.18s.06-.06.14-.06.14,0,.14.06.09.08.2.11.21.08.21.21,0,.16.13.16a.13.13,0,0,1,.14.11s.06.1.14.1.13,0,.13.1a.1.1,0,0,0,.1.1c.07,0,.11.07.11.17s0,.17.1.17.1.07.1.16c0,.26.08.46.18.46a.12.12,0,0,1,.1.13.39.39,0,0,0,.1.24.72.72,0,0,1,.15.34c0,.19.07.25.23.28s.2.08.2.21,0,.16.07.16.06.05.06.11,0,.1.07.1a.08.08,0,0,1,.07.09.3.3,0,0,0,.14.18.38.38,0,0,1,.13.29c0,.12,0,.19.11.19s.1.07.1.2,0,.21-.1.21a.1.1,0,0,0-.11.09c0,.1-.27.25-.44.25a.1.1,0,0,0-.1.1.11.11,0,0,1-.1.11.1.1,0,0,0-.11.1.12.12,0,0,1-.13.1c-.08,0-.14,0-.14.1a.1.1,0,0,1-.09.11s-.16.09-.25.2a.43.43,0,0,1-.35.2c-.15,0-.2,0-.24.18a.19.19,0,0,1-.2.17c-.1,0-.17,0-.17.1s0,.1-.07.1-.06.05-.06.1a.11.11,0,0,1-.11.11.1.1,0,0,0-.1.1c0,.06-.06.1-.17.1s-.17,0-.17.09a.28.28,0,0,1-.14.18.34.34,0,0,0-.13.19c0,.05-.08.09-.17.09s-.17,0-.17.1a.1.1,0,0,1-.11.1.11.11,0,0,0-.1.1.11.11,0,0,1-.1.11.09.09,0,0,0-.1.1.1.1,0,0,1-.11.1.11.11,0,0,0-.1.1.11.11,0,0,1-.1.11c-.07,0-.1.06-.1.17s0,.17-.1.17-.18.08-.13.26.09.15.23.15.2,0,.2.1.07.1.21.1.2,0,.2.1.08.11.27.11.28,0,.28.07.06.06.13.06a.13.13,0,0,1,.14.11c0,.07.08.1.27.1s.28,0,.28.1.06.1.17.1.17,0,.17.1.14.1.45.13.48.08.57.18a.39.39,0,0,0,.23.14c.06,0,.11,0,.11.06s.16.08.34.11.35.08.35.14.06.1.13.1.14,0,.14.1.06.1.14.1.13,0,.13.07.13.1.28.14.27.1.27.14.08.06.17.06.17,0,.17.11.06.1.14.1S73,14,73,14s.13.06.28.06.27,0,.27.1.14.18.34.18a.15.15,0,0,1,.15.15c0,.13.07.16.35.18s.32.05.32.12a.08.08,0,0,0,.07.09s.07,0,.07.11.06.1.2.1.21,0,.21.07,0,.07.1.07.1,0,.1.06.25.35.34.35.08.09.1.2.08.21.25.21.2,0,.2.06,0,.07.1.07.1,0,.1.07.07.07.15.07a.17.17,0,0,1,.17.13.19.19,0,0,0,.17.14.12.12,0,0,1,.13.1c0,.07.06.11.17.11s.17,0,.17.1a.11.11,0,0,0,.1.1.1.1,0,0,1,.1.1c0,.06,0,.11.08.11a.35.35,0,0,1,.19.12.75.75,0,0,0,.33.18c.12,0,.22.09.22.14a.1.1,0,0,0,.11.1.09.09,0,0,1,.1.08c0,.09.12.21.36.33s.18.12.18.15,0,.06.11.06a.1.1,0,0,1,.1.1.1.1,0,0,0,.1.1c.06,0,.1,0,.1.07s.08.07.17.07.18,0,.18.1a.09.09,0,0,0,.1.1.1.1,0,0,1,.1.08.54.54,0,0,0,.17.23.87.87,0,0,1,.21.33.28.28,0,0,0,.24.22c.14,0,.2.08.2.17a.18.18,0,0,0,.17.17c.12,0,.19.12.25.31s.12.27.17.27a.09.09,0,0,1,.09.1.1.1,0,0,0,.1.1c.07,0,.11.07.11.17s0,.17.09.17.12.1.15.21.07.2.1.2.07.08.07.17,0,.18.07.18.34.25.34.34.07.06.17.06.17,0,.17.11a.43.43,0,0,0,.13.22.33.33,0,0,1,.14.2.08.08,0,0,0,.07.09s.07,0,.07.1,0,.1.07.1.23.14.29.29a.16.16,0,0,0,.12.12c.11,0,.26.17.31.37s.08.18.14.18a.1.1,0,0,1,.09.1c0,.06,0,.1.07.1s.07.08.07.18,0,.17.1.17a.13.13,0,0,1,.13.08c0,.05.06.23.11.4a.58.58,0,0,0,.25.41c.09.05.16.13.16.18a.1.1,0,0,0,.1.09.09.09,0,0,1,.1.1.1.1,0,0,0,.11.1.11.11,0,0,1,.1.1.11.11,0,0,0,.1.11.09.09,0,0,1,.1.1c0,.06,0,.1.06.1s.08.12.11.27.07.28.1.28.08.07.1.17.08.17.12.17.27.18.27.33a.37.37,0,0,0,.1.24.69.69,0,0,1,.1.38c0,.2,0,.28.1.28s.1.06.1.17.14.37.27.37.08.05.08.11a.15.15,0,0,0,.1.14.25.25,0,0,1,.1.21c0,.09,0,.16.1.16s.12.09.14.24.08.24.11.24.06.06.06.13a.12.12,0,0,0,.13.14c.09,0,.15.08.21.31s.11.3.14.3.07.08.09.17.09.18.15.18.1.06.1.2,0,.21.07.21.07,0,.07.1a.15.15,0,0,0,.1.14.24.24,0,0,1,.1.21c0,.09,0,.16.1.16s.24.33.24.54a.39.39,0,0,0,.14.23c.1.08.14.2.14.42s0,.31.06.31.08.08.1.18a.75.75,0,0,0,.15.28.43.43,0,0,1,.1.26c0,.09,0,.17.06.17s.07.06.07.14a.12.12,0,0,0,.1.13c.06,0,.11.1.14.26a2.33,2.33,0,0,0,.24.89s.07.1.07.19,0,.19.1.21a.19.19,0,0,1,.1.19.38.38,0,0,0,.14.26.43.43,0,0,1,.14.22c0,.06,0,.1.06.1s.07.24.07.58,0,.58.1.58.11.13.14.36a3.17,3.17,0,0,0,.29,1.24.2.2,0,0,1,.09.15.34.34,0,0,0,.1.21.54.54,0,0,1,.1.33.34.34,0,0,0,.08.26s.09.18.11.38.06.35.09.35.06.17.06.38,0,.37.11.37.1.08.1.31,0,.31-.1.31a.1.1,0,0,0-.11.1.09.09,0,0,0,.09.1,6,6,0,0,1,.25,2c0,.35,0,.52.11.59a.46.46,0,0,1,.1.24.37.37,0,0,0,.1.24,1.6,1.6,0,0,1,.15.75,2.07,2.07,0,0,0,.09.66,11.3,11.3,0,0,1,.09,1.55,8.94,8.94,0,0,0,.11,1.58c.09,0,.1.35,0,.35s-.09.33,0,.37.07,0,0,.09a3.48,3.48,0,0,0,0,1.57c.1,0,.11.29,0,.29s-.07.19-.07.41,0,.41.08.41.06,0,0,.08-.09.08,0,.1a7.32,7.32,0,0,1,0,2.14,2.66,2.66,0,0,0-.07,1v1H94c.13,0,.21,0,.21.09s.11.1.33.13a.82.82,0,0,1,.44.13c.07.07.26.11.6.11a1.24,1.24,0,0,1,.53.08s.19.07.39.07.37,0,.37.07.12.07.27.07.28,0,.28.13.25.19.29,0l0-.16v.16c0,.14,0,.15.52.15.3,0,.51,0,.51.07s.12.07.27.07a.48.48,0,0,1,.33.09.86.86,0,0,0,.46.13c.22,0,.42.08.43.12a.55.55,0,0,0,.33.07c.22,0,.3,0,.3.1s.07.1.27.1.28,0,.3.09,0,.07,0,0,.21-.12.21,0,.07.07.16.07c.31,0,.59.08.59.18s.08.09.2.09.21,0,.21.07.07.07.16.07a.39.39,0,0,1,.27.1.64.64,0,0,0,.38.1c.2,0,.28,0,.28.11s.08.1.34.1.34,0,.34.1.08.1.28.1.27,0,.27.07.14.07.31.07.3,0,.3.14.05.13.28.13.27,0,.27.07.17.07.38.07.37,0,.37.1.07.1.24.1.24,0,.24.1.11.1.36.12a.76.76,0,0,1,.51.18.55.55,0,0,0,.36.15c.16,0,.2,0,.2.14s0,.13.21.13.2,0,.2.07.11.07.24.07.24,0,.24.1.08.1.27.1a.62.62,0,0,1,.36.1.8.8,0,0,0,.24.14c.09,0,.15.08.15.11s.1.06.21.06.2,0,.2.07.07.07.14.07a.13.13,0,0,1,.14.14c0,.12,0,.13.37.13s.38,0,.38.11.07.1.2.1.21,0,.21.1.06.1.17.1.17,0,.17.07.12.07.27.07.28,0,.28.07.15.24.35.3.19.09.19.14.08.1.31.1.31,0,.31.07.07.09.17.11.17.07.17.11,0,.06.1.06a.09.09,0,0,1,.1.1c0,.06.06.1.14.1s.14,0,.14.1.06.11.16.11a.43.43,0,0,1,.27.1.41.41,0,0,0,.21.1.11.11,0,0,1,.11.1c0,.07.07.11.2.11s.21,0,.21.06,0,.07.1.07a.1.1,0,0,1,.1.1.13.13,0,0,0,.14.11c.07,0,.13,0,.13.1s.07.1.21.1.2,0,.2.09.31.25.5.25.12,0,.12.14,0,.14.17.14.17,0,.17.06.06.07.14.07a.12.12,0,0,1,.13.1c0,.07.1.12.28.15s.27.07.27.1.06.06.14.06a.12.12,0,0,1,.13.1c0,.08.08.11.28.11s.27,0,.27.07.08.06.17.06.17,0,.17.14a.12.12,0,0,0,.13.14.18.18,0,0,1,.17.1.15.15,0,0,0,.13.1.17.17,0,0,1,.14.1.17.17,0,0,0,.14.11c.06,0,.13.07.15.17a.19.19,0,0,0,.21.17c.09,0,.16,0,.16.06s.09.08.2.11.21.09.21.14.06.1.14.1.13,0,.13.07.19.27.37.27.18,0,.18.1a.09.09,0,0,0,.1.1.09.09,0,0,1,.1.1c0,.09.28.25.45.25a.12.12,0,0,1,.1.13c0,.1,0,.14.17.14s.17,0,.17.07,0,.06.1.06.11.1.14.21.08.2.24.2.2,0,.2.11.09.12.21.14a.29.29,0,0,1,.25.21c0,.09.08.16.13.16s.1,0,.1.07,0,.07.1.07a.1.1,0,0,1,.1.1c0,.06.09.12.21.14s.2.08.2.21,0,.16.11.16a.34.34,0,0,1,.3.3.11.11,0,0,0,.1.11c.06,0,.11,0,.11.06s.09.09.2.11.2.09.2.14,0,.1.07.1.09.08.11.17a.19.19,0,0,0,.2.17.24.24,0,0,1,.2.1.18.18,0,0,0,.16.11c.09,0,.15.08.21.27s.12.27.22.27a.12.12,0,0,1,.13.1.12.12,0,0,0,.12.11c.08,0,.17.11.26.3s.17.31.22.31a.38.38,0,0,1,.29.27.07.07,0,0,0,.07.07s.07,0,.07.11a.1.1,0,0,0,.1.1c.06,0,.1.06.1.16a.19.19,0,0,0,.13.2c.08,0,.14.12.17.31s.07.28.25.32.22.09.24.21.09.16.17.16.13.06.15.29,0,.3.17.32.15.06.15.18,0,.17.07.17a.07.07,0,0,1,.07.07c0,.1.14.23.29.29a.17.17,0,0,1,.12.15c0,.06,0,.1.07.1s.07,0,.07.11,0,.1.06.1.09.07.11.17.09.17.14.17a.09.09,0,0,1,.1.08.47.47,0,0,0,.17.23.61.61,0,0,1,.17.23.07.07,0,0,0,.06.07s.11.13.15.28a.56.56,0,0,0,.21.31c.09,0,.13.13.17.37s.07.34.15.34.28.28.28.47a.38.38,0,0,0,.13.21.61.61,0,0,1,.17.29c0,.11.09.19.15.19s.1.06.1.14,0,.14.07.14.07,0,.07.13.07.34.17.34.17.15.17.39a.19.19,0,0,0,.13.21c.08,0,.14.08.14.13a.1.1,0,0,0,.1.09.11.11,0,0,1,.11.1c0,.07.06.11.17.11s.17,0,.17.27,0,.27.13.27.15.1.24.45a1.22,1.22,0,0,0,.18.44s.06.06.06.14a.12.12,0,0,0,.1.13.11.11,0,0,1,.11.11.15.15,0,0,0,.1.14.17.17,0,0,1,.1.14.08.08,0,0,0,.07.09s.07.11.07.24c0,.28.06.44.16.45s.14.13.21.29a2.22,2.22,0,0,0,.25.39.83.83,0,0,1,.17.4c0,.17.08.28.14.28a.1.1,0,0,1,.09.1c0,.06,0,.11.06.11s.08.1.11.23.08.24.13.24.22.26.28.63c0,.17.09.27.17.3a.18.18,0,0,1,.14.15,1.37,1.37,0,0,0,.28.7,1,1,0,0,1,.17.46c0,.28.07.36.17.36s.13.08.17.46.05.61.05.78c0,.32,0,.33.19.33s.2,0,.2.08a4,4,0,0,1,0,.46c0,.22.05.38.1.4s.08.14.08.29,0,.27.06.27.08.09.1.2.08.21.18.21.13,0,.25.82a.83.83,0,0,0,.17.41.8.8,0,0,1,.16.32c0,.13.08.23.12.23s.26.2.26.42.07.53.18.53.11.06.14.79c0,1.29.11,1.6.3,1.6s.14.09.19.35a3.57,3.57,0,0,1,.08.44s0,.1.07.1.06,0,.06.1,0,.1.07.1.07.19.07.43c0,.51.05.73.17.73s.13.11.25.87a1.8,1.8,0,0,0,.14.57s.06.1.06.23,0,.25.07.26a1.19,1.19,0,0,1,.13.56c0,.33.07.55.12.57s.09.17.09.4,0,.37.06.37.07.16.07.36c0,.45.06.66.18.66s.1,0,.1,0,0,.29,0,.63a4.88,4.88,0,0,0,.25,1.6s.06,0,.06.07,0,.07-.11.07-.1.07-.1.17,0,.17-.48.21-.47.08-.47.14-.09.1-.23.1a1.82,1.82,0,0,0-.53.1,2.08,2.08,0,0,1-.45.1c-.09,0-.16,0-.16.1s-.4.24-.8.24-.29,0-.29.17,0,.17-.51.17-.52,0-.52.13-.07.13-.46.17-.65,0-.89,0-.42,0-.42.07-.23.07-.55.07c-.5,0-.54,0-.54.14s-.05.13-.47.13a8.37,8.37,0,0,0-.89,0c-.34,0-.42.06-.42.17s-.07.13-.22.15-3.4.11-4.34.11c0,0-.08.06-.08.14s-.05.14-.48.14c-.27,0-.48,0-.48.06s-.09.07-.2.07-.21,0-.21-.07-.17-.06-.37-.06-.38,0-.38.06a3.73,3.73,0,0,1-1.15.07c-1,0-1.16,0-1.19.12s0,.12,0,0-.08-.12-.45-.12-.45,0-.45.1-.49.22-1.48.24c-.38,0-.43,0-.43.14s0,.14-1.57.14c-1.71,0-1.77,0-1.77.37,0,.09,0,.17.06.17a32,32,0,0,1,.13,3.83,23.16,23.16,0,0,1-.13,3.07s-.06.24-.06.54,0,.55-.07.55-.07.18-.07.4c0,.4,0,.4-.21.45a5.08,5.08,0,0,1-.65,0c-.39,0-.44,0-.44.14s0,.13-.64.13a1.9,1.9,0,0,0-.69.07.87.87,0,0,1-.45.07c-.31,0-.4,0-.4.1s-.07.1-.19.11l-1.31,0c-1.15.05-1.64.05-3.62,0-.62,0-1.58,0-2.14,0-1,0-1,0-1,.2v.15l-2.58,0c-1.42,0-3.65,0-5,0s-3.73,0-5.38,0h-3v-.17c0-.11,0-.17-.1-.17s-.11.06-.11.17v.17h-.74a6.2,6.2,0,0,0-.86,0c-.14.06-.15.68,0,.74s.1.14.1.45,0,.41.07.41.07.17.07.38,0,.37-.07.37-.09.25,0,.29a2.53,2.53,0,0,1,.1.73,2.38,2.38,0,0,0,.11.74,9.67,9.67,0,0,1,.06,1.59c0,1.24,0,1.57.09,1.57s.16.32.29,1.31c0,.18.07.33.1.33s.07.16.1.37.07.38.1.38a.87.87,0,0,1,.11.41c0,.22.07.41.11.41a1.13,1.13,0,0,1,.06.5c0,.36,0,.54.1.61a.76.76,0,0,1,.1.45c0,.26,0,.35.11.35a.12.12,0,0,1,.1.13c0,.08,0,.14-.1.14s-.11.07-.11.21,0,.2.1.2.18.14.18.35,0,.13.17.13.17,0,.17.13,0,.14.2.14.21,0,.21-.14,0-.13.24-.13.24,0,.24.13,0,.14.3.14.31,0,.31-.14.05-.13,1.64-.13,1.64,0,1.64.13,0,.14,1.64.14a8.13,8.13,0,0,1,1.63.07s.07.07.14.07.14,0,.14-.07.07-.07.17-.07.17,0,.17.07,0,.07.1.07.1,0,.1-.07.1-.07.21-.07.2,0,.2.07a6.43,6.43,0,0,0,1.44.07c1.23,0,1.43,0,1.43.1s.07.1.21.1.2,0,.2-.1.07-.1.21-.1.2,0,.2.1.07.11.15.11l1,0c.47,0,1.18,0,1.57.09s1,.07,1.28.08c.5,0,.56,0,.56.12s.06.13.23.13,1.09,0,2.15.06c1.8.05,1.93.06,1.93.18s0,.12.22.12c.4,0,1.58.07,2.08.11s.5.07.5.14.07.09.2.09.21,0,.21-.1.06-.1.13-.1.14,0,.14.1,0,.1.07.1.06,0,.06-.09.35-.2,1.1-.14c.51,0,.68.07.68.14s.11.09.39.1a3.82,3.82,0,0,1,.81.1,5.52,5.52,0,0,0,1,.1c.54,0,.6,0,.6.12s.07.14.52.18c.29,0,.87,0,1.3,0,.73,0,.77,0,.77.14s0,.13.65.13c.42,0,.65,0,.65.08s.09.06.19.05c.52,0,1,0,1,.1s.35.18,1,.18c.31,0,.53,0,.53.07a1.89,1.89,0,0,0,.75.07c.71,0,.75,0,.75.14s.05.13.4.13.69,0,1,.05c.59,0,.67.06.67.17s.07.12,1,.12a3.15,3.15,0,0,1,1,.07s.17.07.37.07.38,0,.38.14.05.13.27.13.28,0,.28.07.22.07.54.07.55,0,.55.1.41.24.9.24.4,0,.4.14,0,.13.34.13.34,0,.34.07.18.07.41.07.41,0,.41.09.32.22.77.28c.2,0,.32.08.32.14s.21.14,1,.21c.46,0,.53.07.53.18s.06.12.62.12c.36,0,.61,0,.61.07s.08.07.17.07.17,0,.17.14,0,.13.24.13.24,0,.24.07.14.07.31.07.3,0,.3.13.07.14.62.18.61.07.61.17,0,.13.81.25c.12,0,.22.08.22.12s.15.18.38.18.16,0,.16.06.08.07.17.07.17,0,.17.13.07.14.45.18.44.07.44.18,0,.13.09.13.46.17.46.29,0,.12.07.12.08.07.11.17.07.17.1.17a.07.07,0,0,1,.06.07s-.12.06-.26.06-.27,0-.31.21-.08.2-.21.2-.18,0-.18.14,0,.14-.2.14-.21,0-.21.07-.07.06-.17.06-.17,0-.17.13-.06.14-.3.18-.31.07-.31.18-.05.13-.22.13c-.45,0-.75.08-.79.21s-.09.13-.22.13-.22,0-.24.07a1,1,0,0,1-.38.11c-.27,0-.34.07-.34.17a.12.12,0,0,1-.13.13c-.22,0-.34.07-.34.21s-.07.14-.28.17-.27.08-.27.16-.08.13-.29.16-.3.07-.31.11a.29.29,0,0,1-.23.08c-.15,0-.19,0-.19.13s-.07.14-.48.18-.48.07-.48.16-.13.13-.74.19c-.4,0-.83.09-.95.09s-.22,0-.22.13-.05.14-.24.14-.24,0-.24.07-.17.07-.37.07-.37,0-.4.13-.09.14-.4.14l-.83,0c-.39,0-.46.07-.46.17s0,.13-.34.13-.34,0-.34.07-.15.07-.34.07-.34,0-.34.12-.08.14-.5.18c-.85.07-1.07.12-1.07.21a2.7,2.7,0,0,1-1.31.17c-.55,0-.67,0-.67.21s-.06.13-.53.14c-1.39,0-2.07.1-2.07.23s-.09.1-.32.1a6.7,6.7,0,0,0-.86.1,6.46,6.46,0,0,1-1,.11c-.45,0-.51,0-.51.12s-.08.14-.62.17c-.35,0-.81.05-1,.05s-.4,0-.4.14,0,.14-1.09.17c-.71,0-1,.06-1,.2a3.06,3.06,0,0,1-1.41.17c-.29,0-.5,0-.5.07a2.55,2.55,0,0,1-.89.07c-.81,0-.88,0-.88.12s-.09.13-.87.17c-.48,0-1.16.05-1.51.05-.57,0-.63,0-.63.13s-.1.13-1.62.17c-3.28.09-3.63.11-3.63.25s0,.13-.07.13-.07-.06-.07-.13,0-.14-.1-.14a.13.13,0,0,0-.11.14c0,.12,0,.13-.82.13a2.13,2.13,0,0,0-.81.07s-.2.07-.45.07-.44,0-.44.1-.07.1-.17.1-.17,0-.17-.1,0-.1-.07-.1a.08.08,0,0,0-.07.09c0,.15-1.34.23-3.84.24-1.44,0-1.49,0-1.49.15s0,.13-.24.13-.23,0-.23-.13,0-.14-.48-.14-.48,0-.48.14,0,.13-.65.13-.65,0-.65-.13,0-.14-.1-.14-.1.06-.1.14a.11.11,0,1,1-.21,0c0-.1,0-.14-.17-.14s-.17,0-.17.14,0,.13-.48.13-.47,0-.47-.13,0-.14-5-.14-5,0-5,.14a.12.12,0,0,1-.11.13c-.06,0-.1.07-.1.21s0,.2-.07.2-.07.1-.07.21,0,.22-.09.24-.12.19-.15.41-.07.37-.1.37-.07.14-.1.32a.91.91,0,0,1-.14.41.54.54,0,0,0-.1.3c0,.11,0,.2-.07.2s-.07.17-.07.38,0,.37-.1.37-.1.09-.1.38,0,.37-.06.37-.08.16-.1.34l0,.35h-.3c-.26,0-.31,0-.31-.14ZM67.32,155c0-.2,0-.31.1-.34a.24.24,0,0,0,.1-.21c0-.11,0-.17.1-.17s.11-.11.11-.55,0-.54.06-.54.07-.13.07-.28,0-.27.1-.27.11-.1.11-.5,0-.51.13-.59a.32.32,0,0,0,.14-.22c0-.07,0-.12.07-.12s.07-.08.07-.17,0-.17.1-.17.1-.08.1-.28,0-.27.1-.27.11-.11.14-.31a.75.75,0,0,1,.18-.43.41.41,0,0,0,.13-.26c0-.08,0-.16.07-.17a.73.73,0,0,0,.11-.38c0-.24.07-.36.13-.36s.1-.08.1-.21,0-.2.09-.2.11-.13.14-.38.08-.37.15-.37.1-.07.1-.14a.19.19,0,0,1,.1-.18.25.25,0,0,0,.1-.21.18.18,0,0,1,.14-.2c.09,0,.13-.1.13-.24s0-.19.11-.19.1-.07.1-.21,0-.2.09-.2.18-.28.18-.52-1.23-.2-4.56-.24c-.93,0-1,0-1-.15s-.06-.12-.06,0-.42.27-.42.06,0-.14-.37-.14-.38,0-.38.13-.06.15-.2.18-.21.06-.21.45,0,.4.11.4a.11.11,0,0,1,.1.11.11.11,0,0,1-.1.1.1.1,0,1,0,0,.2c.08,0,.1.11.1.51s0,.52.1.52.1.14.1.9a4.63,4.63,0,0,0,.21,1.82s.07.09.07.18,0,.17.1.17.1.08.1.32c0,.5.08.84.18.84s.09.08.09.21,0,.2.11.2.1.07.1.21,0,.22.1.24a.27.27,0,0,1,.1.24c0,.11,0,.2.07.2s.07.06.07.13a.22.22,0,0,0,.1.17.22.22,0,0,1,.11.21c0,.11,0,.17.1.17s.1.06.1.17,0,.17.1.17.11.07.11.23,0,.25.1.27a.24.24,0,0,1,.1.19.17.17,0,0,0,.14.18.17.17,0,0,1,.13.17.18.18,0,0,0,.14.17.18.18,0,0,1,.14.17c0,.09,0,.12.2.12s.21,0,.21-.3Zm17,0c0-.19.07-.34.1-.34a3.27,3.27,0,0,0,.09-.75,2.19,2.19,0,0,1,.12-.75s.06-.11.06-.24,0-.24.1-.24.1-.06.1-.13a.24.24,0,0,1,.06-.17.86.86,0,0,0,.11-.42c0-.2.07-.37.1-.37s.08-.16.1-.34.08-.34.11-.34.07-.05.07-.11a.1.1,0,0,1,.09-.1c.06,0,.12-.11.14-.31s.08-.3.12-.3.06-.13.06-.28,0-.27.1-.27.1-.06.1-.17,0-.17.06-.17a1.84,1.84,0,0,0,.11-.71c0-.52.08-.73.15-.75a.2.2,0,0,0,.09-.18c0-.07,0-.14.08-.14s.24-.15.29-.36.08-.18.11-.18.07-.06.07-.14,0-.14.09-.14.12-.08.14-.18c.09-.49.13-.61.22-.67a1,1,0,0,0,.14-.43l0-.35h-1.9c-2,0-2.21,0-2.21-.17s0-.1-.07-.1-.07.06-.07.14,0,.14-.1.14-.31-.08-.31-.18-.15-.1-.72-.1-.71,0-.71.14,0,.14-.25.14a1,1,0,0,0-.38.07c-.13.07-.13.11-.09,1.38a8.56,8.56,0,0,0,.11,1.33c.08,0,.08.29,0,.29s-.06.09-.06.2,0,.21.06.21a.87.87,0,0,1,.11.41.84.84,0,0,0,.1.41s.07.17.07.37,0,.38.09.38.16.25.23,1.06c0,.34.07.53.13.56s.11.18.13.37.08.34.21.37.16.09.16.17a.37.37,0,0,0,.1.22.41.41,0,0,1,.11.25c0,.08,0,.14.1.14s.1.06.1.17,0,.18.07.2a.25.25,0,0,1,.07.18.2.2,0,0,0,.1.18.17.17,0,0,1,.1.16c0,.07.1.18.21.25a.37.37,0,0,1,.2.24.18.18,0,0,0,.11.16.22.22,0,0,1,.1.17.18.18,0,0,0,.13.15.18.18,0,0,1,.14.18c0,.12,0,.14.24.14s.24,0,.28-.34Zm-35.14-1.67c0-.09,0-.17.07-.17s.07-.11.07-.24,0-.24.09-.24.11-.15.15-.54.07-.55.17-.58.2-.34.2-.84c0-.16,0-.29.07-.29s.07-.09.07-.21,0-.2.14-.2a.13.13,0,0,0,.14-.12,1.43,1.43,0,0,1,.24-.65.71.71,0,0,0,.13-.36c0-.17.07-.31.11-.31s.06-.09.06-.2,0-.21.1-.21.11-.06.11-.19a.34.34,0,0,1,.13-.28.36.36,0,0,0,.14-.26c0-.08,0-.15.06-.15s.09-.16.14-.34.14-.36.19-.37.09-.13.09-.25,0-.2.1-.2.1-.06.1-.14,0-.14.1-.14.11-.06.11-.2,0-.21.13-.24a.19.19,0,0,0,.14-.16.32.32,0,0,1,.14-.22.34.34,0,0,0,.13-.25c0-.09,0-.16.11-.16s.1-.06.1-.17v-.17H49.87c-3.06,0-3.11,0-3.11.14s0,.14-.1.14-.1-.06-.1-.14,0-.14-.07-.14-.07.06-.07.14,0,.14-.1.14-.1.06-.1.2,0,.21-.07.21-.07.16-.07.37,0,.38.07.38.07.18.07.41,0,.41.1.41.1.11.1.61,0,.61.07.61.07.16.07.35,0,.34.09.34.12.18.18.55c.1.66.13.75.25.75s.09.09.09.34,0,.34.11.34.1.06.1.17,0,.17.09.17.11.13.14.41.07.41.18.41.13.07.17.37.07.39.21.42.17.08.17.37,0,.33.17.37a.19.19,0,0,1,.17.17c0,.17.06.21.28.21s.19,0,.19-.17Zm-9.95-1.78c1,0,1.08-.05,1.08-.17s0-.13.07-.13.06.06.06.13.05.14,1.17.14,1.16,0,1.16-.14,0-.14.12-.14.11,0,0,0-.12-.1-.12-.37,0-.33-.11-.33-.1-.09-.1-.38,0-.37-.09-.37-.11-.13-.13-.4-.08-.4-.12-.41-.07-.1-.07-.19,0-.17-.1-.17-.1-.06-.1-.2,0-.21-.07-.21-.07-.16-.07-.37,0-.38-.1-.38-.1-.09-.1-.41,0-.41-.09-.41-.07,0,0,0,.09-.21.09-.61,0-.57-.11-.57-.1-.11-.1-.58v-.58l-.31,0c-.23,0-.3-.08-.3-.17s-.1-.13-.87-.16c-.48,0-2-.06-3.49-.09-2.16,0-2.61-.05-2.61-.13s-.11-.1-.44-.1-.45,0-.45-.07-.06-.06-.13-.06-.14,0-.14.06-.08.07-.17.07-.17,0-.17.1a.11.11,0,0,1-.1.11c-.09,0-.1.15-.1,1s0,1-.11,1-.1,0-.1.07.05.06.1.06.11.09.11.34,0,.35-.11.35-.1.16-.1,1a3.28,3.28,0,0,1-.07,1,2.6,2.6,0,0,0-.07.89,2.55,2.55,0,0,0,.07.89s.07.09.07.2,0,.21.1.21.11.07.11.21,0,.22.1.24a.2.2,0,0,1,.1.17c0,.12.08.13,2,.13,1.1,0,2.12,0,2.27.06a16.2,16.2,0,0,0,2.64,0Zm37,0h.71l0-.53c0-.69-.11-1-.22-1s-.1-.1-.1-.38,0-.37-.06-.37-.08-.16-.11-.34-.08-.35-.14-.35-.1,0-.1-.06-.21-.06-.24.13a.38.38,0,0,1-.14.23.21.21,0,0,0-.09.18.13.13,0,0,1-.11.14c-.06,0-.1.06-.1.17s0,.17-.1.17a.1.1,0,0,0-.1.1.1.1,0,0,1-.11.1c-.06,0-.1.07-.1.18s0,.17-.1.17-.1.06-.1.13a.21.21,0,0,1-.07.17.25.25,0,0,0-.07.18.4.4,0,0,1-.1.24.67.67,0,0,0-.1.4c0,.35.07.39.64.34.19,0,.66,0,1.05,0ZM59.74,151a.21.21,0,0,1,.08-.17c.06,0,.07-.05,0-.09a2.94,2.94,0,0,1-.23-1.06c0-.12,0-.19-.1-.19s-.1-.08-.1-.31,0-.3-.11-.3-.1-.1-.1-.45a.91.91,0,0,0-.06-.44,5.51,5.51,0,0,1-.11-1.08,4.61,4.61,0,0,0-.12-1.12c-.1-.06-.32,0-.32.12s0,.1-.07.1-.07,0-.07.1-.06.1-.17.1-.17,0-.17.14a.21.21,0,0,1-.1.18.19.19,0,0,0-.11.17.12.12,0,0,1-.13.13c-.08,0-.14,0-.14.07s0,.06-.1.06-.1.06-.1.13a.39.39,0,0,1-.14.22.3.3,0,0,0-.14.22.18.18,0,0,1-.09.16.38.38,0,0,0-.14.23c0,.12-.08.2-.14.2s-.11.07-.11.21,0,.2-.1.2-.1.07-.1.18,0,.17-.1.17-.1.06-.1.13a.25.25,0,0,1-.07.17.34.34,0,0,0-.07.24c0,.14,0,.21-.14.24a.19.19,0,0,0-.13.17c0,.09-.07.15-.18.18s-.17.08-.17.34,0,.3-.07.3,0,0,0,.1a.66.66,0,0,0,.45.11c.3,0,.35,0,.35.13s0,.14,1.74.14,1.74,0,1.74-.13ZM95,150.63c.39,0,.49,0,.49-.11s.07-.1.18-.1.17,0,.17.1.21.12,1.74.13c1.85,0,2.42,0,2.42-.13s.06-.1.14-.1.13,0,.13.1.1.1.45.1.44,0,.44-.1.08-.1.27-.1.28,0,.28.1a.1.1,0,0,0,.2,0c0-.06,0-.1.07-.1s.07,0,.07.1.06.1.17.1.17,0,.17-.1.09-.1.41-.1.41,0,.41.1,0,.1.07.1.07,0,.07-.1a.14.14,0,0,1,.12-.12c.18,0,.35,0,.35.13a.09.09,0,0,0,.07.09s.07-.05.07-.1a.11.11,0,0,1,.12-.11l.7,0c.67,0,3.57-.08,6.71-.09,2.12,0,2.17,0,2.17-.15s0-.13,1.55-.13c.85,0,2,0,2.53,0,.88,0,1-.05,1-.17s.06-.13.56-.13a9.33,9.33,0,0,0,1.08-.07,10.61,10.61,0,0,1,1.58-.12c.54,0,.6,0,.6-.14s.09-.13,1-.17c.53,0,1.34,0,1.8,0,.8,0,.84,0,.84-.14s0-.13,1-.13c.54,0,1.4,0,1.91,0,.85,0,.93-.06.93-.17s.07-.13.58-.13c.35,0,.59,0,.59-.06s.28-.07.71-.07c.67,0,.72,0,.72-.14s0-.14.48-.14c.27,0,.47,0,.47-.06a2.66,2.66,0,0,1,1-.07c.91,0,1,0,1-.14s0-.14.95-.14a3.2,3.2,0,0,0,1-.06s-.06-.07-.14-.07a.12.12,0,0,1-.13-.1c0-.08-.1-.11-.41-.11s-.41,0-.41-.06-.19-.07-.41-.07-.41,0-.41-.13-.09-.14-1.69-.18c-2.59-.06-3-.09-3-.23s-.1-.13-1.07-.17c-.59,0-1.7,0-2.46,0-1.34,0-1.38,0-1.38-.14s-.05-.14-.72-.14c-.43,0-.72,0-.72-.07s-.06-.06-.13-.06-.14,0-.14.06-.08.07-.17.07-.17,0-.17-.07a2.49,2.49,0,0,0-.84-.06c-.92,0-1.14,0-1.14-.18s-.14-.1-.63-.1l-.91,0c-.15,0-.89-.05-1.65-.07-1.29,0-1.38-.06-1.38-.18s0-.13-.21-.13-.21,0-.21.16v.15l0-.15c0-.15-.06-.16-.83-.16l-1,0-1,0c-.75,0-.8,0-.8-.15s0-.14-.17-.14-.17,0-.17.14-.05.13-.14.13-.13,0-.13-.13,0-.14-1.1-.14a3.37,3.37,0,0,1-1.09-.07,2.92,2.92,0,0,0-.92-.06c-.88,0-.92,0-.92-.14s0-.14-4.74-.14c-3.09,0-4.76,0-4.79-.07a.57.57,0,0,0-.31-.06c-.22,0-.27,0-.27-.14s0-.14-.85-.14-.85,0-.85.14-.05.14-.52.14-.51,0-.51-.14,0-.14-.48-.14-.47,0-.47.14,0,.14-.45.14-.44,0-.44-.14,0-.14-.24-.14-.24,0-.24.12a.25.25,0,0,1-.15.19.32.32,0,0,0-.18.22c0,.09-.07.16-.12.16s-.1.07-.1.19,0,.22-.1.24a.16.16,0,0,0-.1.15.41.41,0,0,1-.1.21.38.38,0,0,0-.11.23c0,.08,0,.14-.06.14s-.07.09-.07.2,0,.23-.11.25a.18.18,0,0,0-.1.16.3.3,0,0,1-.1.21.38.38,0,0,0-.1.28c0,.13,0,.19-.1.19s-.11.07-.11.17,0,.17-.1.17a.1.1,0,0,0-.1.11c0,.12-.16.3-.26.3s-.09.15-.11.34-.09.35-.15.37a.2.2,0,0,0-.1.16c0,.26-.14.64-.24.64s-.1.08-.1.33v.33l.35.08a3.62,3.62,0,0,0,.51.08c.1,0,.17,0,.17.1s.62.15,3.53.11Zm-69.85-.33c1,0,1.11,0,1.11-.16s0-.13.06-.13a27.16,27.16,0,0,0,0-3.58l0-.37-.65-.05a7.3,7.3,0,0,0-1.64.06,4.62,4.62,0,0,0-.06.58c0,.48-.07.56-.17.56s-.13,0-.13.1c0,.22-.17.65-.26.65a.35.35,0,0,0-.29.3.13.13,0,0,1-.14.11c-.09,0-.15.06-.17.2s-.07.2-.41.24-.37.07-.37.17-.31.2-1.54.2-1.6-.05-1.6-.2-.07-.13-.21-.16-.2-.08-.2-.18a.13.13,0,0,0-.14-.14c-.1,0-.15-.05-.18-.2s-.08-.21-.17-.21-.12-.05-.12-.2,0-.2-.07-.2-.07-.08-.07-.18,0-.17-.11-.17a.35.35,0,0,1-.3-.37c0-.1,0-.17-.1-.17s-.13-.15-.21-.8c-.05-.34-.06-.36-.25-.36s-.19,0-.19-.14-.05-.14-1.67-.14-1.68,0-1.68.13-.07.13-.78.16a2.74,2.74,0,0,0-.87.11c-.11.11.06.42.23.42s.13,0,.13.17,0,.17.06.17.07.07.07.14a.13.13,0,0,0,.14.14c.1,0,.13,0,.13.17s.14.37.27.37.08.07.08.14,0,.15.2.18.21.06.21.37,0,.34.06.34.07.11.07.24,0,.24.13.24.14.06.18.37.07.38.18.38.13.05.13.16S14,150,16,150h3.13c1.29,0,1.35,0,1.35.15s.05.14,1.52.16l1.79,0,1.38,0Zm59.87-12a6.74,6.74,0,0,1-.18-1s0,0-.1,0-.1-.09-.1-.38,0-.37-.07-.37-.07-.17-.07-.38,0-.39-.09-.41-.11-.26-.15-.84a2.87,2.87,0,0,0-.11-.84.9.9,0,0,1-.1-.39c0-.19-.07-.35-.1-.35s-.06-.13-.06-.29a6.37,6.37,0,0,0-.11-.87,8,8,0,0,1-.1-.87c0-.22,0-.29-.1-.29s-.1-.09-.1-.34,0-.35-.06-.35a6,6,0,0,1-.11-1.31,9.17,9.17,0,0,0-.11-1.35,11.33,11.33,0,0,1-.08-1.57,5.16,5.16,0,0,0-.11-1.55.24.24,0,0,1-.08-.2c0-.12,0-.16-.17-.16s-.18,0-.2-.07a2.67,2.67,0,0,0-.83-.07c-.72,0-.78,0-.78-.12s-.08-.14-.9-.19L79,123.61l-.36,0c-.11,0-.15,0-.15-.14s0-.14-.47-.14l-1.4,0c-.85,0-.93-.06-.93-.18s-.07-.12-.58-.12c-.35,0-.58,0-.58-.07s-.21-.07-.48-.07c-.44,0-.48,0-.48-.13s0-.14-.25-.14-.59,0-1-.08c-.64-.07-.74-.1-.74-.21s-.06-.12-.5-.12c-.27,0-.74,0-1-.05-.48,0-.57-.06-.57-.16s-.09-.13-.56-.17a6.57,6.57,0,0,0-.79,0c-.12,0-.22,0-.22,0s-.12-.08-.27-.08-.27,0-.27-.13,0-.14-.52-.14-.51,0-.51-.17,0-.17-.47-.17c-.25,0-.7,0-1,0s-.52-.06-.52-.17,0-.12-.23-.12a3.38,3.38,0,0,1-.57-.07l-.58-.1c-.15,0-.26-.08-.26-.13s-.42-.18-1-.18c-.34,0-.36,0-.36-.16s0-.16-.6-.2-.84-.09-.84-.21-.21-.12-.53-.17c-.64-.1-.9-.1-.9,0s0,.07-.1.07-.1.05-.1.13a.18.18,0,0,1-.11.16.28.28,0,0,0-.1.25c0,.11,0,.21-.07.22s-.09.18-.11.38-.08.36-.14.36-.09.07-.09.17,0,.17-.09.17-.11.15-.13.53-.08.55-.15.6a.34.34,0,0,0-.11.23c0,.08,0,.14-.09.14s-.11.14-.14.45-.08.44-.15.44-.1.06-.1.14,0,.13-.1.13-.1.09-.1.41,0,.43-.1.45a1.37,1.37,0,0,0-.18.58c-.07.45-.11.54-.21.54s-.12.06-.12.21,0,.2-.07.2-.07.09-.07.21,0,.2-.1.2-.11.07-.11.17a.21.21,0,0,1-.1.2.2.2,0,0,0-.1.17.33.33,0,0,1-.1.23,2.22,2.22,0,0,0-.18.66c-.07.46-.11.55-.21.55s-.13.06-.13.34,0,.34-.12.38a.3.3,0,0,0-.17.24c0,.12-.09.2-.15.2s-.1.07-.1.17,0,.17-.1.17-.11.07-.11.18,0,.17-.06.17-.07.1-.07.23,0,.24-.13.24-.13.08-.17.46-.08.49-.18.58a.47.47,0,0,0-.14.3c0,.1,0,.17-.1.17s-.1.08-.1.34,0,.34-.1.34-.11.07-.11.2,0,.21-.13.24a.21.21,0,0,0-.14.18c0,.07,0,.13-.06.13s-.21.38-.21.62,0,.2-.2.23-.2.09-.23.31-.25.55-.39.55-.07.06-.07.13a.19.19,0,0,1-.14.17.22.22,0,0,0-.13.18.12.12,0,0,1-.11.13c-.05,0-.1.06-.1.14s-.22.41-.34.41-.07.06-.07.13,0,.14-.07.14-.06.08-.06.17,0,.17-.14.17-.14.05-.14.21v.2h.79a2,2,0,0,1,.78.07s.17.07.38.07.37,0,.37-.07a2.39,2.39,0,0,1,.86-.07,2.36,2.36,0,0,1,.85.07,18.6,18.6,0,0,0,2.49.07c2.17,0,2.49,0,2.49.1s0,.1.07.1.07,0,.07-.1.12-.1.68-.1.69,0,.69.12,0,.11,0,0,.5-.17.5,0,.08.1.31.1.31,0,.31-.1.06-.1.13-.1.14,0,.14.1.22.1,1.6.1,1.61,0,1.61-.1a.1.1,0,0,1,.1-.1c.09,0,.1-.12.11-.63,0-7.19.07-8.38.21-8.38s.06-.07.06-.14,0-.14-.07-.14-.09-.39,0-.42.09-.28.1-.81,0-.85,0-.94,0-.15.31-.15.31,0,.31.14.2.17.21,0,0-.15.06,0,.06.16.06,0,.22-.2.22,0,0,.13,2.11.13c1.16,0,2.16,0,2.22,0s.1.22.1,1.4,0,1.35.11,1.35a.11.11,0,0,1,.1.11.11.11,0,0,1-.1.1c-.09,0-.11.38-.11,3,0,1.64,0,3.56,0,4.26l0,1.28h.51a4.08,4.08,0,0,1,1.14.09s2.76,0,6.08,0c5.76,0,6,0,6-.12Zm18.46-20s.2-.07.45-.07.44,0,.44-.14,0-.13.44-.13.45,0,.45.13,0,.14,1.81.14a8.92,8.92,0,0,1,1.81.07,4.47,4.47,0,0,0,1.2.07c1,0,1.22,0,1.29-.1s.14-1.13,0-1.14-.07,0,0,0,.12-1,0-1a6,6,0,0,1-.07-1.4,6.45,6.45,0,0,0-.06-1.39,2.47,2.47,0,0,1-.07-.92,3.16,3.16,0,0,0-.07-.94,4.92,4.92,0,0,1-.15-1,4.43,4.43,0,0,0-.13-1s-.06-.18-.06-.41,0-.41-.1-.41-.11-.13-.12-.73c0-.41,0-.8,0-.89s0-.15-.06-.15-.07-.29-.07-.79a2,2,0,0,0-.07-.78s-.07-.17-.07-.38,0-.37-.07-.37a1.62,1.62,0,0,1-.07-.69c0-.41,0-.68-.06-.68s-.07-.08-.07-.17,0-.17,0-.17-.23-.55-.23-1c0-.24,0-.44-.06-.44s-.08-.13-.11-.28-.07-.27-.1-.27a.93.93,0,0,1-.09-.43c-.1-1-.12-1.07-.26-1.07s-.13-.06-.13-.52a1.16,1.16,0,0,0-.06-.51s-.07-.09-.07-.2,0-.21-.07-.21-.07-.06-.07-.13-.14-.48-.22-.48-.05-.06-.05-.14a.12.12,0,0,0-.11-.13.11.11,0,0,1-.1-.11.34.34,0,0,0-.3-.3.11.11,0,0,1-.11-.11c0-.06-.06-.1-.17-.1s-.17,0-.17-.1-.07-.1-.27-.1-.28,0-.28-.11-.07-.1-.27-.1-.27,0-.27-.07-.06-.07-.14-.07-.13,0-.13-.06,0-.07-.11-.07-.1,0-.1-.06-.08-.08-.19-.1a.9.9,0,0,1-.35-.18.55.55,0,0,0-.29-.14.12.12,0,0,1-.13-.1.09.09,0,0,0-.1-.1.11.11,0,0,1-.1-.11c0-.05-.06-.1-.14-.1s-.13,0-.13-.07,0-.07-.11-.07a.35.35,0,0,1-.23-.12.79.79,0,0,0-.55-.29c-.08,0-.14,0-.14-.1s-.07-.1-.2-.1-.21,0-.21-.1-.1-.11-.3-.14-.31-.08-.31-.18,0-.13-.27-.13-.28,0-.28-.13,0-.14-.2-.14-.21,0-.21-.07-.06-.07-.13-.07-.14,0-.14-.1,0-.1-.07-.1-.07,0-.07-.1-.06-.11-.17-.11-.19,0-.21-.1-.13-.1-.24-.1-.2,0-.2-.07-.06-.07-.13-.07-.14,0-.14-.13,0-.14-.17-.14a.91.91,0,0,1-.63-.33.8.8,0,0,0-.4-.2c-.13,0-.23-.07-.23-.13a.1.1,0,0,0-.11-.09s-.1,0-.1-.07a.08.08,0,0,0-.09-.07.17.17,0,0,1-.14-.08c0-.07-.05-.07-.08,0a.17.17,0,0,1-.14.08c-.07,0-.09.1-.09.38s0,.37.06.37a1.11,1.11,0,0,1,.11.46,1.51,1.51,0,0,0,.11.5,1.42,1.42,0,0,1,.1.5,1.51,1.51,0,0,0,.09.45.84.84,0,0,1,.1.41.87.87,0,0,0,.11.41s.07.13.07.28,0,.27.09.27.11.12.13.39a7.66,7.66,0,0,0,.24,1.65,6.84,6.84,0,0,1,.12,1.31,6,6,0,0,0,.12,1.3,1.1,1.1,0,0,1,.1.5,1.1,1.1,0,0,0,.08.45,1.54,1.54,0,0,1,.09.56,1.46,1.46,0,0,0,.11.59s.08.14.08.29,0,.27.1.27.1,0,.1,0,0,.3,0,.63a2.9,2.9,0,0,0,.1.73,4.06,4.06,0,0,1,.06.84c0,.44,0,.72.07.72s.06.09.06.21,0,.2-.06.2-.07.18-.07.41,0,.41.06.41a1.88,1.88,0,0,1,.09.62,1.82,1.82,0,0,0,.1.67,1.09,1.09,0,0,1,.11.49,1,1,0,0,0,.12.46s.06.13.06.26,0,.23.11.23.1.13.1.75,0,.75.09.75a12,12,0,0,1,.18,2.78,1.79,1.79,0,0,0,.07.67.76.76,0,0,1,.07.41c0,.2,0,.38.07.39a3.7,3.7,0,0,1,.11,1.15,6.83,6.83,0,0,0,.09,1.16.34.34,0,0,1,.08.2c0,.14.08.19.28.24s.26.1.26.18.05.13.3.13.31,0,.31.07.15.07.34.07.34,0,.34-.07Zm-8.58-1.16h.18v-.78c0-.53,0-.79-.07-.81s-.09-.29-.12-.77a2.33,2.33,0,0,0-.1-.8,2,2,0,0,1-.1-.8,3,3,0,0,0-.08-.75,2.61,2.61,0,0,1-.09-.74,2.25,2.25,0,0,0-.12-.75,1.22,1.22,0,0,1-.07-.56,1.7,1.7,0,0,0-.06-.58.37.37,0,0,1-.07-.25c0-.15,0-.2-.14-.2s-.14,0-.14-1.09a4.11,4.11,0,0,0-.06-1.09s-.09-.08-.11-.17-.07-.17-.1-.17-.07-.18-.09-.39a1.19,1.19,0,0,0-.1-.43,1.17,1.17,0,0,1-.11-.51,1.5,1.5,0,0,0-.12-.52,3.26,3.26,0,0,1-.18-.84c-.08-.55-.14-.8-.2-.8s-.09-.14-.09-.58,0-.58-.06-.58-.07-.3-.07-.78,0-.8-.09-.87a1.88,1.88,0,0,1-.14-.76,2.15,2.15,0,0,0-.11-.72,2.2,2.2,0,0,1-.11-.67,2.08,2.08,0,0,0-.1-.63,8.39,8.39,0,0,1-.27-2.31c0-.63,0-.77-.11-.77s-.1-.09-.1-.41,0-.41-.06-.41-.08-.13-.1-.3-.08-.31-.11-.31a2.62,2.62,0,0,1-.1-.7,2.44,2.44,0,0,0-.12-.74,1.32,1.32,0,0,1-.1-.48,1.07,1.07,0,0,0-.11-.48,3.9,3.9,0,0,1-.13-1.08c-.05-1.13-.08-1.3-.23-1.3s-.1-.11-.1-.51,0-.51-.08-.54-.06-.05,0-.1.08-.09,0-.13a1.29,1.29,0,0,1-.12-.53,1.6,1.6,0,0,0-.11-.51,2.28,2.28,0,0,1-.08-.68c0-.43,0-.65-.11-.67s-.08-.09-.08-.16a.12.12,0,0,0-.1-.13c-.17,0-.31.08-.31.18a.1.1,0,0,1-.11.09.11.11,0,0,0-.1.11s0,.1-.07.1-.24.15-.29.36-.1.18-.15.18a.1.1,0,0,0-.1.11s0,.1-.07.1-.07,0-.07.1,0,.1-.07.1-.07.07-.07.14,0,.14-.13.14-.14,0-.14.17,0,.17-.07.17-.08.08-.11.17-.08.17-.13.17-.1.06-.1.14,0,.13-.07.13-.07,0-.07.1a.19.19,0,0,1-.08.16,1.6,1.6,0,0,0-.31.68c0,.09-.07.16-.13.16s-.09.07-.09.17,0,.17-.06.17-.08.09-.1.2-.08.21-.15.21a.1.1,0,0,0-.1.1c0,.06,0,.1-.06.1s-.09.09-.11.21-.09.2-.14.2a.1.1,0,0,0-.1.1c0,.17-.15.45-.25.45s-.09.08-.09.19a.27.27,0,0,1-.1.24.24.24,0,0,0-.11.22.43.43,0,0,1-.1.28.49.49,0,0,0-.1.27c0,.1,0,.16-.1.16s-.11.07-.11.24,0,.24-.13.28-.14.1-.14.24,0,.2-.14.2-.13,0-.13.2,0,.21-.06.21-.08.08-.11.17-.07.17-.1.17-.08.12-.11.27a.46.46,0,0,1-.14.3A.29.29,0,0,0,84,94c0,.14,0,.2-.1.2s-.1.06-.1.14c0,.31-.15.82-.25.82a.08.08,0,0,0-.09.07.31.31,0,0,1-.09.17,2,2,0,0,0-.19.24,1.66,1.66,0,0,1-.18.24.63.63,0,0,0-.13.26c0,.1-.07.18-.1.18s-.08.74,0,.77a1,1,0,0,1,.11.49,1.56,1.56,0,0,0,.13.57.69.69,0,0,1,.1.42c0,.18,0,.34.07.36a2.36,2.36,0,0,1,.11.82,2.83,2.83,0,0,0,.1.8,1.57,1.57,0,0,1,.06.58c0,.45,0,.58.09.58s.16.39.28,2.66A1,1,0,0,0,84,105c.07,0,.1.29.1,1s0,.92.1.95a2.78,2.78,0,0,1,.12.93,4.29,4.29,0,0,0,.1.93,1.42,1.42,0,0,1,.09.54,1.42,1.42,0,0,0,.1.53,2.21,2.21,0,0,1,.07.77c0,.66,0,.74.12.75s.11,0,0,0-.17.36,0,.36a9.85,9.85,0,0,1,.29,2.59,2.65,2.65,0,0,0,.09.82,2.74,2.74,0,0,1,.14,1,.2.2,0,0,0,.17.23c.13,0,.17.09.17.2v.17h1.16c1.33,0,1.78,0,1.78.18s.08.09.2.09.21,0,.21-.1.06-.1.17-.1.17,0,.17.1.17.1,1,.11l1.56,0c1.56.07,2.29.12,2.32.14a.56.56,0,0,0,.27,0,3.44,3.44,0,0,1,.43,0Zm-15.75-1.26a1.66,1.66,0,0,0,0-1,1.18,1.18,0,0,1-.11-.41c0-.25-.08-.38-.14-.38s-.1-.1-.1-.41,0-.4,0-.4a10,10,0,0,1-.09-1.69,6.36,6.36,0,0,0-.12-1.71c-.1,0-.1-.43,0-.43s.06,0,0,0a1.89,1.89,0,0,1-.13-.7,1.74,1.74,0,0,0-.11-.67c-.08,0-.08-.22,0-.22s.09-.18,0-.21a1.8,1.8,0,0,1-.12-.64,2.33,2.33,0,0,0-.09-.65,4.78,4.78,0,0,1-.27-1.14c0-.09,0-.16-.1-.16s-.11-.11-.11-.58a1.66,1.66,0,0,0,0-.58,1.85,1.85,0,0,1-.1-.69,2.69,2.69,0,0,0-.1-.73,2.76,2.76,0,0,1-.1-.79,2.05,2.05,0,0,0-.11-.78.81.81,0,0,1-.11-.38A.67.67,0,0,0,77,100a1.57,1.57,0,0,1-.11-.59c-.14-1.8-.21-2.36-.3-2.36s-.09-.15-.09-.57,0-.59-.08-.62-.07-.05,0-.08.12-.3,0-.3a2.21,2.21,0,0,1-.11-.73,2.59,2.59,0,0,0-.12-.77,4.29,4.29,0,0,1-.11-.88,3.35,3.35,0,0,0-.09-.83,1.28,1.28,0,0,1-.13-.41c-.06-.33-.1-.41-.21-.41s-.13,0-.13-.1-.07-.1-.17-.1-.17,0-.17-.07,0-.07-.11-.07-.1,0-.1-.06a1.33,1.33,0,0,0-.62-.55.12.12,0,0,1-.13-.11.1.1,0,0,0-.09-.1c-.06,0-.12-.07-.14-.17S74,90,73.93,90a.37.37,0,0,1-.26-.27s-.08-.07-.17-.07-.18,0-.18-.14,0-.13-.1-.13a.11.11,0,0,1-.1-.11s-.06-.1-.14-.1-.13,0-.13-.07a.39.39,0,0,0-.27-.27s-.07,0-.07-.12a.34.34,0,0,0-.14-.22.32.32,0,0,1-.14-.19.07.07,0,0,0-.07-.08s-.06,0-.06-.11A.12.12,0,0,0,72,88c-.08,0-.15-.06-.18-.17s-.08-.17-.14-.17-.1-.07-.1-.17,0-.17-.1-.17a.13.13,0,0,1-.11-.14c0-.07,0-.14-.06-.14s-.07,0-.07-.1a.11.11,0,0,0-.1-.1.11.11,0,0,1-.11-.1.09.09,0,0,0-.1-.1c-.06,0-.1-.07-.1-.14s0-.14-.1-.14a.1.1,0,0,1-.11-.1.09.09,0,0,0-.1-.1c-.06,0-.1-.06-.11-.12s0-.1,0,0a.35.35,0,0,1-.11.15.82.82,0,0,0-.1.36c0,.18-.07.34-.12.36s-.11.23-.14.57-.07.54-.14.54-.09.11-.09.41,0,.41-.1.41-.1.2-.14.84a4,4,0,0,1-.11.87,8.92,8.92,0,0,0-.09,1.33,5,5,0,0,1-.1,1.32c-.1,0-.1.28,0,.28s.07.13.07.28,0,.27-.06.27A6,6,0,0,0,69,95.2c0,.64-.06,1.73-.09,2.42A27.64,27.64,0,0,0,69.1,102a1,1,0,0,1,.11.47,1.42,1.42,0,0,0,.09.48,3.2,3.2,0,0,1,.11.83c0,.61.07.8.14.8s.09.17.09.72,0,.72.1.72.1.08.1.36a9.67,9.67,0,0,0,.18,2.28,1.12,1.12,0,0,1,.1.6c0,.39,0,.52.1.57s.12.21.15.58.06.52.13.52.09.11.09.41,0,.41.11.41.1.09.1.41,0,.41.06.41.1.23.15.51a1.35,1.35,0,0,0,.13.52,1.35,1.35,0,0,1,.09.53c0,.68.08.76.33.76s.19,0,.19.13.08.13.46.17.66,0,.89,0c.41,0,.43,0,.43.18s0,.17.4.17l1.33,0c.71,0,.93.07.93.14s.17.09.74.1a5.65,5.65,0,0,1,.93.06,2.89,2.89,0,0,0,1.31,0ZM65.4,112.67a1.91,1.91,0,0,0-.06-.64,1.45,1.45,0,0,1-.12-.58c0-.41-.07-.57-.13-.57s-.1-.13-.1-.58,0-.58-.09-.58-.1-.25-.13-1.14a6,6,0,0,0-.11-1.17,1.08,1.08,0,0,1-.11-.38.73.73,0,0,0-.11-.38,6.79,6.79,0,0,1-.2-2.17c0-1,0-1.18-.1-1.18s-.1-.12-.1-.68,0-.68-.1-.68-.11-.08-.11-.34,0-.34-.07-.36a1.68,1.68,0,0,1-.15-.69,2.14,2.14,0,0,0-.13-.66,3.53,3.53,0,0,1-.06-.89c0-.74,0-.88-.1-.88s-.1-.1-.1-.45,0-.44-.07-.44-.07-.18-.07-.41,0-.41-.09-.41-.12-.1-.14-.24-.06-.24-.32-.24-.27,0-.27-.07-.17-.07-.37-.07-.38,0-.38-.06-.09-.07-.2-.07-.21,0-.21-.06a1.71,1.71,0,0,0-.75-.22.39.39,0,0,1-.25-.1.64.64,0,0,0-.4-.1c-.22,0-.3,0-.3-.1s-.08-.1-.28-.1-.27,0-.27-.11-.07-.1-.21-.1-.2,0-.2-.07-.09-.07-.2-.07-.21,0-.21-.06-.05-.07-.1-.07-.1,0-.1-.06-.16-.11-.35-.15-.34-.13-.34-.18S57,94,56.8,94s-.34,0-.34-.09-.33-.18-.73-.18c-.18,0-.23,0-.23-.14s0-.14-.47-.14-.48,0-.48.14,0,.14.07.14.06.06.06.13a.12.12,0,0,0,.13.14c.1,0,.14.07.18.31a.86.86,0,0,0,.14.39,1.14,1.14,0,0,1,.17.38c.05.16.12.28.15.28s0,.1,0,.21,0,.2.11.2.1.07.1.17,0,.18.07.18.07.18.07.41,0,.4.13.4a.13.13,0,0,1,.14.11.88.88,0,0,0,.23.45.77.77,0,0,1,.09.32c0,.18.07.29.13.29s.09.08.09.27,0,.27.1.27.18.33.18.73c0,.12,0,.23.07.24s.09.16.11.33a.77.77,0,0,0,.11.35,2.11,2.11,0,0,1,.18,1c0,.24,0,.33.11.33s.1.07.1.27,0,.27.1.27.1.13.12.46.06.47.11.48a.29.29,0,0,1,.08.23.5.5,0,0,0,.1.29.64.64,0,0,1,.11.38c0,.2,0,.28.1.28s.1.08.1.34,0,.34.07.34a1.47,1.47,0,0,1,.07.65c0,.53,0,.65.1.65s.1.11.1.53a17.43,17.43,0,0,0,.15,2.55,2.74,2.74,0,0,1,.11.82,3.24,3.24,0,0,0,.09.8s.06.15.06.31,0,.3.27.38.28.11.28.25,0,.16.44.16.44,0,.44.13.08.14.45.18.44.07.44.11.17.06.38.06.37,0,.37.13.08.13.48.17.48.07.48.18.35.24,1.35.26l.83,0ZM51.34,108c0-.25,0-.44-.07-.44s-.07-.24-.07-.58,0-.58-.07-.58a1.87,1.87,0,0,1-.06-.72c0-.59,0-.72-.11-.72s-.1-.09-.1-.43,0-.45-.08-.47a1,1,0,0,1-.13-.46,1.11,1.11,0,0,0-.12-.47,4.12,4.12,0,0,1-.19-1.32c0-.4-.05-.47-.17-.47s-.13,0-.13-.23,0-.24-.07-.24-.06-.14-.06-.3c0-.49-.07-.73-.21-.73s-.14-.08-.17-.48-.08-.47-.15-.47-.09-.09-.09-.24,0-.24-.07-.24-.07-.12-.07-.27,0-.28-.13-.28-.14,0-.14-.17-.16-.71-.25-.71-.09-.09-.09-.21,0-.2-.1-.2-.1-.07-.1-.21,0-.2-.11-.2-.1-.07-.1-.17,0-.18-.06-.18-.09-.13-.11-.3-.08-.31-.18-.31-.13-.05-.13-.17-.07-.38-.18-.38-.09-.07-.09-.2,0-.21-.1-.21-.11-.06-.11-.19,0-.21-.17-.24-.17-.09-.17-.18,0-.14-.13-.14-.14,0-.14-.2,0-.21-.07-.21-.07-.09-.07-.2,0-.21-.1-.21-.1-.06-.1-.17,0-.17-.06-.17-.08-.09-.1-.2-.08-.21-.14-.21-.25-.41-.25-.64a.12.12,0,0,0-.13-.11c-.11,0-.14,0-.14-.2s0-.21-.07-.21-.07-.09-.07-.2,0-.21-.1-.21-.1,0-.1-.07a.41.41,0,0,0-.1-.18.36.36,0,0,1-.11-.23c0-.07,0-.13-.07-.13s-.27-.19-.27-.37,0-.18-.13-.18-.14-.07-.17-.29a.65.65,0,0,0-.18-.39c-.07-.06-.13-.13-.13-.16a.37.37,0,0,0-.11-.16.4.4,0,0,1-.1-.23c0-.07,0-.13-.1-.13s-.1-.07-.1-.2a.29.29,0,0,0-.1-.24.16.16,0,0,1-.11-.14.1.1,0,0,0-.09-.11s-.13-.1-.18-.24-.13-.23-.18-.23-.09-.09-.09-.24,0-.24-.11-.24a.11.11,0,0,1-.1-.1.1.1,0,0,0-.09-.11c-.08,0-.14-.18-.28-.83,0-.11-.09-.19-.14-.19s-.1-.07-.1-.21,0-.2-.07-.2-.07-.08-.07-.17,0-.17-.1-.17a.1.1,0,0,1-.1-.11.36.36,0,0,0-.11-.21.49.49,0,0,1-.1-.27c0-.09,0-.16-.07-.16a.37.37,0,0,1-.27-.31c0-.06-.06-.1-.14-.1s-.13,0-.13-.21,0-.2-.07-.2-.07-.08-.07-.18a.25.25,0,0,0-.1-.21.16.16,0,0,1-.11-.13s0-.1,0-.1-.08-.15-.11-.34-.08-.34-.14-.34-.1-.06-.1-.14,0-.13-.07-.13-.07-.08-.07-.17,0-.17-.14-.17-.13,0-.13-.15-.15-.67-.22-.67-.26-.2-.31-.41-.08-.21-.13-.21-.1-.07-.1-.17,0-.17-.05-.17-.09-.21-.11-.48-.07-.48-.17-.48-.21-.17-.21-.46c0-.09,0-.15-.1-.15s-.11-.07-.11-.24,0-.24-.1-.24-.1-.07-.1-.24,0-.24-.1-.24-.11-.06-.11-.17,0-.17-.06-.17-.07-.08-.07-.17a.2.2,0,0,0-.14-.22c-.1,0-.14-.09-.14-.23s0-.2-.06-.2-.07-.12-.07-.27,0-.27-.1-.27-.11-.08-.11-.27,0-.28-.08-.29a.86.86,0,0,1-.11-.42c0-.35,0-.39-.19-.39s-.16,0-.16-.48,0-.47-.14-.47-.14,0-.14-.21,0-.2-.06-.2-.07-.13-.07-.28,0-.27-.11-.27-.1-.07-.1-.21,0-.2-.06-.2-.08-.17-.11-.38-.07-.37-.14-.37-.1-.09-.1-.31,0-.31-.07-.31-.06-.12-.06-.27,0-.27-.14-.27-.14,0-.14-.27a1.89,1.89,0,0,0-.1-.55,2.12,2.12,0,0,1-.1-.62c0-.19,0-.34-.07-.34a.08.08,0,0,1-.07-.09.13.13,0,0,0-.06-.12,3.07,3.07,0,0,1-.12-.86c0-.64-.07-.84-.14-.84s-.09-.09-.09-.27,0-.27-.07-.27-.06-.18-.06-.41c0-.61-.08-1-.18-1a.1.1,0,0,1-.1-.11,10.23,10.23,0,0,0-.28-1.79,3,3,0,0,1-.06-.8c0-.65,0-.78-.1-.78s-.1-.13-.1-.79,0-.78-.11-.78-.1-.1-.1-.45,0-.44-.07-.44-.07,0-.07-.1a.09.09,0,0,1,.09-.1c.06,0,0,0,0-.08s-.08-.08,0-.11.11-.22,0-.22-.07-.17-.07-.37c0-.56,0-.59-.45-.59s-.36,0-.36-.1a.1.1,0,0,0-.11-.1.1.1,0,0,0-.1.1c0,.07-.08.1-.31.1s-.3,0-.3-.1-.11-.1-.55-.1-.55,0-.55.1a.12.12,0,0,1-.13.1.19.19,0,0,0-.17.09c0,.06-.05.06-.08,0S29,55.89,29,56a5.14,5.14,0,0,1-1.29.07c-1.43,0-1.71,0-1.72.19s0,.1,0,0a.17.17,0,0,0-.14-.13l-.46,0c-.48,0-.92,0-.92.15a.1.1,0,0,1-.1.09.11.11,0,0,1-.11-.1c0-.06-.06-.1-.13-.1s-.14,0-.14.1-.06.1-.17.1-.17,0-.17-.12-.09-.12-.67-.14c-.85,0-1.24,0-1.24.16s0,.1-.07.1-.07.05-.07.1a.13.13,0,0,1-.14.11c-.13,0-.13,0-.13,3.24s0,3.24.13,3.24.14,0,.14.31,0,.31-.15.32-.15,0,0,0,.14.08.18,1.17c.05,1.34.1,1.72.22,1.72s.17.21.22,1c0,.66,0,.74.17.74s.12,0,.12.07-.06.06-.13.06a.13.13,0,0,0-.14.11s.06.1.14.1.13,0,.13.48c0,.27,0,.47.07.47s.07.24.07.58c0,.53,0,.59.13.59s.21.23.21.58c0,.12,0,.17.14.17s.13,0,.13.34,0,.34.07.34.07.11.07.24,0,.24.13.24.13.07.17.56c0,.31,0,.64.07.73s0,.27,0,.4,0,.22.14.22.13.07.18.61.06.62.17.62.13,0,.13.23a1.37,1.37,0,0,0,.07.42,2.92,2.92,0,0,1,.11.65c0,.3.08.47.13.47s.12.16.22,1c0,.24.07.32.15.32s.13.12.2.85c.08.92.12,1.06.25,1.06s.1.12.13.26.07.39.1.56a3,3,0,0,1,.07.56c0,.21,0,.26.13.26s.14.07.18.48.07.48.18.48a.12.12,0,0,1,.13.13c0,.22.08.34.21.34s.13.08.17.28.07.27.11.27.06.06.06.14,0,.13.13.13.14,0,.14.38,0,.37.17.37.17,0,.17.24,0,.24.07.24.07.09.07.21,0,.2.14.2.13,0,.13.14,0,.14.07.14.07.08.07.19,0,.21.13.23.15.12.18.39.07.35.18.35.12,0,.12.1,0,.1.07.1.07,0,.07.1a.1.1,0,0,0,.09.11c.06,0,.11.11.14.28s.17.47.3.47.11.14.15.3.12.31.22.31a.11.11,0,0,1,.12.11.35.35,0,0,0,.3.3c.07,0,.14.11.19.27s.12.28.21.28.12,0,.12.13,0,.14.07.14.07,0,.07.1a.1.1,0,0,0,.1.11c.05,0,.11.06.14.13s.07.14.11.14.06,0,.06.1a.1.1,0,0,0,.1.1c.07,0,.1.08.1.24s0,.25.21.29.2.06.2.3,0,.27.17.31.18.08.18.24,0,.19.1.19.1,0,.1.07.05.07.1.07.1.06.1.14,0,.13.07.13.07.06.07.13a.19.19,0,0,0,.14.17.17.17,0,0,1,.13.14c0,.06,0,.11.07.11s.07.08.07.17,0,.17.1.17a.13.13,0,0,1,.11.14c0,.07,0,.13.07.13s.26.18.31.37.07.18.1.18.06,0,.06.1a.11.11,0,0,0,.11.11.34.34,0,0,1,.3.3.1.1,0,0,0,.1.1c.06,0,.12.08.15.18a.19.19,0,0,0,.17.17c.07,0,.13,0,.13.1s0,.1.06.1.08.08.1.17.09.17.18.17a.13.13,0,0,1,.14.11c0,.12.16.3.26.3a.08.08,0,0,1,.08.07.07.07,0,0,0,.07.07.63.63,0,0,1,.34.36c0,.1.18.25.3.25s.11.07.11.28,0,.27.17.27.19,0,.22.14a.18.18,0,0,0,.19.13c.1,0,.17,0,.17.1s0,.11.07.11.06.06.06.13,0,.14.1.14a.17.17,0,0,1,.14.14.21.21,0,0,0,.21.13c.1,0,.17,0,.17.11a.1.1,0,0,0,.1.1.09.09,0,0,1,.1.1.09.09,0,0,0,.09.1s.12.07.15.16a.34.34,0,0,0,.22.17c.09,0,.16.07.16.13a.34.34,0,0,0,.3.29.11.11,0,0,1,.11.11c0,.06.06.1.17.1s.19,0,.22.14a.18.18,0,0,0,.2.13c.09,0,.16,0,.16.1s.08.12.17.15a.18.18,0,0,1,.17.17c0,.09,0,.13.17.13a.18.18,0,0,1,.21.17c0,.13.09.17.24.17s.2,0,.2.1.08.12.17.14a.35.35,0,0,1,.21.18.19.19,0,0,0,.2.13c.11,0,.17,0,.17.1a.35.35,0,0,0,.3.31.15.15,0,0,1,.13.1.24.24,0,0,0,.18.1c.08,0,.14.05.14.1a.11.11,0,0,0,.1.11.1.1,0,0,1,.11.1.1.1,0,0,0,.1.1c.06,0,.1,0,.1.07s.09.07.21.07.2,0,.2.13,0,.14.17.14a.19.19,0,0,1,.21.17.2.2,0,0,0,.23.17c.14,0,.21,0,.23.14s.09.13.25.13.21,0,.21.11a.12.12,0,0,0,.13.1.4.4,0,0,1,.23.1.39.39,0,0,0,.25.1c.08,0,.14,0,.14.07s.05.07.11.07a.37.37,0,0,1,.3.27s.06.07.14.07a.12.12,0,0,1,.13.1c0,.06,0,.11.07.11a.08.08,0,0,1,.07.09c0,.06.13.14.31.19s.3.13.3.18.18.29.37.29.18,0,.18.05.33.22.46.22a.08.08,0,0,1,.09.07s0,.07.1.07a.1.1,0,0,1,.1.1c0,.07.07.1.21.1s.2,0,.2.07.05.07.1.07.1.06.1.14,0,.13.28.13.27,0,.27.07,0,.07.1.07a.15.15,0,0,1,.13.1c0,.06.12.1.21.1s.18,0,.18.11.06.1.2.1.21,0,.21.1.06.1.13.1.14,0,.14.07.11.07.24.07.24,0,.24.07.06.07.13.07.14-.05.14-.45ZM22.8,62.37s.06-.1.14-.1a.11.11,0,1,1,0,.21A.13.13,0,0,1,22.8,62.37Zm99.62,45.68c0-.06.06-.1.13-.1s.14,0,.14.1.07.1.2.1.21,0,.21-.1.07-.1.2-.1.21,0,.21.1.06.1.17.1.17,0,.17-.1.12-.1.65-.1.65,0,.65-.09.29-.11,1.38-.14a8.76,8.76,0,0,0,1.4-.11.92.92,0,0,1,.47-.07c.24,0,.43,0,.43-.07a2.21,2.21,0,0,1,.82-.07c.78,0,.82,0,.82-.14s.05-.13.58-.13.58,0,.58-.09,0-.05.08,0,.08.08.1,0,.23-.09.68-.09.64,0,.66-.08a1.32,1.32,0,0,1,.59-.11,1.74,1.74,0,0,0,.56-.08,2.76,2.76,0,0,1,1.12-.2c.23,0,.42,0,.43-.08a.85.85,0,0,1,.4-.06c.2,0,.37,0,.37-.07s.06-.07.13-.07.14,0,.14-.2,0-.21-.1-.21-.11-.13-.14-.44a1,1,0,0,0-.11-.45s-.06-.09-.06-.19,0-.22-.09-.24-.11-.24-.14-.74a2.85,2.85,0,0,0-.11-.73s-.07-.08-.07-.14,0-.14-.06-.15a3.31,3.31,0,0,1-.26-1.14c0-.22-.06-.29-.16-.29s-.13,0-.13-.57,0-.58-.13-.62-.14-.12-.17-.4c0-.5-.12-.79-.19-.79s-.06-.07-.06-.14,0-.14-.06-.14-.08-.07-.22-.94c-.07-.4-.11-.49-.21-.49s-.12-.06-.12-.27,0-.28-.07-.28-.07-.07-.07-.17,0-.17-.1-.17-.11-.07-.11-.2a.45.45,0,0,0-.1-.3.46.46,0,0,1-.1-.25c0-.07,0-.14-.07-.14s-.07-.1-.07-.24,0-.23-.06-.23-.08-.14-.1-.31-.09-.31-.14-.31-.17-.15-.17-.38,0-.17-.13-.17-.14-.06-.18-.3a1,1,0,0,0-.14-.41.28.28,0,0,1-.1-.17s-.05-.07-.1-.07a.11.11,0,0,1-.11-.1c0-.17-.15-.45-.25-.45s-.09-.06-.09-.14a.18.18,0,0,0-.1-.17.17.17,0,0,1-.1-.14.08.08,0,0,0-.07-.09s-.07-.07-.07-.14,0-.14-.07-.14a.08.08,0,0,1-.07-.07.32.32,0,0,0-.12-.19,2.85,2.85,0,0,1-.24-.3c-.06-.1-.16-.19-.21-.19s-.17-.2-.18-.43-.15-.32-.26-.32-.09-.08-.12-.17a.28.28,0,0,0-.2-.21c-.15,0-.23-.2-.23-.49,0-.11-.05-.15-.14-.15s-.15-.06-.18-.19a.87.87,0,0,0-.17-.3c-.07-.06-.13-.13-.13-.16S129.11,88,129,88s-.1-.14-.14-.3-.13-.31-.23-.33a.2.2,0,0,1-.17-.17c0-.09-.05-.16-.08-.16s-.06,0-.06-.1a.11.11,0,0,0-.1-.1s-.12-.1-.14-.21-.5-.75-.64-.75-.09-.09-.11-.2-.08-.21-.11-.21-.07-.09-.07-.2,0-.21-.1-.21S127,85,127,84.9s-.09-.17-.17-.17-.13,0-.13-.1a.17.17,0,0,0-.1-.14.2.2,0,0,1-.11-.17c0-.09,0-.13-.13-.13s-.14,0-.14-.21,0-.2-.07-.2-.07,0-.07-.1,0-.11-.07-.11a.76.76,0,0,1-.27-.2.83.83,0,0,0-.27-.21s-.07-.07-.07-.16-.07-.38-.18-.38a.38.38,0,0,1-.3-.27s0-.07-.1-.07a.18.18,0,0,1-.15-.12.77.77,0,0,0-.14-.21.42.42,0,0,1-.08-.23c0-.07,0-.13-.09-.13s-.46-.31-.46-.43a.12.12,0,0,0-.13-.11c-.09,0-.15-.09-.22-.31s-.14-.33-.28-.39a.43.43,0,0,1-.23-.28c0-.12-.08-.18-.17-.18s-.13,0-.13-.17,0-.18-.14-.18-.13,0-.13-.09-.07-.12-.14-.14-.14-.08-.14-.11,0-.07-.1-.07a.09.09,0,0,1-.1-.1,1.76,1.76,0,0,0-.62-.65s-.07-.06-.07-.13,0-.14-.07-.14a.39.39,0,0,1-.27-.27s-.06-.07-.13-.07-.14,0-.14-.1-.06-.11-.17-.11-.17,0-.17-.1a.11.11,0,0,0-.1-.1c-.06,0-.12-.07-.14-.16a.69.69,0,0,0-.24-.29c-.11-.07-.2-.17-.2-.22a.08.08,0,0,0-.07-.08s-.07,0-.07-.1a.13.13,0,0,0-.14-.11c-.07,0-.13,0-.13-.07s-.19-.27-.34-.27-.14,0-.14-.07-.19-.27-.47-.31-.28-.07-.32-.24-.09-.2-.14-.2-.1,0-.1-.07,0-.06-.1-.06a.16.16,0,0,1-.14-.11.22.22,0,0,0-.17-.1c-.07,0-.13,0-.13-.1s-.08-.12-.17-.14-.17-.07-.17-.11-.1-.06-.21-.06-.2,0-.2-.07a.37.37,0,0,0-.31-.27.11.11,0,0,1-.1-.1c0-.06-.09-.12-.21-.15s-.2-.07-.2-.1-.09-.06-.2-.06-.2,0-.24-.2-.07-.21-.24-.21-.21,0-.21-.1a.1.1,0,0,0-.1-.1c-.06,0-.1,0-.1-.07s-.11-.08-.24-.11-.24-.08-.24-.14-.07-.09-.14-.09-.34-.15-.34-.27-.06-.07-.14-.07-.13,0-.13-.07-.08-.08-.17-.1-.18-.09-.18-.14-.08-.1-.34-.1-.34,0-.34-.11-.06-.1-.17-.1-.17,0-.17-.1a.1.1,0,0,0-.1-.1c-.06,0-.1,0-.1-.07s-.08-.07-.17-.07-.18,0-.18-.13-.25-.28-.44-.28a.1.1,0,0,1-.1-.1c0-.06-.06-.1-.14-.1a.12.12,0,0,1-.13-.11.11.11,0,0,0-.11-.1c-.05,0-.1,0-.1-.07s-.11-.07-.24-.07-.24,0-.24-.1-.07-.1-.24-.1-.24,0-.24-.1-.13-.1-.44-.14-.44-.07-.44-.11-.06-.06-.14-.06-.14,0-.14-.1-.06-.11-.17-.11-.17,0-.17-.1a.12.12,0,0,0-.13-.1c-.09,0-.15-.06-.18-.17s-.08-.17-.31-.17-.27,0-.27-.14,0-.13-.13-.13-.14,0-.14-.07-.08-.07-.17-.07-.17,0-.17-.1-.09-.11-.41-.11-.41,0-.41-.06a1.65,1.65,0,0,0-.58-.11c-.43,0-.58-.07-.58-.14s-.09-.1-.31-.1-.3,0-.3-.06-.13-.07-.28-.07-.27,0-.27-.13-.07-.14-.32-.17c-.58-.08-.7-.12-.7-.22s-.12-.1-.48-.1-.48,0-.48.14a.21.21,0,0,0,.1.18.18.18,0,0,1,.1.17.12.12,0,0,0,.11.13s.12.07.14.17.08.17.13.17.38.23.38.33a.09.09,0,0,0,.1.08.35.35,0,0,1,.31.3.12.12,0,0,0,.13.11c.1,0,.14,0,.14.16a.41.41,0,0,0,.17.29.46.46,0,0,1,.17.21s.06.09.13.09.17.08.22.2.13.21.18.21.08,0,.08.1a.1.1,0,0,0,.11.1s.12.08.14.17.09.17.17.17.13,0,.13.09a.39.39,0,0,0,.16.21.57.57,0,0,1,.21.29c0,.09.09.17.14.17a.09.09,0,0,1,.1.1s0,.1.07.1.07,0,.07.1a.13.13,0,0,0,.14.11c.09,0,.13,0,.13.13s0,.14.07.14.07.06.07.14a.45.45,0,0,0,.12.26,1.46,1.46,0,0,1,.22.3c0,.1.13.19.18.19a.1.1,0,0,1,.1.1.09.09,0,0,0,.1.1c.06,0,.12.09.14.21s.09.2.17.2a.12.12,0,0,1,.13.1c0,.06,0,.11.07.11s.07,0,.07.1,0,.1.06.1.1.11.14.23a.45.45,0,0,0,.18.27.2.2,0,0,1,.1.15.1.1,0,0,0,.1.1c.06,0,.11.1.14.27s.07.28.11.28.06,0,.06.1.06.11.13.14.14.07.14.1,0,.07.1.07.12.09.15.27.07.27.1.27.06,0,.06.11a.1.1,0,0,0,.09.1s.11.09.14.2.08.21.14.21.11.06.11.17,0,.17.06.17.07.06.07.14,0,.13.14.13.14.05.14.17,0,.17.06.17.07.08.07.18a.51.51,0,0,0,.17.34.52.52,0,0,1,.17.24,2.45,2.45,0,0,0,.08.35c.06.18.12.26.21.26s.12,0,.12.2,0,.21.07.21.07.08.07.17,0,.17,0,.17.22.34.22.49a.12.12,0,0,0,.11.13c.06,0,.1.06.1.17s0,.17.09.17.12.1.14.24.08.23.11.23.07.08.07.18,0,.17.07.17.06.07.06.17,0,.17.07.17.07.06.07.13,0,.14.1.14.11.1.14.25a.86.86,0,0,0,.29.53.39.39,0,0,1,.09.21s0,.1.06.1.07.14.07.31,0,.31.07.31.07.07.07.17,0,.17.07.17.07.12.07.27,0,.27.12.27.15.1.21.31.13.31.19.31.09.07.09.2,0,.21.07.21.09.12.14.27.1.28.13.28.07,0,.07.1,0,.1.07.1.07.12.07.27,0,.28.06.28.07.09.07.2,0,.21.1.21.11.1.14.28a.93.93,0,0,0,.15.38.48.48,0,0,1,.09.29c0,.11,0,.21.07.22a1,1,0,0,1,.14.43.83.83,0,0,0,.13.43.17.17,0,0,1,.07.16c0,.07,0,.13.07.13s.07.15.07.33,0,.35.13.38.13.13.16.33a.61.61,0,0,0,.15.36.36.36,0,0,1,.1.26.31.31,0,0,0,.1.23.62.62,0,0,1,.13.36c0,.17.06.48.09.7s.07.39.17.39.13.06.13.43,0,.45.13.53a.32.32,0,0,1,.14.23,2.23,2.23,0,0,0,.22.86s.05.06.05.13a.42.42,0,0,0,.12.25c.09.09.13.32.18,1a3.68,3.68,0,0,0,.12.85s.06.09.06.2,0,.21.07.21.07.19.07.44,0,.44.07.44.07.1.07.21,0,.2,0,.2.1.14.15.31.11.31.14.31a3,3,0,0,1,.08.75,2,2,0,0,0,.1.8,1.77,1.77,0,0,1,.15.6,1.67,1.67,0,0,0,.15.57.79.79,0,0,1,.06.39c0,.2,0,.37.07.37s.07.24.07.58c0,.5,0,.58.13.61s.14.14.17.47c.11,1,.13,1.07.18,1.07s.07.17.07.37,0,.41.1.47a.46.46,0,0,1,.1.25c0,.29.12.41.41.41s.27,0,.27.11.12.1.65.1.65,0,.65.1.12.1.68.1.69,0,.69-.1ZM63.22,88.63c0-1.48,0-1.71.1-1.71s.1-.1.1-.47a1.16,1.16,0,0,1,.07-.5,1.09,1.09,0,0,0,.13-.5,1,1,0,0,1,.14-.5s.07-.17.07-.39,0-.37.11-.37.1-.11.1-.58,0-.58.1-.58.1-.1.1-.49a3,3,0,0,1,.22-1.29s.06-.17.06-.37,0-.41.11-.48a1.14,1.14,0,0,0,.14-.59c0-.33.06-.47.13-.47s.09-.11.09-.41,0-.41.1-.41.1-.15.12-.55a1.28,1.28,0,0,1,.12-.61,1.33,1.33,0,0,0,0-.94.43.43,0,0,1-.12-.2c0-.09-.09-.16-.15-.16A.1.1,0,0,1,65,76a.09.09,0,0,0-.09-.1.17.17,0,0,1-.13-.1.19.19,0,0,0-.15-.11.09.09,0,0,1-.1-.1.1.1,0,0,0-.1-.1s-.11-.08-.14-.17-.08-.17-.14-.17A.1.1,0,0,1,64,75a.11.11,0,0,0-.1-.1.12.12,0,0,1-.11-.13c0-.08,0-.14-.1-.14s-.1,0-.1-.07-.05-.07-.1-.07a.1.1,0,0,1-.11-.1c0-.06,0-.1-.07-.1a.41.41,0,0,1-.27-.27S63,74,63,74s-.11-.1-.14-.24-.08-.24-.17-.24a.19.19,0,0,1-.17-.17c0-.1-.09-.17-.14-.17s-.1,0-.1-.07,0-.07-.1-.07a.1.1,0,0,1-.1-.11.37.37,0,0,0-.27-.3s-.07,0-.07-.1a.17.17,0,0,0-.11-.15.23.23,0,0,1-.1-.2c0-.14,0-.16-.2-.16s-.21,0-.21-.21,0-.2-.07-.2-.27-.17-.27-.24a.79.79,0,0,0-.34-.31s-.07-.05-.07-.1a.09.09,0,0,0-.1-.1c-.06,0-.1-.07-.1-.18s0-.17-.1-.17-.12-.09-.14-.2-.1-.22-.18-.24a.21.21,0,0,1-.13-.21c0-.1,0-.17-.1-.17s-.1-.06-.1-.17,0-.17-.11-.17a.1.1,0,0,1-.1-.1.09.09,0,0,0-.1-.1C59,69.1,59,69,59,69s0-.14-.07-.14-.09-.07-.11-.17-.09-.17-.14-.17a.09.09,0,0,1-.09-.1c0-.06,0-.1-.07-.1s-.07-.08-.07-.17,0-.17-.1-.17-.1-.07-.1-.17,0-.17-.11-.17-.1-.06-.1-.14-.05-.14-.3-.14h-.3l0,.31a.85.85,0,0,1-.15.4.43.43,0,0,0-.1.16.47.47,0,0,1-.13.18.34.34,0,0,0-.14.22.11.11,0,0,1-.1.1c-.07,0-.11.07-.11.2s0,.21-.1.21a.1.1,0,0,0-.1.1.09.09,0,0,1-.09.1s-.13.13-.18.28-.13.27-.22.27a.11.11,0,0,0-.12.1c0,.06,0,.1-.07.1s-.07.08-.07.17,0,.18-.1.18a.1.1,0,0,0-.11.1s0,.1-.06.1-.07.05-.07.1,0,.11-.07.11a.07.07,0,0,0-.07.08.25.25,0,0,1-.14.17.32.32,0,0,0-.13.22.13.13,0,0,1-.11.14.37.37,0,0,0-.3.27s0,.07-.1.07a.11.11,0,0,0-.11.1.12.12,0,0,1-.13.11c-.09,0-.14,0-.14.13a.13.13,0,0,1-.14.14c-.1,0-.13,0-.13.17s0,.17-.11.17-.3.16-.3.26,0,.08-.1.11a.22.22,0,0,0-.11.21c0,.11,0,.17-.1.17s-.1.07-.1.21,0,.2-.1.2-.11,0-.11.06-.09.08-.2.1-.21.09-.21.15-.06.1-.17.1-.17,0-.17.07a.08.08,0,0,1-.09.07c-.06,0-.12.07-.14.16a.28.28,0,0,1-.18.2.17.17,0,0,0-.13.14c0,.07-.06.11-.14.11s-.14,0-.14.07a.37.37,0,0,1-.27.27s-.07.09-.07.2,0,.21-.18.24-.36.2-.36.38a.13.13,0,0,1-.14.14c-.08,0-.14,0-.14.1s0,.1-.07.1-.06,0-.06.11a.11.11,0,0,1-.11.1s-.1,0-.1.07-.22.34-.32.34-.09.07-.09.17,0,.17-.07.17a.09.09,0,0,0-.07.09c0,.06-.11.12-.3.14s-.31.08-.31.12,0,.06-.1.06a.1.1,0,0,0-.1.1.1.1,0,0,1-.11.1s-.1,0-.1.07-.05.07-.1.07-.1.06-.1.14,0,.13-.18.13-.17,0-.17.07-.09.08-.2.1-.21.09-.21.15a.09.09,0,0,1-.1.09c-.07,0-.1.08-.1.28s0,.27.1.27.1.08.1.27,0,.28.11.28.1.06.1.2,0,.21.1.21.12.09.15.27.07.27.16.27.13.07.15.27.18.48.32.48a.08.08,0,0,1,.08.07s0,.07.1.07.1,0,.1.07a.07.07,0,0,0,.07.07.37.37,0,0,1,.27.26s.14.09.3.11.31.08.35.21a.18.18,0,0,0,.18.17.34.34,0,0,1,.33.3.13.13,0,0,0,.14.11c.07,0,.14,0,.14.06a1.21,1.21,0,0,0,.47.48s.07.05.07.11a.11.11,0,0,0,.1.1c.06,0,.11,0,.11.07s0,.06.12.06a.39.39,0,0,1,.22.14.3.3,0,0,0,.22.14c.08,0,.12,0,.12.14a.17.17,0,0,0,.14.18c.07,0,.13.08.13.13s.07.09.17.09.17,0,.17.11a.11.11,0,0,0,.11.1.34.34,0,0,1,.3.3.11.11,0,0,0,.11.11s.1,0,.1.07,0,.06.1.06a.1.1,0,0,1,.1.11.12.12,0,0,0,.13.1.19.19,0,0,1,.17.14.17.17,0,0,0,.17.13c.08,0,.15,0,.15.07s.07.09.17.11.17.09.17.14a.09.09,0,0,0,.1.09c.06,0,.1,0,.1.07s0,.07.11.07.1,0,.1.07.09.07.2.07.21,0,.21.1a.17.17,0,0,0,.12.15,1.29,1.29,0,0,1,.39.27.31.31,0,0,0,.17.09.07.07,0,0,1,.07.07s.09.07.2.07.21,0,.21.1a.35.35,0,0,0,.37.31c.11,0,.17,0,.17.1s.06.1.14.1a.43.43,0,0,1,.23.1.41.41,0,0,0,.24.11c.08,0,.15,0,.15.1s.07.1.23.1.24,0,.24.07.13.07.28.07.27,0,.27.13.05.14.2.14.21,0,.21.07,0,.07.1.07a.09.09,0,0,1,.1.1c0,.06.07.1.18.1s.17,0,.17.1.08.11.3.11.31,0,.31.1.12.11.41.14.41.08.41.14.1.09.34.09.34,0,.34.07.11.07.24.07.24,0,.24.07.11.07.24.07.24,0,.24.1.09.1.37.1h.38Zm42.91,1c.08-.12,0-.75-.13-.75s-.11-.12-.13-.29-.07-.3-.11-.31-.07-.11-.07-.21a.35.35,0,0,0-.14-.28.39.39,0,0,1-.14-.22c0-.07,0-.12-.06-.12s-.08-.11-.1-.25-.09-.26-.15-.28a.22.22,0,0,1-.09-.19.39.39,0,0,0-.11-.26.46.46,0,0,1-.1-.26c0-.21-.15-.68-.22-.68s0-.09,0-.2,0-.21-.07-.21-.07-.07-.07-.17,0-.17-.07-.17-.07,0-.07-.1,0-.1-.06-.1-.1-.14-.15-.31-.11-.31-.14-.31-.06-.07-.06-.16a.5.5,0,0,0-.08-.26,1.49,1.49,0,0,1-.19-.4,1.11,1.11,0,0,0-.22-.41.39.39,0,0,1-.12-.25.22.22,0,0,0-.13-.19c-.13,0-.15-.1-.24-.66a.55.55,0,0,0-.14-.29.15.15,0,0,1-.1-.14c0-.06,0-.1-.07-.1s-.08-.08-.1-.17-.09-.17-.14-.17-.1-.07-.1-.14,0-.14-.07-.14-.07-.07-.07-.17,0-.17-.07-.17-.07-.08-.07-.17,0-.17-.09-.17-.12-.09-.15-.21a.28.28,0,0,0-.2-.24.29.29,0,0,1-.2-.15l-.11-.44c-.05-.19-.12-.33-.18-.33s-.09-.07-.09-.2,0-.21-.1-.21a.1.1,0,0,1-.11-.1.1.1,0,0,0-.1-.1c-.06,0-.1,0-.1-.06s-.08-.08-.17-.11-.17-.08-.17-.21,0-.17-.07-.17-.07-.07-.07-.17,0-.17-.14-.17-.13,0-.13-.13,0-.14-.17-.14-.17,0-.21-.21-.07-.2-.11-.2-.06-.07-.06-.15A.32.32,0,0,0,99,75.7a.17.17,0,0,1-.12-.15c0-.06-.06-.1-.14-.1s-.13,0-.13-.14a.47.47,0,0,0-.16-.29.84.84,0,0,1-.2-.27.19.19,0,0,0-.15-.12c-.06,0-.11,0-.11-.07s0-.07-.1-.07a.09.09,0,0,1-.1-.1c0-.06-.07-.1-.17-.1s-.17,0-.17.1,0,.1-.07.1a.54.54,0,0,0-.34.32.09.09,0,0,1-.08.09,1.18,1.18,0,0,0-.47.47.1.1,0,0,1-.1.08.09.09,0,0,0-.1.1s-.08.12-.18.14-.17.07-.17.11,0,.06-.1.06a.1.1,0,0,0-.1.1.1.1,0,0,1-.1.1c-.06,0-.14.12-.18.28s-.12.27-.21.27a.12.12,0,0,0-.13.12.3.3,0,0,1-.16.22.51.51,0,0,0-.21.25c0,.09-.07.16-.1.16a.08.08,0,0,0-.07.09s-.08.15-.17.22a.64.64,0,0,0-.2.28c0,.09-.09.16-.15.16a.11.11,0,0,0-.1.11c0,.12-.16.3-.26.3s-.08.09-.08.21,0,.2.1.2.11.06.11.17a.18.18,0,0,0,.16.21c.11,0,.19.13.28.41s.17.37.22.37.09.06.09.13a.33.33,0,0,0,.17.21c.09,0,.17.13.17.18a.11.11,0,0,0,.1.1c.07,0,.1.06.1.17s0,.17.11.17a.1.1,0,0,1,.1.1c0,.06,0,.1.07.1s.07.06.07.14a.19.19,0,0,0,.1.18.18.18,0,0,1,.1.16.43.43,0,0,0,.1.23.31.31,0,0,1,.11.17.09.09,0,0,0,.1.08.17.17,0,0,1,.15.12c.06.15.19.29.29.29s.07.07.07.16.14.52.24.52a.48.48,0,0,1,.22.14.53.53,0,0,0,.22.13s.07.05.07.11a.11.11,0,0,0,.1.1.12.12,0,0,1,.11.13c0,.09,0,.14.12.14a.7.7,0,0,1,.32.24c.11.13.24.24.29.24a.09.09,0,0,1,.09.1.09.09,0,0,0,.1.1.11.11,0,0,1,.1.11s.06.1.14.1a.35.35,0,0,1,.34.3.1.1,0,0,0,.1.11s.12.07.14.17.09.17.24.17.2,0,.2.1.09.12.21.15.2.08.2.13,0,.1.07.1a.07.07,0,0,1,.07.07.37.37,0,0,0,.3.27c.06,0,.11,0,.11.07s0,.07.1.07a.09.09,0,0,1,.1.1c0,.06.06.1.16.1a.4.4,0,0,1,.27.14.37.37,0,0,0,.22.13c.06,0,.1,0,.1,0s.35.23.53.23.16,0,.16.13,0,.14.1.14.1,0,.1.07.09.07.19.07a.32.32,0,0,1,.27.13.3.3,0,0,0,.22.14c.08,0,.14,0,.14.07s.06.07.14.07.13,0,.13.07.2.27.41.27.21,0,.21.13,0,.14.2.14.21,0,.21.07.06.07.13.07.14,0,.14.1.07.1.2.1.21,0,.21.1.06.11.17.11.17,0,.17.09.1.12.46.17a.12.12,0,0,0,.12-.06ZM80.59,86.92c0-.19.08-.26.29-.51a.76.76,0,0,0,.13-.27c0-.1.07-.18.11-.18s.06-.06.06-.13,0-.14.12-.14.14-.09.21-.46a1.11,1.11,0,0,1,.14-.48.14.14,0,0,0,.07-.13.17.17,0,0,1,.1-.13.2.2,0,0,0,.11-.16c0-.11,0-.2.34-.53a.41.41,0,0,0,.07-.22c0-.08,0-.14.08-.14a2,2,0,0,0,.33-.88.09.09,0,0,1,.1-.08c.06,0,.1-.06.1-.14s0-.13.07-.13a.08.08,0,0,0,.07-.09.5.5,0,0,1,.13-.25.62.62,0,0,0,.14-.36c0-.1,0-.19.07-.19s.07-.06.07-.14,0-.13.09-.13.25-.37.25-.56a.18.18,0,0,1,.14-.15.17.17,0,0,0,.13-.14c0-.06,0-.11.06-.11s.08-.08.11-.17.07-.17.1-.17.09-.11.11-.24.07-.24.11-.24.06-.08.06-.17,0-.17.12-.17.16-.09.22-.27.11-.28.14-.28.07-.09.09-.2.08-.21.14-.21a.1.1,0,0,0,.11-.1c0-.05,0-.1.06-.1s.08-.09.11-.21.07-.2.11-.2.06-.12.06-.27,0-.28-.07-.28-.07,0-.07-.1-.06-.1-.13-.1-.14,0-.14-.1,0-.11-.06-.11-.08-.07-.11-.17-.08-.17-.14-.17S85,76,85,76s-.15-.24-.33-.3-.15-.09-.15-.14a.09.09,0,0,0-.1-.1c-.06,0-.1-.06-.1-.16s-.21-.39-.35-.39-.06-.05-.06-.1a.18.18,0,0,0-.1-.15.22.22,0,0,1-.11-.2c0-.09,0-.16-.07-.16a.39.39,0,0,1-.27-.27.16.16,0,0,0-.12-.12c-.17-.07-.29-.2-.29-.32a.1.1,0,0,0-.1-.11c-.06,0-.12-.08-.14-.17s-.07-.17-.11-.17-.06,0-.06-.11a.1.1,0,0,0-.1-.1c-.06,0-.1-.06-.1-.17s0-.17-.11-.17a.1.1,0,0,1-.1-.09s-.07-.13-.17-.18a.32.32,0,0,1-.17-.22c0-.08-.05-.12-.14-.12s-.13,0-.13-.17-.07-.38-.21-.38-.13,0-.13-.16a.25.25,0,0,0-.11-.21.17.17,0,0,1-.1-.14c0-.06,0-.1-.07-.1s-.07,0-.07-.11a.1.1,0,0,0-.09-.1c-.11,0-.18-.14-.18-.35a.47.47,0,0,0-.17-.29.62.62,0,0,1-.17-.24.1.1,0,0,0-.1-.08c-.07,0-.1-.06-.1-.17s0-.17-.11-.17a.1.1,0,0,1-.1-.1c0-.06,0-.1-.06-.1s-.07-.12-.09-.26-.23-.56-.37-.56-.12-.14-.17-.31-.13-.31-.18-.31-.09-.07-.09-.17,0-.17-.06-.17-.08-.17-.1-.37-.08-.38-.15-.38a.09.09,0,0,1-.09-.1.1.1,0,0,0-.11-.1.11.11,0,0,1-.1-.11.11.11,0,0,0-.1-.1.1.1,0,0,0-.1.1c0,.06,0,.11-.07.11s-.07,0-.07.1a.1.1,0,0,1-.1.1c-.07,0-.11.07-.11.17s0,.17-.06.17-.08.1-.11.21-.09.2-.14.2-.1.06-.1.14-.06.15-.17.18a.19.19,0,0,0-.17.21c0,.23-.2.63-.31.63s-.1.07-.1.17,0,.18-.06.18-.08.15-.1.34-.08.34-.15.34-.1.06-.1.17,0,.17-.1.17-.12.08-.15.2-.06.21-.09.21-.07.12-.09.27-.08.28-.15.28a.1.1,0,0,0-.1.1.11.11,0,0,1-.1.1c-.06,0-.1,0-.1.07s0,.07-.11.07a.12.12,0,0,0-.1.13c0,.08,0,.14-.07.14a.37.37,0,0,0-.27.27.07.07,0,0,1-.07.07s-.07,0-.07.1a.12.12,0,0,1-.13.11c-.09,0-.14,0-.14.13s0,.14-.1.14-.12.08-.14.17-.09.17-.14.17-.1.07-.1.17,0,.17-.07.17-.06,0-.06.1,0,.11-.07.11-.07,0-.07.1a.1.1,0,0,1-.1.1c-.07,0-.11.07-.11.21s0,.2-.1.2-.1,0-.1.06-.09.08-.21.1-.2.08-.2.21,0,.18-.1.18-.11.08-.11.37,0,.38.11.38.1.07.1.27a.56.56,0,0,0,.14.41A.48.48,0,0,1,73,76c0,.06,0,.1.07.1s.07.13.07.28,0,.27.1.27.1.09.1.37,0,.38.11.38a.11.11,0,0,1,.1.1c0,.06,0,.1.07.1s.07.1.07.21,0,.2.06.2.09.09.12.19a.38.38,0,0,0,.11.23.87.87,0,0,1,.1.4c0,.23.06.35.13.35a.09.09,0,0,1,.09.1.11.11,0,0,0,.1.1c.07,0,.11.06.11.17a.28.28,0,0,0,.08.22.94.94,0,0,1,.18.39,1,1,0,0,0,.14.38.36.36,0,0,1,.1.19c0,.08.09.15.15.15s.1.07.1.21,0,.2.1.2.1.07.1.17,0,.17,0,.17.1.14.15.31a.67.67,0,0,0,.18.33c.06,0,.1.12.1.21s0,.18.1.18.12.08.15.18a.62.62,0,0,0,.12.27,1.54,1.54,0,0,1,.17.22.36.36,0,0,0,.22.15c.06,0,.14.08.19.2a.76.76,0,0,0,.16.3s.13.16.19.25a1.12,1.12,0,0,0,.22.26.39.39,0,0,1,.12.2.08.08,0,0,0,.07.08s.06,0,.06.11a.11.11,0,0,0,.11.1.34.34,0,0,1,.3.3c0,.06,0,.11.08.11a.31.31,0,0,1,.17.1.34.34,0,0,1,.1.17s.06.07.13.07.14,0,.14.1.08.12.2.15.21.08.21.13,0,.1.07.1.06,0,.06.1a.09.09,0,0,0,.09.1.32.32,0,0,1,.19.14.35.35,0,0,0,.18.14.09.09,0,0,1,.09.09c0,.06.1.12.23.15a.43.43,0,0,1,.28.14c.06.17.22.1.27-.11Zm9-14.27c0-.15.13-.27.18-.27a.11.11,0,0,0,.1-.11s0-.1.06-.1.07,0,.07-.1.06-.1.14-.1.14,0,.14-.11,0-.1.06-.1.07-.05.07-.1a.1.1,0,0,1,.1-.1c.06,0,.14-.12.18-.28s.12-.27.17-.27.11-.09.13-.2.08-.21.12-.21a.39.39,0,0,0,.26-.27s0-.07.1-.07.1-.06.1-.14,0-.13.08-.13.24-.16.29-.33.08-.15.11-.15.08-.09.1-.21.08-.2.11-.2.06-.06.06-.14,0-.13-.06-.13-.09-.08-.11-.18-.09-.17-.17-.17a.18.18,0,0,1-.16-.1.16.16,0,0,0-.14-.1.11.11,0,0,1-.11-.1c0-.06,0-.11-.07-.11a.37.37,0,0,1-.27-.3c0-.06-.09-.12-.24-.14s-.24-.08-.24-.18,0-.13-.17-.13-.17,0-.17-.1,0-.1-.07-.1-.06-.05-.06-.1a.11.11,0,0,0-.11-.11s-.1,0-.1-.06-.05-.07-.1-.07a.1.1,0,0,1-.1-.11s-.06-.1-.14-.1-.14,0-.14-.07-.07-.08-.17-.1-.17-.09-.17-.14a.1.1,0,0,0-.1-.1c-.06,0-.1,0-.1-.07a.39.39,0,0,0-.27-.27s-.07,0-.07-.1a.1.1,0,0,0-.11-.1.11.11,0,0,1-.1-.1s-.09-.12-.2-.14-.21-.08-.21-.11,0-.06-.1-.06a.1.1,0,0,1-.1-.11.1.1,0,0,0-.08-.1.39.39,0,0,1-.27-.27s-.06-.07-.13-.07-.14,0-.14-.1-.07-.1-.24-.1-.24,0-.24-.14,0-.14-.13-.14-.14,0-.14-.07-.09-.06-.2-.06-.21,0-.21-.11,0-.1-.07-.1-.07-.05-.07-.1-.06-.1-.17-.1-.17,0-.17-.11a.12.12,0,0,0-.13-.1c-.08,0-.14,0-.14-.07s-.08-.07-.17-.07-.17,0-.17-.12S85,63,84.79,63s-.27-.11-.27-.14-.11-.09-.24-.11-.24-.09-.24-.14-.07-.09-.17-.09-.17,0-.17-.11-.06-.1-.17-.1-.17,0-.17-.07-.06-.07-.14-.07-.13,0-.13-.09-.15-.18-.38-.18-.17,0-.17-.07,0-.07-.1-.07-.1.1-.1.48,0,.48.09.48.12.1.14.26c.07.4.11.49.21.49s.17.21.17.53c0,.12,0,.22.07.22s.07.06.07.14,0,.14.13.14.14,0,.14.27,0,.27.07.27.07.08.07.17,0,.17.1.17.1.06.1.14,0,.14.07.14.07.07.07.17,0,.17.1.17.11.09.14.2a.31.31,0,0,0,.14.23.25.25,0,0,1,.1.21c0,.1,0,.18.07.18s.27.19.27.37,0,.17.14.17.13.05.13.17,0,.17.07.17.07.1.07.21,0,.2.07.2.06.06.06.14a.38.38,0,0,0,.11.23.37.37,0,0,1,.1.18s0,.07.1.07.1,0,.1.07,0,.06.11.06.1.07.1.14,0,.14.09.14.15.17.22.37.17.38.22.38a.1.1,0,0,1,.08.1.1.1,0,0,0,.11.1.11.11,0,0,1,.1.11.1.1,0,0,0,.1.1c.06,0,.1,0,.1.07a.39.39,0,0,0,.27.27s.07.05.07.1,0,.1.07.1a.08.08,0,0,1,.07.09s.09.13.21.18.2.14.2.22a.12.12,0,0,0,.1.13c.06,0,.12.08.15.17s.07.17.1.17.06,0,.06.1a.12.12,0,0,0,.13.11.18.18,0,0,1,.16.13.18.18,0,0,0,.15.14c.06,0,.12.08.15.17s.08.17.14.17.09.07.09.17,0,.17.3.17.3,0,.38-.27Zm-45.4-.17c0-.07.07-.1.2-.1s.21,0,.21-.07,0-.07.1-.07.1-.06.1-.14,0-.13.17-.13.17,0,.17-.11a.11.11,0,0,1,.11-.1.11.11,0,0,0,.1-.1c0-.06.06-.1.13-.1s.15-.06.18-.17.09-.18.17-.18a.18.18,0,0,0,.16-.1.25.25,0,0,1,.21-.1c.11,0,.17,0,.17-.1s0-.1.07-.1.07,0,.07-.11a.11.11,0,0,1,.11-.1.37.37,0,0,0,.3-.27s.05-.07.1-.07a.09.09,0,0,0,.1-.1s.09-.11.21-.14.22-.1.27-.28.12-.23.21-.23a.12.12,0,0,0,.13-.1c0-.06.08-.12.17-.15s.18-.07.18-.1,0-.06.1-.06.1-.06.1-.14,0-.13.07-.13a.39.39,0,0,0,.27-.27s0-.08.11-.08a.34.34,0,0,0,.3-.3.11.11,0,0,1,.11-.11c.06,0,.12-.08.14-.2s.08-.21.17-.21.33-.15.33-.26.08-.08.17-.08.17,0,.21-.2.08-.21.13-.21.12-.06.15-.15.19-.32.29-.32.08-.07.08-.14,0-.14.06-.14.07,0,.07-.1,0-.1.07-.1.07-.08.07-.17,0-.17.1-.17a.1.1,0,0,0,.1-.11.11.11,0,0,1,.1-.1s.12-.09.14-.2.09-.21.14-.21.1-.07.1-.2,0-.21.1-.21.13-.11.18-.27.1-.27.13-.27.07,0,.07-.11,0-.1.07-.1.07-.09.07-.2,0-.21.06-.21.07-.09.07-.2,0-.21.11-.21.1-.06.1-.17,0-.17.1-.17.1-.07.1-.2a.48.48,0,0,1,.09-.29,1.58,1.58,0,0,0,.25-.9c0-.27,0-.32.14-.32s.14,0,.14-.3,0-.31.07-.31.06-.18.06-.41,0-.41.1-.41.11-.1.14-.24.07-.24.11-.24.08-.15.1-.34.08-.34.11-.34.06-.08.06-.17,0-.17.07-.17.06-.13.06-.28,0-.27.13-.27.22-.24.22-1v-.57h-.35c-.25,0-.34,0-.34-.1s-.2-.13-.21,0,0,.11,0,0-.16-.16-.16,0,0,.1-.06.1-.07-.05-.07-.1-.07-.1-.17-.1-.17,0-.17.1-.1.1-.41.1-.41,0-.41-.1-.1-.1-.45-.1-.44,0-.44-.07-.22-.07-.51-.07-.52,0-.57-.12-.32-.11-3.25-.1-3.2,0-3.29.11a.67.67,0,0,1-.44.11c-.19,0-.34,0-.34.07s-.06.07-.13.07-.2.19-.25,1.69c0,1-.07,1.24-.14,1.24s-.09.11-.09.38,0,.37.1.37.1.1.1.48,0,.48-.1.48-.1.32-.1,2.49c0,2.33,0,2.49-.12,2.5s-.12,0,0,0,.12.13.12.88,0,.85.1.85.1.12.1.68,0,.68-.1.68-.1.07-.1.17,0,.18.09.18.11.15.14.66c.08,1.31.12,1.59.21,1.59s.17.15.17.45c0,.13,0,.23.07.23s.07,0,.07.1a.1.1,0,0,0,.1.11c.08,0,.1.08.1.3v.31H44C44.16,72.58,44.24,72.55,44.24,72.48Zm23.62-1s0-.07.1-.07a.12.12,0,0,0,.11-.12.32.32,0,0,1,.13-.22.32.32,0,0,0,.14-.19.07.07,0,0,1,.07-.08s.07,0,.07-.11a.1.1,0,0,1,.1-.1c.06,0,.1,0,.1-.07s0-.07.1-.07.12-.09.14-.21A.32.32,0,0,1,69.1,70c.07,0,.13-.06.13-.09s0-.06.1-.06a.1.1,0,0,0,.1-.1.11.11,0,0,1,.11-.11c.07,0,.1-.07.1-.27s0-.27.1-.27.1-.06.1-.13a.43.43,0,0,1,.1-.24.35.35,0,0,0,.11-.14c0-.07.19-.24.27-.24s.07-.06.07-.14,0-.14.1-.14.1,0,.1-.06,0-.07.11-.07.1-.07.1-.21,0-.2.07-.2.06,0,.06-.1,0-.11.07-.11.07,0,.07-.1,0-.1.06-.1.1-.12.15-.28.13-.27.18-.27a.08.08,0,0,0,.09-.07s0-.06.1-.06.1-.07.1-.14a.13.13,0,0,1,.11-.14.1.1,0,0,0,.1-.09.3.3,0,0,1,.14-.18.34.34,0,0,0,.13-.19.08.08,0,0,1,.07-.08s.07-.07.07-.14,0-.14.07-.14.07-.07.07-.17,0-.17.1-.17.1-.06.1-.17,0-.17.1-.17.12-.1.14-.24.08-.24.11-.24.06-.06.06-.13,0-.14.1-.14.1-.06.1-.14a.12.12,0,0,1,.11-.13c.07,0,.1-.08.1-.31s0-.31.07-.31.07-.06.07-.13.06-.15.16-.18.17-.09.21-.45.08-.4.14-.4.1-.07.1-.17,0-.17.1-.17.11-.09.14-.21.07-.2.11-.2.06-.08.06-.17a.29.29,0,0,1,.07-.21s.07-.11.07-.2,0-.17.1-.17.1-.07.1-.21,0-.2.1-.2.11-.07.11-.21,0-.2.1-.2.1-.07.1-.17,0-.17-.1-.17a.1.1,0,0,1-.1-.1A.13.13,0,0,0,75.1,59c-.08,0-.14,0-.14-.1s-.09-.1-.44-.1-.44,0-.44-.07-.17-.07-.38-.07-.38,0-.38-.13,0-.14-.74-.14a2.37,2.37,0,0,1-.79-.07.78.78,0,0,0-.42-.07.76.76,0,0,1-.48-.1.34.34,0,0,0-.2-.1.1.1,0,0,0-.1.1.09.09,0,0,1-.1.1.32.32,0,0,1-.21-.1c-.07-.07-.25-.1-.58-.1s-.47,0-.47-.11-.15-.1-1-.1-1,0-1-.1-.07-.1-.21-.1-.2,0-.2-.07-.06-.07-.14-.07-.14,0-.14-.1,0-.1-.12-.1a.3.3,0,0,1-.19-.08,1.84,1.84,0,0,0-.56-.11c-.35,0-.49-.07-.49-.13s-.06-.09-.14-.09a.12.12,0,0,1-.13-.11c0-.08-.19-.1-1.23-.1a4.2,4.2,0,0,1-1.23-.07.76.76,0,0,0-.41-.07c-.23,0-.41,0-.41.07s-.09.07-.21.07-.2,0-.2.21,0,.2-.1.2-.11.11-.11.58,0,.58.11.58.1.09.1.38,0,.37.1.37.1.08.1.27,0,.28.07.29a2.85,2.85,0,0,1,.14.77,2.49,2.49,0,0,0,.14.78s.06.16.06.32,0,.3.07.3.07.13.07.28,0,.27.1.27.1.07.1.21,0,.2.1.2.11.11.14.28a.74.74,0,0,0,.18.41.73.73,0,0,1,.18.46c0,.23.07.35.13.35s.09.1.09.31,0,.31.07.31.07.12.07.27,0,.27.1.27.1.06.1.14a.13.13,0,0,0,.11.14c.06,0,.1.06.1.17s0,.17.1.17.1.07.1.24,0,.24.11.24.1.06.1.17,0,.17.1.17.13.11.18.27.12.27.17.27a.12.12,0,0,1,.1.13.18.18,0,0,0,.1.17c.06,0,.1.13.1.25s0,.2.1.2a.1.1,0,0,1,.1.11.1.1,0,0,0,.09.1c.13,0,.31.24.41.55.05.15.12.27.17.27a.09.09,0,0,1,.09.1.09.09,0,0,0,.1.1c.06,0,.1.07.1.17s0,.17.1.17a.11.11,0,0,1,.11.11s0,.1.06.1.07.05.07.1,0,.1.07.1.07,0,.07.11a.1.1,0,0,0,.1.1c.07,0,.12.1.15.27s.08.27.13.27a.11.11,0,0,1,.1.11.1.1,0,0,0,.1.1c.06,0,.1,0,.1.07s0,.07.1.07a.12.12,0,0,1,.11.13c0,.08,0,.14.1.14s.1,0,.1.07.08.07.17.07.17,0,.17-.07ZM86.23,56.13c0-.12,0-.21.07-.21s.07-.05.07-.1,0-.1-.07-.1-.09-.53,0-.56a4.63,4.63,0,0,0,.11-1.08A3.06,3.06,0,0,1,86.53,53a4.59,4.59,0,0,0,0-1.77c-.07-.05-.07-.07,0-.12a1.49,1.49,0,0,0,0-1c-.07,0-.07-.07,0-.13s.07-.06,0-.06a4.4,4.4,0,0,1-.11-1.34,7.27,7.27,0,0,0-.1-1.39,9,9,0,0,1-.13-1.51c-.06-1.58-.06-1.69-.14-2.44,0-.35-.07-.5-.14-.5s-.09-.12-.09-.47a1,1,0,0,0-.06-.48,1.22,1.22,0,0,1-.11-.49,1.39,1.39,0,0,0-.14-.58.59.59,0,0,1-.1-.36c0-.15,0-.28-.08-.29s-.1-.23-.11-.59a1.54,1.54,0,0,0-.09-.56s-.06-.07-.06-.17a.92.92,0,0,0-.07-.32,2.74,2.74,0,0,1-.1-.41c0-.16-.08-.26-.14-.26s-.1-.08-.1-.31,0-.3-.07-.3-.07-.06-.07-.14a.36.36,0,0,0-.09-.22.94.94,0,0,1-.13-.42.81.81,0,0,0-.11-.38.87.87,0,0,1-.12-.4c0-.22-.08-.36-.13-.36s-.1-.12-.12-.32c-.06-.55-.13-.77-.23-.77s-.09-.07-.09-.2,0-.21-.07-.21-.07-.09-.07-.2,0-.21-.1-.21-.1-.06-.1-.17a.22.22,0,0,0-.11-.21.17.17,0,0,1-.1-.14.09.09,0,0,0-.1-.09.1.1,0,0,1-.1-.1c0-.06,0-.11-.06-.11s-.08-.12-.11-.27-.07-.27-.14-.27-.1-.07-.1-.2,0-.21-.18-.24a.27.27,0,0,1-.21-.24.36.36,0,0,0-.13-.24.17.17,0,0,1-.1-.14c0-.06,0-.1-.06-.1s-.09-.14-.13-.31-.11-.31-.22-.31-.13,0-.13-.17,0-.17-.07-.17S81,29.69,81,29.6s0-.17-.1-.17a.17.17,0,0,1-.15-.12.77.77,0,0,0-.14-.21.48.48,0,0,1-.09-.29c0-.11,0-.2,0-.2s-.11-.14-.18-.31-.18-.3-.23-.3-.08-.07-.08-.14a.52.52,0,0,0-.07-.23c-.28-.33-.34-.42-.34-.5A.1.1,0,0,0,79.5,27a.1.1,0,0,1-.1-.09.3.3,0,0,0-.13-.18.48.48,0,0,1-.18-.29c0-.11-.08-.19-.14-.19a.1.1,0,0,1-.09-.1c0-.06,0-.11-.07-.11s-.07,0-.07-.1a.09.09,0,0,0-.1-.1c-.05,0-.11-.08-.13-.17s-.09-.17-.15-.17a.11.11,0,0,1-.1-.1.11.11,0,0,0-.1-.11.09.09,0,0,1-.1-.1c0-.06,0-.1-.07-.1s-.07-.05-.07-.1a.11.11,0,0,0-.1-.11.1.1,0,0,1-.11-.1c0-.06,0-.1-.06-.1s-.07,0-.07-.11-.09-.14-.21-.19-.2-.11-.2-.16a.1.1,0,0,0-.1-.09.1.1,0,0,1-.11-.1.47.47,0,0,0-.38-.48c-.14,0-.23-.08-.23-.14s0-.1-.07-.1a.41.41,0,0,1-.27-.24.79.79,0,0,0-.35-.3s-.06,0-.06-.11,0-.1-.07-.1-.07,0-.07-.1-.07-.1-.2-.1-.21,0-.21-.11a.1.1,0,0,0-.1-.1c-.06,0-.1,0-.1-.07s-.08-.08-.17-.1-.17-.1-.17-.17-.07-.14-.21-.17-.2-.09-.2-.14-.08-.1-.21-.1-.2,0-.2-.1-.07-.1-.17-.1-.18,0-.18-.11a.1.1,0,0,0-.1-.1s-.1,0-.1-.07-.05-.07-.1-.07a.09.09,0,0,1-.1-.1c0-.07-.07-.1-.21-.1s-.2,0-.2-.1-.07-.11-.22-.11h-.21l0,.57c0,.31.06.91.08,1.35a2.58,2.58,0,0,0,.1.8,2.17,2.17,0,0,1,.07.77,1.89,1.89,0,0,0,.07.75s.07.09.07.2,0,.21-.07.21-.09.18,0,.23.06.05,0,.1-.08.08,0,.08.09.1.09.27,0,.27.1.27.1.09.1.37,0,.38.09.4a4.68,4.68,0,0,1,0,1.75.13.13,0,0,0,0,.23,3,3,0,0,1,.12,1c0,.71.07,1,.13,1s.1.34,0,.39-.06.05,0,.1.08.08,0,.08a.09.09,0,0,0-.09.1c0,.06,0,.1.07.1a4.21,4.21,0,0,1,.07,1.16c0,1,0,1.16.1,1.16s.1.13.1.69,0,.68.11.68.1.06.1.17,0,.17-.1.17a.11.11,0,0,0-.11.1.11.11,0,0,0,.11.11s.1,0,.1.06,0,.07-.1.07-.11.31-.11,2.32,0,2.32-.1,2.32-.1.13-.1.72,0,.72-.08.73a2.29,2.29,0,0,0-.15.79,2.65,2.65,0,0,1-.12.77,2.54,2.54,0,0,0-.06.75c0,.62,0,.75-.1.75s-.11.12-.11.68a1.73,1.73,0,0,1-.06.69s-.07.34-.07.88,0,.89-.08.91a4.67,4.67,0,0,0-.07,1.34c0,1.25,0,1.32.14,1.43a.4.4,0,0,1,.14.2s.14.09.31.12.31.07.31.17,0,.14.2.14.21,0,.21.06a1.21,1.21,0,0,0,.51.1c.44,0,.51.07.51.18s0,.13.34.13.35,0,.35.07.13.07.3.07.31,0,.31.09.33.18.7.18c.1,0,.19,0,.19.07s.17.07.37.07.38,0,.38.1.07.1.27.1.28,0,.28.07.13.07.3.07.31,0,.31.13.06.15.2.17l.41.08c.12,0,.21.09.21.14s.08.1.27.1.28,0,.28.1.07.1.27.1.27,0,.27.1a.11.11,0,0,0,.1.11.1.1,0,0,1,.11.09c0,.06.12.11.34.14s.34.07.34.11.06.07.14.07a.21.21,0,0,1,.18.1c0,.06.13.1.3.1s.27,0,.27.07.06.07.13.07.14,0,.14.13,0,.14.34.14.34,0,.34.06.09.09.2.11a.36.36,0,0,1,.24.14c0,.06.13.1.28.1s.24,0,.24.07.09.07.2.07.21,0,.21.1.06.1.17.1S85,56,85,56s.09.07.2.07.21,0,.21.13,0,.14.41.14h.41v-.2ZM65.71,50.05c0-.11.09-.21.14-.21a.09.09,0,0,0,.1-.1.11.11,0,0,0-.1-.1c-.06,0-.1,0-.1-.07s0-.07.1-.07.1-.11.1-.58,0-.58.1-.58.11-.13.11-.78a2.21,2.21,0,0,1,.06-.79s.07,0,.07-.1,0-.1-.07-.1-.06-.11-.06-.24,0-.24.06-.24.07-.06.07-.14,0-.13-.07-.13-.06-.14-.06-.31,0-.31,0-.31a9.55,9.55,0,0,0,.19-2.11c0-.1-.1-.14-.25-.14S66,43,66,43s-.06.06-.14.06a.12.12,0,0,0-.13.1s-.1.11-.24.14-.24.07-.24.11-.09.06-.21.06-.2,0-.2.11-.06.1-.14.1-.13,0-.13.07-.06.07-.14.07-.14,0-.14.13-.06.14-.25.17c-.5.08-.57.11-.57.21s-.08.1-.3.1-.31,0-.31.1-.06.1-.17.1-.17,0-.17.1-.19.12-.58.17-.58.12-.58.17-.87.26-2.1.3c-.93,0-1.18,0-1.18.13s-.1.09-.34.09-.34,0-.35-.12,0-.11,0,0-.36.17-.36,0-.12-.1-.6-.11a17.06,17.06,0,0,1-2.84-.12A.9.9,0,0,0,53,45.2c-.34,0-.39,0-.39-.13s-.07-.13-.29-.16a1.1,1.1,0,0,0-.42,0c-.12,0-.12.06,0,.06a.11.11,0,0,1,.12.11.1.1,0,0,0,.1.1c.07,0,.11.07.11.21s0,.2.07.2.06,0,.06.08a.74.74,0,0,0,.21.26.66.66,0,0,1,.2.3c0,.06.09.12.21.15s.2.07.2.1a.08.08,0,0,0,.09.07c.09,0,.25.3.25.45s.07.09.14.09.14,0,.14.06.12.08.27.11.27.07.27.18,0,.13.17.13.17,0,.17.07.08.07.18.07.17,0,.17.09.2.18.46.18.36.14.36.27.09.07.2.07.21,0,.21.07.13.07.3.07.31,0,.31.14.05.13.15.13.6.16.6.25.09.09.24.09.24,0,.24.11.07.1.24.1.24,0,.24.09.13.12.3.17.31.12.31.18.07.1.23.1a.63.63,0,0,1,.29.06,16.26,16.26,0,0,0,2.64.15c.73,0,.87,0,.87.1s.18.1,1.22.1h1.23ZM48.07,49.3s.06,0,.06.1.1.1.51.1.51,0,.51-.1,0-.1.07-.1.07,0,.07-.1,0-.11-.07-.11-.07,0-.07-.1,0-.1-.12-.1a.33.33,0,0,1-.2-.08.33.33,0,0,1-.09-.21c0-.07,0-.12-.1-.12s-.1,0-.1-.07,0-.07-.1-.07a.09.09,0,0,1-.1-.1c0-.06,0-.1-.07-.1a.53.53,0,0,1-.34-.33s-.07-.08-.14-.08-.15-.06-.18-.2a.26.26,0,0,0-.24-.25c-.16,0-.2-.08-.2-.24s0-.2-.1-.2a.11.11,0,0,1-.1-.11c0-.14-.14-.27-.36-.32s-.19-.1-.19-.19,0-.13-.07-.13S46,45.8,46,45.6s0-.19-.13-.19-.21-.13-.21-.35a.12.12,0,0,0-.13-.13.12.12,0,0,1-.14-.14c0-.07,0-.14-.07-.14s-.07,0-.07-.1-.06-.1-.17-.1-.17,0-.17-.14a.17.17,0,0,0-.14-.18c-.11,0-.13-.09-.13-.34s0-.3-.07-.3-.07,0-.07-.1a.12.12,0,0,0-.13-.1c-.1,0-.14-.07-.17-.32s-.17-.5-.34-.5-.11-.11-.14-.34-.08-.34-.15-.34-.09-.07-.09-.17a.23.23,0,0,0-.07-.19,1.56,1.56,0,0,1-.08-.62c0-.53,0-.59-.13-.59a.12.12,0,0,1-.13-.11s0-.1-.07-.1-.07-.11-.07-.24,0-.24-.1-.24-.1-.09-.1-.4,0-.4-.16-.44c-.33-.09-.34-.08-.42.72,0,.28-.08.4-.15.4s-.09.1-.09.41,0,.41-.07.41-.07.07-.07.17,0,.17-.1.17-.1.07-.1.27,0,.27-.07.27-.08.1-.11.21-.08.2-.14.2-.09.09-.1.26-.12.49-.29.49-.11.07-.11.21,0,.2-.07.2-.08.1-.1.21-.09.2-.17.2-.14.08-.17.3-.08.31-.21.35a.18.18,0,0,0-.17.17.13.13,0,0,1-.14.14.12.12,0,0,0-.13.1c0,.06,0,.1-.07.1s-.07.05-.07.11a.11.11,0,0,1-.1.1c-.07,0-.11.07-.11.2s0,.21-.06.21-.09.08-.11.17-.09.17-.14.17-.1.06-.1.14a.35.35,0,0,1-.3.34.12.12,0,0,0-.11.13c0,.09-.06.15-.17.18s-.17.07-.17.11,0,.06-.1.06-.1.06-.1.13,0,.14-.1.14a.13.13,0,0,0-.11.14c0,.07,0,.13-.06.13s-.09.11-.11.24-.09.24-.14.24-.1.07-.1.16-.11.25-.34.25c-.07,0-.13,0-.13.07s-.1.07-.21.07-.2,0-.2.3,0,.31-.14.31-.14,0-.14.07.06.07.14.07.14,0,.14.1.37.1,2.93.1c2.75,0,2.94,0,3-.12s0-.11,0,0,.16.12,1.56.12,1.53,0,1.53.11.09.1.41.1.41,0,.41-.1.08-.11.31-.11.3,0,.3.11.11.1.55.1.55,0,.55.12,0,.11,0,0,.06-.12.1-.12Zm-25.75-.1c0-.09.11-.11.58-.11s.58,0,.58-.13.13-.21.55-.21.34,0,.34-.13.05-.14.2-.14.21,0,.21-.07.09-.07.2-.07.21,0,.21-.1.07-.1.23-.1.25,0,.26-.08a1.41,1.41,0,0,1,.59-.11c.4,0,.56-.06.56-.13s.07-.09.17-.09.17,0,.17-.07.06-.07.14-.07.13,0,.13-.14.06-.15.21-.18.2-.06.2-.1.07-.06.16-.06a.25.25,0,0,0,.24-.17.25.25,0,0,1,.21-.17c.08,0,.14,0,.14-.07s.16-.24.36-.29.19-.1.19-.19a.12.12,0,0,1,.13-.13.21.21,0,0,0,.18-.14.18.18,0,0,1,.16-.13c.08,0,.15-.09.19-.24s.08-.27-.41-.35c-.2,0-.32-.08-.32-.14s-.12-.13-.7-.2c-.27,0-.39-.07-.39-.14s-.08-.1-.27-.1-.28,0-.28-.1-.13-.1-.75-.1-.75,0-.75-.13-.07-.13-.36-.17l-.57,0c-.18,0-.22,0-.25-.21s-.08-.2-.22-.2-.17,0-.17-.1-.07-.11-.24-.11-.24,0-.24-.06-.15-.08-.34-.11-.34-.08-.34-.14-.08-.1-.21-.1-.2,0-.2-.06-.08-.07-.17-.07-.17,0-.17-.13-.06-.14-.25-.16c-.45,0-.57,0-.56.24s0,1.35,0,2.73c-.06,2.38-.07,2.51-.19,2.51s-.12,0-.12.1.06.1.13.1.14,0,.14.33c0,.57,0,.63.42.63s.33,0,.33-.1Zm35-8a2.93,2.93,0,0,1,1-.07c.8,0,.95,0,.95-.1s.07-.1.21-.1.2,0,.2-.1.14-.1.49-.12.51-.07.52-.12.09-.07.16-.07a.12.12,0,0,0,.13-.1c0-.05.09-.14.2-.19s.21-.12.21-.17.08-.09.2-.09.21,0,.21-.1.06-.1.17-.1.17,0,.17-.11a.1.1,0,0,1,.1-.1c.06,0,.1,0,.1-.07s.05-.06.1-.06.11-.1.13-.21.08-.2.17-.2.15-.07.18-.17.09-.18.14-.18a.09.09,0,0,0,.1-.1.35.35,0,0,1,.27-.3s.07-.06.07-.13a.36.36,0,0,1,.15-.22,2.67,2.67,0,0,0,.23-.18.31.31,0,0,1,.17-.09s.07,0,.07-.1a.09.09,0,0,1,.09-.1c.06,0,.14-.14.19-.35s.11-.34.14-.34.06-.06.06-.13,0-.14.09-.14.12-.13.15-.48.08-.48.14-.48.09-.15.09-.68,0-.68-.1-.68-.11-.1-.14-.27-.07-.28-.1-.28-.07-.11-.09-.24-.09-.24-.15-.24-.11-.11-.14-.33-.06-.35-.24-.38-.2-.09-.2-.18,0-.13-.1-.13a.18.18,0,0,1-.15-.14c0-.07-.06-.13-.1-.13s-.06-.05-.06-.11a.1.1,0,0,0-.1-.1.1.1,0,0,1-.1-.1s-.08-.12-.17-.14-.17-.07-.17-.11-.08-.06-.17-.06-.17,0-.17-.14A.18.18,0,0,0,62.4,31c-.08,0-.14-.08-.14-.13a.09.09,0,0,0-.1-.09.1.1,0,0,1-.1-.11c0-.06-.07-.1-.21-.1s-.2,0-.2-.1-.08-.12-.17-.14-.17-.07-.17-.11-.05-.06-.1-.06-.11,0-.11-.07S61,30,61,30a.13.13,0,0,1-.14-.11c0-.05-.06-.1-.14-.1s-.13,0-.13-.1-.08-.1-.27-.1-.28,0-.29-.08a1,1,0,0,0-.49-.11c-.32,0-.46-.07-.46-.13s-.1-.09-.41-.09-.4,0-.4-.07-.08-.07-.18-.07-.17,0-.17.07-.06.07-.13.07-.14,0-.14-.07-.15-.07-.34-.07-.34,0-.34-.1-.13-.11-.79-.11-.78,0-.78.11-.09.1-.41.1-.41,0-.41.07-.14.07-.31.07-.31,0-.31.09-.12.11-.35.13a.82.82,0,0,0-.39.12.13.13,0,0,1-.12.07.09.09,0,0,0-.09.1.11.11,0,0,1-.1.1c-.06,0-.11,0-.11.07s-.1.2-.36.36c-.1.07-.18.17-.18.22s-.08.1-.24.1-.24,0-.24.1a.11.11,0,0,1-.1.11.1.1,0,0,0-.11.1c0,.06-.09.11-.23.14s-.24.08-.24.17a.12.12,0,0,1-.11.13c-.05,0-.1,0-.1.07s-.09.08-.2.1-.21.09-.21.15a.08.08,0,0,1-.07.09s-.06.05-.06.1-.07.11-.14.11-.14,0-.14.2,0,.21-.06.21a.86.86,0,0,0-.1.42c0,.38-.09.49-.28.55a8.88,8.88,0,0,0,0,2.36s.08.08.08.15,0,.14.06.14.09.2.11.44a1,1,0,0,0,.11.44s.06.11.06.24,0,.24.14.24.14,0,.14.1,0,.11.06.11a.07.07,0,0,1,.07.06,1.14,1.14,0,0,0,.33.45.39.39,0,0,1,.08.2c0,.06,0,.11.07.11a.37.37,0,0,1,.27.26s.07.08.14.08a.19.19,0,0,1,.18.1.15.15,0,0,0,.13.1s.1.08.13.17.09.17.14.17.1.06.1.14,0,.14.1.14.11.06.11.17,0,.17.2.17.21,0,.21.1,0,.1.06.1.07.05.07.1.1.12.24.15.24.08.24.16.12.14.55.24.54.16.54.22.13.09.52.09.51,0,.51.1.09.1.44.1.45,0,.45.07.21.07.51.07.51,0,.51-.07Zm-2-1.79c-.17,0-.29-.11-.29-.16s-.06-.1-.14-.1-.14,0-.14-.07-.12-.06-.27-.06-.27,0-.27-.11-.07-.1-.17-.1-.17,0-.17-.07-.13-.07-.28-.07-.29,0-.32-.13-.08-.14-.13-.14-.09-.08-.09-.27,0-.27-.1-.27a.11.11,0,0,1-.11-.11s0-.1-.07-.1-.06-.08-.06-.18a.48.48,0,0,0-.19-.34c-.16-.13-.18-.21-.21-.7s-.06-.55-.12-.55-.1-.09-.1-.28,0-.27-.1-.27-.1-.12-.1-.65,0-.65.1-.65.1-.08.1-.34,0-.34.1-.34a.13.13,0,0,0,.11-.14c0-.22.12-.41.27-.41s.14,0,.14-.07a.39.39,0,0,1,.26-.27s.08-.07.08-.16a.18.18,0,0,1,.13-.2.17.17,0,0,0,.14-.14c0-.07.06-.11.14-.11a.12.12,0,0,0,.13-.11c0-.06.07-.1.21-.1s.2,0,.2-.09.11-.11.29-.13a.56.56,0,0,0,.32-.11s.11-.08.21-.08.21,0,.24-.13a.2.2,0,0,1,.2-.14.36.36,0,0,1,.25.14c.07.1.17.13.45.13s.37,0,.37-.07.09-.06.2-.06.2,0,.2.06.21.07.48.07a1,1,0,0,1,.48.06s.22.09.48.11.48.08.48.15.06.09.13.09.14.05.14.1a.11.11,0,0,0,.1.11c.06,0,.1,0,.1.06s.13.11.28.15.27.12.27.21a.19.19,0,0,0,.17.16.19.19,0,0,1,.17.21c0,.1,0,.16.1.16s.11.07.11.17,0,.17.19.21.2.06.24.53a14.94,14.94,0,0,1,0,2.22c0,.24-.07.36-.13.36s-.1.07-.1.17,0,.17-.1.17a.09.09,0,0,0-.1.1c0,.06,0,.1-.07.1A.08.08,0,0,0,60,37a.47.47,0,0,1-.14.24.58.58,0,0,0-.13.21.08.08,0,0,1-.07.08s-.07.07-.07.17,0,.17-.1.17a.09.09,0,0,0-.1.1c0,.06-.07.1-.17.1s-.18,0-.18.13a.37.37,0,0,1-.1.24.34.34,0,0,0-.1.17s-.06.08-.13.08a.39.39,0,0,0-.24.1.41.41,0,0,1-.27.1c-.11,0-.18,0-.18.1s-.07.11-.2.11-.21,0-.21.06-.06.07-.14.07a.12.12,0,0,0-.13.11c0,.06-.07.1-.2.1a.37.37,0,0,0-.25.07,5.38,5.38,0,0,1-1.65,0Zm-25.43.83a3.4,3.4,0,0,0,1.51-.18c0-.05.08-.09.21-.09s.2,0,.2-.1.09-.1.38-.1.37,0,.37-.1.15-.15.38-.22.38-.16.38-.21.07-.09.17-.09.37-.14.37-.27.06-.07.14-.07.14,0,.14-.07.07-.08.16-.1.24-.2.24-.49c0-.11.05-.16.14-.16s.22-.2.31-.7c0-.19.07-.25.17-.25s.14,0,.14-.21,0-.2.06-.2a11.77,11.77,0,0,0,.07-2.09,11.69,11.69,0,0,0-.07-2.08s-.06-.14-.06-.31,0-.3-.14-.3-.14-.05-.14-.2a.39.39,0,0,0-.17-.32.42.42,0,0,1-.17-.25c0-.07,0-.12-.06-.12s-.08-.11-.1-.24-.09-.24-.15-.24a.1.1,0,0,1-.1-.09c0-.06-.11-.15-.24-.21s-.24-.14-.24-.18-.06-.06-.13-.06a.13.13,0,0,1-.14-.11.11.11,0,0,0-.1-.1.1.1,0,0,1-.1-.1.09.09,0,0,0-.08-.1.31.31,0,0,1-.17-.11.43.43,0,0,0-.24-.1c-.07,0-.13,0-.13-.07s-.19-.27-.37-.27-.17,0-.17-.1a.11.11,0,0,0-.11-.11.1.1,0,0,1-.1-.1c0-.05-.08-.12-.19-.14s-.36-.18-.36-.3a7.88,7.88,0,0,0-2.37.05c0,.05-.16.09-.36.09s-.34,0-.34.06a.87.87,0,0,1-.41.11c-.28,0-.41.07-.41.14s-.1.09-.37.09-.38,0-.38.11-.09.1-.37.1-.38,0-.38.07-.09.07-.2.07-.21,0-.21.09-.1.11-.24.14-.24.07-.24.11-.14.07-.3.07-.31,0-.31.1a.11.11,0,0,1-.1.1.11.11,0,0,0-.11.1.12.12,0,0,1-.13.11.19.19,0,0,0-.17.13.21.21,0,0,1-.19.14.18.18,0,0,0-.17.14.18.18,0,0,1-.2.13c-.13,0-.16,0-.16.21s0,.21-.21.25-.2.07-.2.22c0,.31-.08.48-.21.48a.12.12,0,0,0-.13.1c0,.06,0,.11-.07.11s-.07,0-.07.1-.05.1-.12.1-.14.09-.2.5a2.33,2.33,0,0,0,0,.65c0,.12,0,.15-.11.15s-.14,0-.14.32,0,.54-.08.81c-.08.55,0,1,.21,1.07s.14.13.17.28.08.25.18.25.13.05.13.21,0,.2.07.2.07,0,.07.1.07.11.15.12.16.07.18.21.06.18.12.18a.38.38,0,0,1,.3.27s.05.08.12.08.15.08.2.2.12.21.22.21.16.05.19.2.08.21.14.21.29.16.29.26.06.08.13.08a.39.39,0,0,1,.24.1.34.34,0,0,0,.23.1c.09,0,.16.08.21.26a.52.52,0,0,0,.29.35c.12,0,.2.14.2.22s0,.13.34.13.34,0,.34.1.07.1.24.1.24,0,.24.1,1,.27,1.67.22.85,0,.86.15,0,0,0,0,.07-.15.42-.16Zm-2.38-1.74c0-.06-.06-.1-.17-.1s-.17,0-.17-.07-.11-.06-.24-.06-.24,0-.24-.14,0-.14-.17-.14-.17,0-.17-.07-.06-.06-.14-.06a.22.22,0,0,1-.18-.11.18.18,0,0,0-.16-.1.12.12,0,0,1-.13-.1c0-.06,0-.1-.06-.1s-.08-.08-.11-.17-.09-.18-.17-.18-.14-.09-.21-.51-.12-.51-.22-.51-.12,0-.12-.23,0-.26-.07-.28-.07-.13-.07-.24,0-.21-.09-.21-.11-.12-.15-.44c-.06-.53,0-.92.14-.92s.1-.1.1-.4.12-.76.29-.76.14-.07.16-.19a2.75,2.75,0,0,1,.1-.34,1.12,1.12,0,0,0,.07-.38c0-.19,0-.24.26-.34a1.56,1.56,0,0,1,.34-.12s.08-.07.09-.15a.21.21,0,0,1,.18-.18c.08,0,.15-.06.15-.12a.08.08,0,0,1,.07-.09s.07-.05.07-.11.08-.1.34-.1.34,0,.34-.13,0-.14.16-.14a.34.34,0,0,0,.25-.14c.07-.1.18-.13.39-.13s.29,0,.29-.11.07-.1.21-.1.2,0,.2.1.16.11,1,.11,1,0,1.07.12a.64.64,0,0,0,.3.17c.1,0,.19.09.19.15s.06.1.17.1.17,0,.17.1a.13.13,0,0,0,.14.11c.07,0,.13,0,.13.1s.08.12.17.14.18.09.18.17a.37.37,0,0,0,.1.23.52.52,0,0,1,.1.31c0,.14,0,.21.1.21s.1.08.1.37,0,.38.07.38.07.14.07.31,0,.3.1.3.11.07.11.21,0,.2-.11.2-.1,0-.1.07,0,.07.1.07.11.12.11.68,0,.68-.11.68-.1.09-.1.38,0,.38-.07.38-.07.09-.07.2,0,.21-.1.21-.1.06-.1.17,0,.17-.1.17-.1.06-.1.2,0,.21-.18.21-.17,0-.17.1-.06.1-.13.1-.14,0-.14.24-.19.51-.37.51a.13.13,0,0,0-.11.14c0,.12,0,.14-.41.14-.22,0-.41,0-.41.06s-.24.07-.58.07-.58,0-.58.1-.66.15-.7,0,0-.12,0,0-.08.12-.42.12-.41,0-.41-.11Zm14.84-6.76a5.94,5.94,0,0,0,0-.79c0-.37,0-.47.1-.47s.1-.09.1-.37,0-.38.1-.38.11-.08.11-.31,0-.3.1-.3.1-.05.1-.12.16-.63.25-.63.1-.1.13-.21.07-.2.1-.2.07-.11.07-.24,0-.24.09-.24.12-.1.14-.24.08-.24.11-.24.07-.05.07-.1,0-.11.06-.11.28-.58.28-.79,0-.16.13-.16.14-.05.14-.1,0-.11.07-.11.07-.07.07-.17,0-.17.1-.17.1-.07.1-.2a.47.47,0,0,1,.11-.3.43.43,0,0,0,.1-.24.18.18,0,0,1,.17-.17c.16,0,.17-.08.17-.45s0-.41.13-.41.14-.07.17-.17.09-.17.17-.17.15-.07.18-.21.07-.2.11-.2.06-.1.06-.21,0-.2.1-.2.1-.07.1-.17,0-.17.07-.17.07-.08.07-.17a.18.18,0,0,1,.12-.19c.08,0,.16-.15.22-.35S47,21,47.08,21s.09-.07.09-.17,0-.17.11-.17a.11.11,0,0,0,.1-.1.1.1,0,0,1,.09-.11s.12-.09.16-.2.13-.2.19-.2a.13.13,0,0,0,.11-.14.19.19,0,0,1,.1-.18.17.17,0,0,0,.1-.14.1.1,0,0,1,.1-.09.11.11,0,0,0,.11-.1.1.1,0,0,1,.1-.11c.06,0,.1-.06.1-.16a.2.2,0,0,1,.13-.21.31.31,0,0,0,.17-.21c0-.11.09-.17.18-.17s.13,0,.13-.1,0-.1.07-.1.07-.06.07-.14a.12.12,0,0,1,.1-.13c.06,0,.12-.08.15-.18s.07-.17.1-.17.06,0,.06-.1a.11.11,0,0,1,.1-.1.11.11,0,0,0,.11-.1c0-.06,0-.11.06-.11s.07-.07.07-.17,0-.17.14-.17.14,0,.14-.1,0-.1.06-.1.07-.05.07-.1a.13.13,0,0,1,.14-.11c.07,0,.13,0,.13-.1s0-.1.07-.1.07-.08.07-.17,0-.17.1-.17.11-.07.11-.21,0-.2.06-.2.07-.05.07-.11,0-.1-.07-.1-.06,0-.06-.1-.33-.1-2.44-.12a24.59,24.59,0,0,1-3.52-.09c-.18,0-.26,0-.26,0s-.39.07-1.62,0c-1.84,0-1.93,0-4.1,0-1.25,0-1.58.05-1.58.12s-.2.1-.77.13a2.16,2.16,0,0,0-.79.11s-.22.08-.53.08H35v.27c0,.23,0,.27.14.27s.14.05.14.21,0,.2.17.2.17,0,.17.11a.1.1,0,0,0,.1.1.09.09,0,0,1,.1.09.17.17,0,0,0,.1.14c.06,0,.11.12.11.25s0,.21.2.25.21.06.21.33,0,.3.17.3.17,0,.21.28.07.27.1.27.06.05.06.1a.1.1,0,0,0,.11.1.11.11,0,0,1,.1.11c0,.05,0,.1.07.1s.06.09.06.2,0,.21.14.21a.12.12,0,0,1,.14.14c0,.07,0,.13.07.13s.06.08.06.17,0,.17.11.17.1,0,.1.07,0,.07.1.07a.1.1,0,0,1,.1.1.1.1,0,0,0,.11.1.12.12,0,0,1,.1.12c0,.27.16.64.28.64s.13,0,.13.1,0,.1.07.1.06,0,.06.1a.11.11,0,0,0,.11.11c.06,0,.1.06.1.15a.47.47,0,0,0,.16.29,1.68,1.68,0,0,1,.39,1c0,.21,0,.25.13.25a.13.13,0,0,1,.14.14c0,.07,0,.14.07.14s.07.07.07.17,0,.17.09.17.1.12.13.38a.72.72,0,0,0,.19.51.71.71,0,0,1,.18.4c0,.15.06.28.1.28s.06.17.06.37,0,.38.12.38.14.07.17.42a7.25,7.25,0,0,1,.05.77c0,.49.06.79.18.79s.11.27,0,.28-.1,0,0,0,.12.14.14.58.06.57.11.58.09.19.09.5,0,.48.1.48.1.07.1.27,0,.27.07.27.07.17.07.37c0,.37,0,.39.28.44,0,0,.06-.13.08-.3ZM65.8,27.47c.13,0,.15-.08.15-.4s0-.37-.09-.37-.1-.2-.13-.93a2.75,2.75,0,0,0-.1-1,2.29,2.29,0,0,1-.16-.73,2.53,2.53,0,0,0-.18-.77.73.73,0,0,1-.09-.4c0-.22,0-.3-.1-.3s-.11-.09-.11-.37,0-.38-.09-.38-.11-.15-.14-.58a1.65,1.65,0,0,0-.11-.58s-.08-.12-.11-.26a.56.56,0,0,0-.15-.33c-.07-.05-.11-.24-.13-.63s-.06-.56-.13-.56-.09-.1-.09-.37,0-.38-.1-.38-.11-.06-.11-.2,0-.21,0-.21-.1-.12-.15-.27-.12-.27-.15-.27-.06-.09-.06-.21,0-.2-.1-.2-.1-.07-.1-.21,0-.2-.07-.2-.07-.08-.07-.17,0-.17-.09-.17-.12-.09-.14-.19a.69.69,0,0,0-.21-.32.41.41,0,0,1-.17-.29c0-.1,0-.16-.1-.16a.11.11,0,0,1-.11-.1c0-.08-.08-.1-.37-.1s-.38,0-.38.1a.1.1,0,0,1-.1.1c-.06,0-.1.07-.1.17s0,.17-.1.17a.11.11,0,0,0-.11.1.1.1,0,0,1-.09.11c-.06,0-.12.09-.15.2s-.08.21-.13.21-.17.15-.17.38,0,.16-.21.16-.2,0-.2.11,0,.1-.06.1-.08.06-.1.13a.17.17,0,0,1-.14.14.11.11,0,0,0-.11.11c0,.14-.15.28-.37.34s-.18.09-.18.24,0,.2-.07.2-.34.22-.34.32a.09.09,0,0,1-.1.09c-.06,0-.1.06-.1.17s0,.17-.07.17-.07.05-.07.1a.1.1,0,0,1-.1.1.1.1,0,0,0-.1.11.11.11,0,0,1-.11.1.11.11,0,0,0-.1.1.1.1,0,0,1-.1.1.1.1,0,0,0-.1.11.11.11,0,0,1-.11.1.1.1,0,0,0-.1.1c0,.06-.1.12-.24.14s-.24.08-.24.17-.07.14-.24.17-.24.08-.24.21,0,.16-.1.16-.1.07-.1.2a.57.57,0,0,1-.1.31.28.28,0,0,0-.1.17.09.09,0,0,1-.07.08s-.07,0-.07.1-.06.1-.14.1a.12.12,0,0,0-.13.1c0,.06,0,.11-.07.11s-.07,0-.07.1a.11.11,0,0,1-.1.1.11.11,0,0,0-.11.1c0,.06,0,.11-.06.11s-.09.07-.11.17-.08.17-.13.17-.16.18-.22.75c0,.34-.06.41-.17.41s-.13.05-.13.17,0,.17-.06.17-.07.06-.07.14,0,.13-.07.13-.08.26,0,.3a1.23,1.23,0,0,0,.31,0c.13,0,.2,0,.2.11a.1.1,0,0,0,.1.1.11.11,0,0,0,.1-.1c0-.08.09-.11.38-.11s.37,0,.37.11.06.1.14.1.14,0,.14-.1.57-.22.85-.19l1.06,0c1.25,0,1.23,0,1.23.14s.15.1.56.13a2,2,0,0,1,.59.11s.12.07.25.07S61,25,61,25s.07.1.14.1.14,0,.14.1.1.1.48.1a1,1,0,0,1,.47.06s.1.08.22.11c.33.06.6.2.6.29s.08.09.17.09.17,0,.17.1.07.1.21.1.2,0,.2.11.07.1.21.1.2,0,.2.1,0,.1.07.1a.08.08,0,0,1,.07.08c0,.11.18.26.3.26a.11.11,0,0,1,.11.11.11.11,0,0,0,.1.1.1.1,0,0,1,.1.1c0,.06.07.1.14.1s.14,0,.14.06.07.08.15.12.2.1.38,0ZM25.68,23.56c.25,0,.33,0,.33-.11s.08-.1.34-.1.34,0,.34-.07.09-.06.21-.06.2,0,.2-.11.07-.1.23-.1a.37.37,0,0,0,.27-.08c0-.07.38-.09,1.48-.09s1.46,0,1.49.09.14.08.29.08.27,0,.27.1.13.13.14,0,0-.12,0,0,.1.12.23.12.2,0,.2.06.17.07.38.07.37,0,.37-.17,0-.17-.1-.17-.1-.07-.1-.2,0-.21-.07-.21-.08-.11-.11-.24-.07-.24-.11-.24-.26-.2-.26-.44,0-.24-.13-.24-.14,0-.14-.1,0-.1-.06-.1-.08-.08-.1-.17-.1-.18-.18-.18-.14-.06-.17-.2-.09-.21-.14-.21-.1-.06-.1-.17,0-.18-.21-.21-.2-.08-.2-.2,0-.17-.07-.17-.07,0-.07-.1-.06-.1-.13-.1-.14-.05-.14-.1,0-.11-.07-.11-.07,0-.07-.1a.12.12,0,0,0-.13-.1c-.09,0-.14-.06-.17-.21s-.09-.2-.15-.2-.27-.14-.33-.33-.09-.15-.14-.15-.1-.06-.1-.13,0-.14-.07-.14-.07-.05-.07-.1a.12.12,0,0,0-.13-.11c-.08,0-.14-.06-.17-.17a.35.35,0,0,0-.16-.22c-.15-.06-.29-.19-.29-.28s-.14-.08-.33-.08c-.37,0-.42.07-.42.53,0,.18,0,.22-.14.22s-.13.05-.13.31,0,.31-.07.31-.07.08-.07.17,0,.17-.12.17-.29.38-.29.78c0,.2,0,.24-.13.24s-.14.07-.18.48-.07.48-.17.48-.2.18-.2.47-.15.69-.24.69-.31.6-.31,1.07,0,.43-.13.43-.14,0-.14.1.23.17.44.13l.46,0ZM4.5,161.2a.07.07,0,0,1,.14,0,.07.07,0,1,1-.14,0Zm124.28-26.15c0-.09,0-.13,0-.08a.25.25,0,0,1,0,.17c0,.05,0,0,0-.09ZM2.59,120.78c0-.07,0-.13.07-.13s.07.06.07.13,0,.14-.07.14S2.59,120.86,2.59,120.78ZM0,10.68c0-.08,0-.09,0,0a.14.14,0,0,1,0,.13s0,0,0-.09Z" />
    </g>
</svg>
