<svg xmlns="http://www.w3.org/2000/svg" id="Ebene_1" data-name="Ebene 1" viewBox="0 0 210 52"><defs><style>.cls-1,.cls-2,.cls-3,.cls-4,.cls-5,.cls-6,.cls-7,.cls-8{font-size:9px;}.cls-1,.cls-2,.cls-8{font-family:Oswald-Regular, Oswald;}.cls-1,.cls-5,.cls-8{letter-spacing:0em;}.cls-2,.cls-6{letter-spacing:0.01em;}.cls-3,.cls-4,.cls-5,.cls-6,.cls-7{font-family:Oswald-SemiBold, Oswald;font-weight:600;}.cls-3{letter-spacing:0.01em;}.cls-4{letter-spacing:0em;}.cls-7{letter-spacing:0.01em;}.cls-8{fill:#048263;}.cls-9{fill:#010101;}.cls-10{fill:#228d6d;}.cls-11{fill:#050403;}.cls-12{fill:#25866a;}.cls-13{fill:#a6b6b8;}.cls-14{fill:#ebebeb;}.cls-15{fill:#238e6e;}.cls-16{fill:#eef6f3;}.cls-17{fill:#eff6f4;}</style></defs><text class="cls-1" transform="translate(50.72 17.96)">E</text><text class="cls-2" transform="translate(54.43 17.96) scale(0.7)">DITIONSPROGRAMM</text><text class="cls-3" transform="translate(50.72 28.96)">F</text><text class="cls-4" transform="translate(54.59 28.96) scale(0.7)">RAKTIONEN</text><text class="cls-5" transform="translate(83.37 28.96)"> </text><text class="cls-6" transform="translate(85.66 28.96) scale(0.7)">IM</text><text class="cls-5" transform="translate(91.93 28.96)"><tspan xml:space="preserve"> D</tspan></text><text class="cls-6" transform="translate(99.43 28.96) scale(0.7)">EUTSCHEN</text><text class="cls-7" transform="translate(125.54 28.96)"><tspan xml:space="preserve"> B</tspan></text><text class="cls-4" transform="translate(133.04 28.96) scale(0.7)">UNDESTAG</text><text class="cls-8" transform="translate(50.72 39.96)">1949–2005</text><path d="M42.48,43.14c-.07,0-.12,0-.16.09s-.25.16-.37.23a2.94,2.94,0,0,1-.62.24.51.51,0,0,0-.2.12,1.48,1.48,0,0,1-.27.16c-.15.08-.31.12-.46.2a1.06,1.06,0,0,1-.31,0c-.08,0-.17,0-.22.07a2.4,2.4,0,0,1-.53.12,1.45,1.45,0,0,0-.45.13c-.22.07-.45.08-.67.17a.63.63,0,0,1-.24,0c-.09,0-.2,0-.27.08s-.08,0-.13,0a3.57,3.57,0,0,0-.46,0c-.16,0-.32.06-.48.1h-.19a.46.46,0,0,0-.22.06.88.88,0,0,1-.33,0c-.08,0-.17,0-.24.06a.27.27,0,0,1-.2,0c-.13,0-.25,0-.35.07H35c-.24,0-.49.06-.74.06-.06,0-.13,0-.19.05s-.09,0-.14,0l-.56,0h-.07c-.11.12-.26.07-.39.07a8.71,8.71,0,0,0-1,0c-.26,0-.53.05-.79.1a7.17,7.17,0,0,1-1.39.1c-.11,0-.23-.05-.33.06s-.06,0-.1,0a.2.2,0,0,0-.24,0c-.11.09-.23.05-.34,0a.61.61,0,0,0-.27,0c-.07,0-.15,0-.2,0a.32.32,0,0,0-.23,0H25.69c-.19,0-.21,0-.28.2s-.15.41-.21.62-.09.36-.14.53-.08.13-.18.07c-.27-.17-.52-.37-.79-.54l-.53-.38a1.33,1.33,0,0,1-.27-.26.41.41,0,0,0-.37-.17.55.55,0,0,1-.18,0h-.26a.12.12,0,0,1-.13,0,.32.32,0,0,0-.35,0,.92.92,0,0,1-.37.05H21a.22.22,0,0,0-.23.15c0,.11,0,.25-.15.33s0,0,0,0c0,.22-.11.41-.09.63s0,.19-.2.16a1.19,1.19,0,0,1-.58-.37c-.06-.06-.11-.14-.21-.14s-.05,0-.06,0c-.09-.17-.27-.24-.37-.39s-.22-.18-.29-.31a.15.15,0,0,0-.12,0c-.12,0-.25,0-.37,0a2.72,2.72,0,0,1-.57,0,2.4,2.4,0,0,0-.28,0H15.81c-.28,0-.28.12-.31.32a3.06,3.06,0,0,1-.13.43s0,.09,0,.14-.06.12-.16.09a1,1,0,0,1-.35-.18l-.49-.39a1.05,1.05,0,0,1-.39-.42.07.07,0,0,0-.06-.06.79.79,0,0,0-.2,0c-.82,0-1.64,0-2.45,0-.37,0-.74,0-1.11,0H9.58A.75.75,0,0,1,9,45.43a1.7,1.7,0,0,0-.39-.27A1.09,1.09,0,0,0,8,45.05H7.68A.23.23,0,0,1,7.49,45c-.06-.05-.11.09-.19.06s-.06,0-.08,0S7,45,6.88,45l-1.8,0c-.24,0-.49,0-.74,0a.77.77,0,0,1-.51-.13.55.55,0,0,1-.24-.38A2.41,2.41,0,0,0,3.41,44a1.84,1.84,0,0,1-.17-.38c0-.06-.07-.06-.1-.1s-.09-.18-.14-.26a4,4,0,0,0-.68-.69,1.19,1.19,0,0,1-.22-.23,1.09,1.09,0,0,0-.45-.29,2.67,2.67,0,0,1-.43-.32.06.06,0,0,1,0-.11H2.8c.05,0,.12,0,.16,0a0,0,0,0,1,0,0c.12.1.23,0,.35,0a1.7,1.7,0,0,0,.39,0,3,3,0,0,0,.42,0c.13,0,.27,0,.4,0,.44,0,.87,0,1.31,0s1,0,1.56,0c.31,0,.62,0,.93,0a.15.15,0,0,0,.15-.1.82.82,0,0,0,.09-.29c0-.07.1-.13.14-.2s.18-.18.2-.32,0,0,.06,0l.38-.19h0a8.71,8.71,0,0,1,1-.05c.16,0,.32,0,.48,0a.08.08,0,0,0,.08,0,0,0,0,0,1,.06,0c.2.07.2.06.43,0h1.05a.23.23,0,0,0,.23-.14c0-.08.06-.18.16-.22s.14-.23.22-.34l.33-.51c.13-.2.24-.42.36-.63s.27-.57.42-.85.08-.27.15-.39a1,1,0,0,0,.16-.38c0-.08.09-.13.11-.22a3.52,3.52,0,0,1,.11-.49c.06-.13,0-.3.17-.41s0-.09,0-.14a3,3,0,0,1,.2-.66.92.92,0,0,0,0-.28s0,0,0-.06c-.18-.12-.33-.27-.5-.4l-.06,0a.72.72,0,0,1-.51-.22,1.65,1.65,0,0,0-.42-.21,1.26,1.26,0,0,1-.23-.13c-.14-.09-.33-.12-.43-.28s-.26-.19-.42-.25a.4.4,0,0,1-.18-.13c-.18-.15-.39-.24-.57-.38a7.89,7.89,0,0,1-.65-.49,1.29,1.29,0,0,0-.16-.09c-.41-.29-.76-.64-1.16-.94-.18-.14-.33-.33-.5-.49s-.47-.48-.71-.72a2.69,2.69,0,0,1-.27-.32,1,1,0,0,0-.23-.23A.63.63,0,0,1,8.06,29c-.07-.16-.21-.27-.28-.42s-.2-.31-.28-.48-.16-.28-.23-.43-.27-.51-.41-.76a4.18,4.18,0,0,1-.28-.56,6.1,6.1,0,0,1-.38-.82,4.91,4.91,0,0,0-.17-.5,3.46,3.46,0,0,0-.19-.54s0,0,0,0c0-.24-.18-.43-.21-.67a4.85,4.85,0,0,1-.14-.76c-.09-.13,0-.32-.17-.45a.07.07,0,0,1,0-.05,3.92,3.92,0,0,1-.15-.66s0-.09,0-.11,0-.08,0-.12A1.62,1.62,0,0,0,5,21.17a1.27,1.27,0,0,1,0-.44c0-.29-.06-.58,0-.88-.1-.14-.06-.3-.08-.45s0-.36,0-.54c0-.38,0-.76,0-1.14,0-.9,0-1.8,0-2.69,0-.06,0-.13.05-.17s0-.06,0-.09c0-.33.07-.65,0-1a.29.29,0,0,1,0-.22s0-.05,0-.09c0-.21,0-.42,0-.63s0-.17.06-.24,0,0,0-.09a3,3,0,0,1,.1-.73A2.86,2.86,0,0,0,5.41,11a1.6,1.6,0,0,0,.09-.65.08.08,0,0,1,0-.07,1.76,1.76,0,0,0,.16-.49,3.33,3.33,0,0,0,.13-.45A1.63,1.63,0,0,1,6,8.72a.06.06,0,0,0,0,0c0-.19.1-.37.13-.56s.07-.28.09-.43a2.17,2.17,0,0,1,.2-.59,1.53,1.53,0,0,0,.13-.32c0-.11.14-.17.13-.29s0-.26.15-.34.21-.39.27-.61A3.49,3.49,0,0,1,7.33,5a1.16,1.16,0,0,1,.24-.45c.07-.06.08-.18.11-.27A2.07,2.07,0,0,0,7.83,4,1.12,1.12,0,0,1,8,3.71l.24-.63a.71.71,0,0,1,.24-.34.25.25,0,0,1,.19-.05,2.94,2.94,0,0,0,.42,0,1.07,1.07,0,0,1,.25,0A2.26,2.26,0,0,1,10,3a.76.76,0,0,0,.16.06.15.15,0,0,1,.13.24,1.59,1.59,0,0,0-.16.43.88.88,0,0,1-.21.39,1.61,1.61,0,0,0-.22.48s0,.12-.08.17a.12.12,0,0,0,0,.15s.08,0,.12,0,.21,0,.31,0,.21,0,.33,0a4.42,4.42,0,0,0,1,0c.07,0,.13,0,.19,0s.33,0,.49,0a5,5,0,0,1,.55,0,3.37,3.37,0,0,0,.44,0,1.87,1.87,0,0,1,.41,0s.06,0,.09,0a1.37,1.37,0,0,1,.49,0c.06,0,.13,0,.18,0a0,0,0,0,1,.07,0s.09,0,.14,0a1.93,1.93,0,0,1,.34,0c.12,0,.24,0,.36,0h.37a2,2,0,0,1,.48.07,2.52,2.52,0,0,0,.48.06c.23,0,.46.08.7.13A.28.28,0,0,0,17.4,5a.78.78,0,0,1,.32-.21c.05,0,.09-.06.13-.1a.39.39,0,0,1,.1-.08,6.84,6.84,0,0,0,.74-.56,1.7,1.7,0,0,1,.22-.15.9.9,0,0,0,.19-.15s0-.06.08-.07.28-.19.45-.23a1.43,1.43,0,0,0,.27-.15c.1-.05.16,0,.23,0a1.09,1.09,0,0,1,.33.47,2.85,2.85,0,0,0,.26.41.83.83,0,0,1,.09.16c0,.11.05.15,0,.21a2.26,2.26,0,0,0-.31.23,4.92,4.92,0,0,0-.61.5,1.42,1.42,0,0,0-.3.3c-.05.07,0,.08,0,.12s.45.17.67.29a1.73,1.73,0,0,0,.32.11,5.46,5.46,0,0,0,.81.39c.22.18.52.23.68.49a.15.15,0,0,0,.07,0,3.64,3.64,0,0,1,.46.3,6.22,6.22,0,0,0,.58.43.1.1,0,0,1,.05,0,3.93,3.93,0,0,1,.62.79.11.11,0,0,0,.05.08,3,3,0,0,1,.42.45,1.08,1.08,0,0,1,.23.34.69.69,0,0,0,.17.26.63.63,0,0,1,.21.3c0,.1.14.15.16.26a1.31,1.31,0,0,0,.24.45,2.8,2.8,0,0,1,.35.58c.06.13.16.24.21.38a1.67,1.67,0,0,0,.17.44c.14.24.15.53.33.75a.25.25,0,0,1,0,.17c0,.06,0,.13,0,.19,0,.35.27.65.28,1,0,.09.12.17,0,.27.06.08,0,.19.06.28a1.51,1.51,0,0,1,0,.3.3.3,0,0,0,0,.16A1.68,1.68,0,0,1,27,16c0,.23,0,.46.05.69a1.16,1.16,0,0,1,0,.37s0,0,0,.06c.07.19,0,.39,0,.58a1.4,1.4,0,0,1,0,.5,1.89,1.89,0,0,0,0,.41c0,.16,0,.17.18.23s.48.05.69.15a3.53,3.53,0,0,0,.55.1l.89.23c.17,0,.33.13.49.18l.19.06c.21,0,.4.13.6.18a2.07,2.07,0,0,1,.6.23,2.29,2.29,0,0,0,.23.1,1.47,1.47,0,0,1,.52.25c.14,0,.25.09.37.13a.71.71,0,0,1,.26.13c.09.08.21.06.3.13a2.3,2.3,0,0,0,.33.21,6.52,6.52,0,0,0,1,.54,2.3,2.3,0,0,1,.49.32c.11.09.25.15.35.24a4.71,4.71,0,0,1,.45.33c.11.1.25.18.36.29l.44.4a3.2,3.2,0,0,1,.27.25,3.39,3.39,0,0,1,.4.45.82.82,0,0,0,.23.29c.08,0,0,.12.1.18a3.57,3.57,0,0,1,.42.54.92.92,0,0,1,.18.32,1.65,1.65,0,0,0,.15.25,5.42,5.42,0,0,1,.26.48s0,0,.06.06a.87.87,0,0,1,.28.42.31.31,0,0,0,.08.15c.05.06.12.13.11.22s0,0,0,0c.17.18.23.43.38.62s.07.21.13.3.12.3.21.44a.64.64,0,0,1,0,.24c0,.06,0,.14.07.16s0,.05,0,.08a.67.67,0,0,0,.16.45s0,.09,0,.13a.49.49,0,0,0,.1.27c.11.11.09.26.17.38a.16.16,0,0,1,0,.14c0,.13,0,.24,0,.37a.07.07,0,0,0,0,.05c.1.05.08.17.12.25a.48.48,0,0,1,.07.29v.05a1.64,1.64,0,0,1,.2.65,2.27,2.27,0,0,1,.12.63c0,.08.07.12.08.18a5.07,5.07,0,0,0,0,.56s0,.11-.1.13a2,2,0,0,0-.62.2.59.59,0,0,1-.13,0s-.09,0-.11.05,0,0,0,0-.25.07-.38.08l-.56.05-.08,0c0,.08-.11.06-.17.06a.52.52,0,0,0-.38.09s-.08,0-.13,0h-.84a4.76,4.76,0,0,1-.52.1l0,0c-.33-.05-.66,0-1,0a.29.29,0,0,0-.22,0,.78.78,0,0,1-.34,0c-.06,0-.13,0-.17.05s-.09,0-.14,0h-.62c-.14,0-.13,0-.13.17,0,.42,0,.84,0,1.26a1.79,1.79,0,0,0,0,.23,5.83,5.83,0,0,1-.08.83c0,.07,0,.09-.11.09-.27,0-.53.08-.79.12a5.65,5.65,0,0,1-1.23.07c-.33,0-.67,0-1,0h-.08c-.09.13-.23.08-.35.08-.28,0-.55,0-.82,0l-1.38,0H26.69c-.08,0-.19,0-.25,0s0,0,0,0-.22,0-.33,0-.18.06-.14.2a.89.89,0,0,1,.07.46,1,1,0,0,0,0,.38,3.44,3.44,0,0,1,0,.64,2.6,2.6,0,0,0,.05.39,9.4,9.4,0,0,1,.21,1,1.67,1.67,0,0,0,.08.3s0,0,0,.07a.09.09,0,0,0,0,.13,1,1,0,0,0,.16.19h.06c.06-.09.12-.07.2,0a.09.09,0,0,0,.1,0c.06-.08.15-.06.22-.06h.49c.08,0,.17,0,.24.06s.07,0,.11,0c.35,0,.69,0,1,0s.51,0,.76,0a2.19,2.19,0,0,1,.36,0,1.12,1.12,0,0,0,.37,0c.13,0,.25,0,.38,0a1.58,1.58,0,0,1,.38,0,2.65,2.65,0,0,0,.48.07h.66c.06,0,.12,0,.16.06s.07,0,.11,0a2.76,2.76,0,0,1,.69.08c.05,0,.14,0,.22,0a1,1,0,0,1,.49,0,1.94,1.94,0,0,0,.42.07,1.78,1.78,0,0,1,.39.07,1.15,1.15,0,0,0,.46,0,.21.21,0,0,1,.21.05s0,0,.08,0a1.87,1.87,0,0,1,.48,0,3,3,0,0,0,.51.08l.24,0a.59.59,0,0,1,.25.05,1.17,1.17,0,0,0,.38,0c.06,0,.13,0,.18.06s.1,0,.15,0a1.79,1.79,0,0,1,.46,0l.14,0a.59.59,0,0,0,.29.07.16.16,0,0,1,.17,0s0,0,.08,0c.21,0,.4.13.61.14a.77.77,0,0,1,.31.11,1.47,1.47,0,0,0,.35.08l.44.1a2.72,2.72,0,0,1,.44.18s0,0,.06,0a2.38,2.38,0,0,1,.82.3c.08,0,.19,0,.28.11A.35.35,0,0,1,42.48,43.14ZM15.27,32.39a.5.5,0,0,0,0-.21,2.63,2.63,0,0,1-.06-.48,4.76,4.76,0,0,0-.1-.52c0-.13-.08-.25-.09-.39a1.35,1.35,0,0,0,0-.28c0-.07-.1-.14-.09-.22s-.12-.32-.14-.49a1,1,0,0,0-.09-.28c-.09-.19-.19-.37-.28-.56A2.18,2.18,0,0,0,14,28.3s0,0,0-.06c-.1-.2-.22-.38-.3-.58a3.9,3.9,0,0,0-.28-.49c-.15-.24-.28-.49-.44-.73a1.88,1.88,0,0,1-.22-.45,5.7,5.7,0,0,0-.43-.76c-.05-.09-.07-.19-.13-.28a4.21,4.21,0,0,1-.3-.55c-.09-.17-.13-.35-.21-.52a5,5,0,0,1-.38-.92c0-.11-.11-.18-.11-.29a.21.21,0,0,0-.06-.18.3.3,0,0,1-.08-.14c-.09-.32-.21-.63-.3-1a2.57,2.57,0,0,1-.11-.48.9.9,0,0,0-.07-.39c-.09-.17,0-.37-.11-.56A7.34,7.34,0,0,1,10.3,19c0-.16,0-.33-.07-.49s0-.28,0-.42,0-.1-.06-.1-.18-.09-.28,0-.07,0-.12,0a.32.32,0,0,0-.3,0s-.06,0-.08,0-.33.05-.5,0-.56,0-.84,0a.36.36,0,0,0-.14,0c-.08,0-.17.05-.23,0a1,1,0,0,0-.39,0,.25.25,0,0,0-.27.28v1.32c0,.12,0,.24.07.34s0,.05,0,.07a2.66,2.66,0,0,0,.1,1c.07.17,0,.36.1.55a.87.87,0,0,1,.05.4.08.08,0,0,0,0,.1c.08.06,0,.19.13.25s.11.35.13.55a2.49,2.49,0,0,0,.18.63c.07.18.07.38.13.56a2.36,2.36,0,0,1,.14.65s0,.07,0,.09.05.15.08.22,0,.23.11.29,0,0,0,.05a.31.31,0,0,0,.1.24c0,.07.08.15.13.22s.05.19.1.24a2.91,2.91,0,0,1,.23.42c.12.2.26.39.36.6s.22.25.31.4.22.21.25.37.11.16.18.23a1.77,1.77,0,0,1,.16.22,3.76,3.76,0,0,0,.32.46c.2.24.42.46.64.68.06.06.08.14.13.18.21.14.36.34.56.49s.08.11.15.14a5.52,5.52,0,0,1,.62.46l.76.55a3.06,3.06,0,0,1,.61.4.57.57,0,0,0,.22.15c.25.1.45.27.69.37A1.1,1.1,0,0,0,15.27,32.39ZM29.06,21.15a.28.28,0,0,0,.14.22,5.9,5.9,0,0,1,.49.51,12.37,12.37,0,0,1,.79,1,1,1,0,0,1,.15.2,4.63,4.63,0,0,0,.39.59,5.48,5.48,0,0,1,.52.91c.12.23.21.47.34.69a2.87,2.87,0,0,1,.28.68s0,0,0,.07a3.44,3.44,0,0,1,.41.89c.13.32.22.67.36,1s.14.54.23.8a3.36,3.36,0,0,1,.2.77,1.6,1.6,0,0,0,.09.41,1.22,1.22,0,0,1,.12.57s0,.07,0,.11a4.06,4.06,0,0,1,.14.71.25.25,0,0,0,0,.12,1.52,1.52,0,0,1,.16.54c0,.09,0,.17.06.25a.09.09,0,0,0,.07.06c.2.07.42.07.62.12s.24-.07.36,0,.16,0,.23,0a3.23,3.23,0,0,1,.76-.1h.11c.36-.07.72-.07,1.07-.15S37.73,32,38,32l.62-.1.18,0c.06,0,.09,0,.07-.12a2.54,2.54,0,0,1-.16-.6c0-.32-.21-.6-.22-.92,0,0,0,0,0,0s0-.22-.1-.33a1,1,0,0,1-.12-.35.17.17,0,0,0,0-.12,2.74,2.74,0,0,1-.23-.53,3.63,3.63,0,0,0-.48-.94,1.35,1.35,0,0,0-.28-.36c0-.2-.21-.27-.27-.44a1.7,1.7,0,0,0-.33-.43c-.13-.14-.19-.35-.37-.45,0,0,0-.05,0-.07a.83.83,0,0,0-.19-.27.29.29,0,0,1-.12-.15c0-.17-.25-.21-.27-.38s-.22-.28-.37-.39-.1-.17-.17-.23-.23-.24-.33-.36-.53-.46-.74-.73a.28.28,0,0,0-.1-.09,1.56,1.56,0,0,1-.4-.27,3,3,0,0,0-.48-.31l-.3-.2a2.55,2.55,0,0,1-.39-.24.38.38,0,0,0-.13-.1c-.2,0-.31-.15-.46-.24s-.16-.15-.26-.17-.27-.15-.43-.15a.18.18,0,0,1-.12-.05l-.37-.24a1.22,1.22,0,0,0-.49-.15,4.11,4.11,0,0,1-.57-.17A.68.68,0,0,0,29.06,21.15ZM24.56,40.6a2,2,0,0,0-.09-.42c0-.24-.09-.48-.13-.72-.07-.46-.19-.92-.23-1.38A9.77,9.77,0,0,1,24.05,37c0-.23,0-.34-.32-.33h-.09c-.07,0-.15,0-.2-.06s-.07,0-.11,0l-.35,0c-.07,0-.16,0-.2,0s-.09-.05-.15-.05a1.61,1.61,0,0,1-.72-.09h-.06a4.26,4.26,0,0,1-.49-.1,3.32,3.32,0,0,0-.63-.11c-.3,0-.58-.15-.88-.15a.19.19,0,0,1-.14,0,.18.18,0,0,0-.2-.05c-.1,0-.1-.11-.19-.1h0a1.1,1.1,0,0,1-.54-.08c-.13-.06-.28,0-.41-.11s-.28,0-.39-.12c-.18,0-.34-.09-.51-.12s-.27,0-.33.19a2.62,2.62,0,0,0-.18.56.11.11,0,0,1,0,.08c-.07.1-.06.24-.12.32a.68.68,0,0,0-.13.32,2.8,2.8,0,0,1-.29.69.49.49,0,0,0-.08.21,1.35,1.35,0,0,1-.21.51,1.45,1.45,0,0,0-.22.49.39.39,0,0,1,0,.14.3.3,0,0,0-.08.16.58.58,0,0,1-.12.28.3.3,0,0,0-.08.16.74.74,0,0,1-.19.32c-.14.17-.26.36-.4.54s0,.1.05.1a1.71,1.71,0,0,1,.45,0,.1.1,0,0,0,.09,0,.66.66,0,0,1,.24,0c.2,0,.4.05.61.05.42,0,.84,0,1.26,0a1,1,0,0,1,.38,0c.07,0,.18,0,.28,0a5.43,5.43,0,0,0,.7,0c.1,0,.14,0,.14-.15s0-.37,0-.56c0-.46,0-.93,0-1.39s.09-.68.07-1c0-.11.07-.16.16-.09s.07.05.11,0,0,0,0,0,.11,0,.17,0h.88c.19,0,.19,0,.19.18s0,.2,0,.3,0,.21,0,.31a.42.42,0,0,0,0,.27c0,.66,0,1.33,0,2,0,.08,0,.11.1.11l.8,0h2.66A.53.53,0,0,0,24.56,40.6ZM21,16.37a.45.45,0,0,1,0,.2.19.19,0,0,0,.09.18c.12.05.22.16.36.16a.27.27,0,0,1,.15,0,2.88,2.88,0,0,0,.59.18,4.23,4.23,0,0,1,.85.28,3,3,0,0,0,.37.17c.22.08.43.19.65.27a2.69,2.69,0,0,1,.6.27c.12.08.23,0,.22-.15a.22.22,0,0,1,0-.11c.08-.26,0-.54.1-.79s0-.41,0-.62L25,16a2,2,0,0,0,0-.35,3.16,3.16,0,0,1-.05-.68,8.86,8.86,0,0,0-.13-.9c0-.19-.12-.37-.13-.55a4.3,4.3,0,0,0-.22-.8c-.06-.16-.11-.33-.16-.5a1.83,1.83,0,0,0-.18-.46l-.35-.57a8.2,8.2,0,0,1-.43-.76,3.16,3.16,0,0,0-.44-.64,4.59,4.59,0,0,0-.72-.74c-.12-.1-.22-.22-.35-.32s-.39-.24-.57-.38-.1-.11-.17-.07,0,.12,0,.17a6.18,6.18,0,0,0,.07.62,2.17,2.17,0,0,1,0,.44,2.72,2.72,0,0,0,0,.3,1.19,1.19,0,0,1,.07.59.18.18,0,0,0,0,.16,2.51,2.51,0,0,1,.07.62,2.56,2.56,0,0,1,0,.62.25.25,0,0,0,0,.15,1.33,1.33,0,0,1,.07.56c0,.08,0,.17,0,.25v.88c0,.05,0,.11,0,.15s0,.14,0,.21a2.17,2.17,0,0,1,0,.25,4.46,4.46,0,0,0-.07.51c0,.21-.05.4-.07.61S21,16,21,16.37Zm6,18.41h.14c.18,0,.19,0,.2-.18s-.06-.3-.05-.44-.07-.43-.08-.65a2.73,2.73,0,0,0-.06-.49c0-.15,0-.31-.12-.44a.08.08,0,0,1,0-.07,1.79,1.79,0,0,0-.14-.79c-.07-.27-.12-.54-.18-.81s0-.54-.09-.81l-.12-.73a2,2,0,0,1-.06-.49,1.5,1.5,0,0,0-.1-.56,1.55,1.55,0,0,1-.06-.31.85.85,0,0,0,0-.23,1.3,1.3,0,0,1-.07-.48c0-.1,0-.2,0-.31s-.08-.09-.08-.17c0-.27-.09-.53-.08-.8a.32.32,0,0,0,0-.09c-.05-.12-.07-.12-.17,0a3.87,3.87,0,0,0-.35.45c-.2.24-.31.55-.49.81s-.31.65-.49,1A5.23,5.23,0,0,1,24,29l0,.07a.18.18,0,0,0,0,.16,4.91,4.91,0,0,1,.17.93,1.75,1.75,0,0,0,0,.32,2.1,2.1,0,0,1,.08.7.54.54,0,0,0,0,.22.75.75,0,0,1,0,.26.81.81,0,0,0,0,.38c0,.12,0,.26,0,.37.1.32.06.65.13,1s.05.69.11,1a.25.25,0,0,0,.26.23,1.92,1.92,0,0,1,.24,0,.9.9,0,0,1,.46.06s.05,0,.08,0a.07.07,0,0,1,.1,0s.08,0,.12,0C26.26,34.74,26.63,34.76,27,34.78Zm4.49.34h.22c.13,0,.16,0,.15-.16a5.43,5.43,0,0,0,0-.57c0-.28,0-.56,0-.84s0-.46-.07-.7-.1-.53-.12-.8a2.8,2.8,0,0,0,0-.5,4,4,0,0,0-.17-.84.06.06,0,0,1,0,0c0-.25-.13-.47-.14-.72-.09-.07-.05-.18-.07-.27a.75.75,0,0,0-.54-.65,2.08,2.08,0,0,1-.5-.24,3.29,3.29,0,0,0-.54-.34c-.15-.06-.29-.14-.44-.21s-.18-.17-.3-.21-.39-.22-.59-.32c0,0-.08-.08-.14,0a.11.11,0,0,0,0,.16c.1.26.12.53.21.79a4.13,4.13,0,0,1,.15.78c.05.26,0,.53.08.79a3.15,3.15,0,0,0,.11.55,1.86,1.86,0,0,1,.1.58c0,.22,0,.45,0,.69a2.38,2.38,0,0,0,.12.59.56.56,0,0,1,0,.31c0,.11.07.19.07.3s0,.43,0,.65A.57.57,0,0,0,29,34a3,3,0,0,1,.09.73c0,.22.08.3.3.36a.57.57,0,0,0,.29,0A1.38,1.38,0,0,0,30,35c.11,0,.18.07.28.07A8.43,8.43,0,0,1,31.5,35.12ZM18.43,27.44c.09,0,.12,0,.12-.11a.75.75,0,0,0,0-.15,3.23,3.23,0,0,0,0-.44c0-.16.07-.29.08-.44a.8.8,0,0,1,.06-.3,2.67,2.67,0,0,0,.14-.67c0-.31.14-.6.19-.9a2.71,2.71,0,0,0,.09-.41.17.17,0,0,1,0-.12.31.31,0,0,0-.1-.41,1.52,1.52,0,0,1-.22-.22c-.12-.16-.29-.27-.4-.44a4.23,4.23,0,0,0-.34-.4c-.11-.12-.24-.24-.34-.37s-.29-.43-.45-.64a1.65,1.65,0,0,0-.15-.25c-.06-.06-.14-.05-.16,0a.92.92,0,0,1-.18.3c-.1.13-.21.26-.3.4a2.53,2.53,0,0,1-.42.5,1.12,1.12,0,0,0-.27.31.52.52,0,0,1-.29.29s-.07,0-.09.06l-.66.72s0,.14-.1.14-.3.24-.48.3-.11.1-.07.2a2.48,2.48,0,0,0,.17.37.7.7,0,0,0,.3.36.92.92,0,0,1,.31.2c.25.29.59.48.86.74a3.94,3.94,0,0,0,.71.5c.07,0,.14.11.21.15a6.06,6.06,0,0,1,.85.41s.05,0,.07,0a5.67,5.67,0,0,0,.67.2A.58.58,0,0,0,18.43,27.44Zm1.7,2.24c0,.15,0,.32,0,.49,0,.38.15.73.13,1.11h0a1.86,1.86,0,0,1,.1.61c0,.17,0,.35.05.52s.05.31.09.46a2.46,2.46,0,0,1,.09.39c0,.24.13.47.16.71a.23.23,0,0,0,.12.21,1,1,0,0,0,.33.07c.05,0,.12,0,.15,0s.17.07.27.08a1.93,1.93,0,0,1,.42,0,4.39,4.39,0,0,0,.72.07c.2,0,.25,0,.21-.25,0,0,0,0,0-.06a2.49,2.49,0,0,1-.13-.86,7.77,7.77,0,0,0-.08-1,2.76,2.76,0,0,0-.14-.76,1.7,1.7,0,0,1-.09-.5,6.56,6.56,0,0,0-.14-.87.44.44,0,0,1-.06-.16c0-.37-.11-.72-.12-1.09v-.06c0-.26-.09-.52-.11-.79,0-.11,0-.25-.11-.32a5.85,5.85,0,0,1-.54-.45,4,4,0,0,1-.67-.76.91.91,0,0,0-.18-.21c-.05-.07-.1-.06-.13,0a2.8,2.8,0,0,0-.12.5c0,.1-.08.18-.08.28a4.58,4.58,0,0,1-.05.63,1.69,1.69,0,0,1,0,.32,2.35,2.35,0,0,0,0,.45C20.16,28.92,20.12,29.29,20.13,29.68Zm16.19,13.8a4.47,4.47,0,0,0,1-.1l0,0a3.5,3.5,0,0,0,.45-.07,1.13,1.13,0,0,1,.52,0c.05,0,.12,0,.16,0s.15,0,.23-.06h.2s0,0,0,0a0,0,0,0,0,0,0,.75.75,0,0,1-.2,0A2,2,0,0,0,38,43c-.23,0-.45,0-.67,0,0,0-.06,0-.07,0s-.09,0-.15,0c-.34,0-.68,0-1,0,0,0-.12,0-.15,0s-.22,0-.34-.07-.2,0-.3,0-.43,0-.62-.08h0c-.34,0-.67-.06-1,0h-.1c-.13-.11-.29-.06-.44-.07a2.36,2.36,0,0,0-.46,0c-.15,0-.29-.11-.43,0h0c0-.1-.13-.06-.2-.06-.27,0-.54-.06-.81,0,0,0-.06,0-.07,0s-.18-.06-.28-.06H28.6a.87.87,0,0,1-.32-.06.65.65,0,0,0-.51,0,.25.25,0,0,1-.25,0,.21.21,0,0,0-.29,0,.2.2,0,0,1-.23,0c-.07-.07-.1,0-.16,0a.8.8,0,0,0-.13.19,5.24,5.24,0,0,0-.23.48c-.07.19-.22.32-.28.52a.73.73,0,0,1-.11.26.1.1,0,0,0,.05.16,1.16,1.16,0,0,0,.32.08h.79c.1,0,.2-.06.29,0a2.2,2.2,0,0,0,.62,0,2.68,2.68,0,0,0,.49,0c.15,0,.31.07.45-.05.13.07.26,0,.4,0l.43,0,1.78,0h.6s.11,0,.13,0,.18-.06.28-.06c.35,0,.7,0,1.05,0,0,0,.08,0,.1,0s.09,0,.15,0a1.15,1.15,0,0,0,.26,0,5.93,5.93,0,0,0,.72-.1,2,2,0,0,1,.6,0c.12,0,.25,0,.36-.06s.06,0,.09,0ZM14.13,17.84a8.42,8.42,0,0,0-1,.08c-.09,0-.15.06-.15.15s0,.27,0,.41,0,.22-.06.32a.16.16,0,0,0,0,.16.2.2,0,0,1,0,.24.35.35,0,0,0,0,.22c0,.39,0,.78,0,1.17a1.35,1.35,0,0,0,0,.45.52.52,0,0,1,0,.44s0,.05,0,.06,0,.09,0,.14a1.58,1.58,0,0,0,.1.56c0,.07.07.15.1.23s0,.12.15.08.41-.33.64-.47.27-.28.43-.39.4-.41.63-.6a2.77,2.77,0,0,0,.39-.54c.11-.18.18-.37.28-.55a5.64,5.64,0,0,0,.29-.78c0-.06,0-.14,0-.18.13-.2.12-.45.26-.64s0-.22,0-.33a0,0,0,0,0,0,0c-.14,0-.27-.14-.43,0a.14.14,0,0,1-.14,0,4.16,4.16,0,0,0-.77-.14C14.66,17.81,14.4,17.9,14.13,17.84Zm8.55,3a.34.34,0,0,0-.13.18.43.43,0,0,1-.13.17,1.5,1.5,0,0,0-.23.41,1.89,1.89,0,0,1-.09.21A.46.46,0,0,0,22,22a.29.29,0,0,1-.11.16,3.82,3.82,0,0,0-.45.53c-.05.08-.07.19-.17.25a.24.24,0,0,0-.13.32c0,.11.1.21.14.32a2.6,2.6,0,0,0,.16.44,3.65,3.65,0,0,0,.14.35,4.31,4.31,0,0,1,.33.64,3.6,3.6,0,0,0,.56.82l.13.15.38.35a1.45,1.45,0,0,0,.35.24c.09-.22.24-.4.31-.63a4,4,0,0,1,.33-.61,4.9,4.9,0,0,1,.42-.78c.05-.06.05-.15.1-.21s.17-.28.27-.42a.17.17,0,0,0,0-.23c-.1-.11-.22-.21-.31-.33s-.17-.21-.25-.31-.22-.24-.3-.37-.2-.25-.29-.39a6.74,6.74,0,0,0-.42-.62c0-.06,0-.15-.09-.21a.85.85,0,0,1-.23-.44A.28.28,0,0,0,22.68,20.84ZM18,18.48a1.13,1.13,0,0,0,0,.18,5.82,5.82,0,0,1,.14.6,1.85,1.85,0,0,0,.17.61,1.14,1.14,0,0,1,.15.34,2.34,2.34,0,0,0,.37.8c.1.17.2.33.31.49a4.89,4.89,0,0,0,.55.72c.1.09.13.1.2,0a3.79,3.79,0,0,1,.38-.42s0-.05.06-.09a.5.5,0,0,1,.16-.28c0-.07.12-.1.15-.17a1.3,1.3,0,0,1,.29-.44.65.65,0,0,0,.13-.16,4.57,4.57,0,0,0,.35-.7.08.08,0,0,1,0-.05c.09-.05.1-.13.11-.22s0,0,0-.06c.13-.19.18-.42.31-.62a.09.09,0,0,0,0-.13.23.23,0,0,0-.18-.08,2.51,2.51,0,0,1-.27,0c-.08,0-.13-.09-.22-.07a2.43,2.43,0,0,1-.66-.07c-.24,0-.48-.09-.73-.08l-.09,0c-.19-.07-.35-.21-.57-.2,0,0,0,0-.06,0a.23.23,0,0,0-.2-.06,3.89,3.89,0,0,1-.59,0C18.1,18.14,18,18.27,18,18.48ZM12.49,6.82a4.63,4.63,0,0,1-.91,0h0a4.92,4.92,0,0,1-.67.1c-.12,0-.14,0-.08.16s.24.17.26.34.11.2.22.25c.1.29.36.49.48.77l0,0a.9.9,0,0,1,.28.51.13.13,0,0,0,0,.06,1.31,1.31,0,0,1,.27.57,1.26,1.26,0,0,1,.13.63.06.06,0,0,0,0,.06c.12.17.07.38.12.57a1.52,1.52,0,0,1,.1.48s0,.08.07.07,0,0,0-.07a3.49,3.49,0,0,1,.07-.43,2.07,2.07,0,0,1,.15-.44,7.56,7.56,0,0,1,.47-.89.32.32,0,0,0,0-.09c0-.13.18-.22.16-.38,0,0,0,0,0,0A2.31,2.31,0,0,0,14,8.71a2.06,2.06,0,0,1,.25-.4l.65-.82a1.86,1.86,0,0,1,.22-.27.51.51,0,0,0,.12-.2c0-.11,0-.15-.1-.16H15c-.58,0-1.16,0-1.74,0A2.83,2.83,0,0,1,12.49,6.82Zm3.69,21.49c0,.11.08.13.09.2.06.24.25.44.25.7,0,0,0,0,.05.06a.69.69,0,0,1,.1.19,3.63,3.63,0,0,1,.21.58c0,.1.07.2.08.3a3.25,3.25,0,0,0,.17.63,3.23,3.23,0,0,1,.2,1c0,.36.07.73.09,1.09a.37.37,0,0,0,.24.36,2.59,2.59,0,0,0,.45.14c.06,0,.14,0,.16,0s.22,0,.3.13.21,0,.31,0c.28,0,.32,0,.27-.29l0,0a3,3,0,0,1-.08-.39A4,4,0,0,1,19,32.4a1.07,1.07,0,0,0-.08-.46,1.47,1.47,0,0,1-.06-.42v-.37s0-.1,0-.13,0-.15,0-.23a1.13,1.13,0,0,0,0-.18,3.08,3.08,0,0,1-.13-.93.17.17,0,0,0,0-.07c-.09-.11-.06-.25-.09-.37s-.08-.26-.28-.3a7.11,7.11,0,0,1-.9-.26,4.54,4.54,0,0,0-.61-.24.65.65,0,0,1-.28-.08A.37.37,0,0,0,16.18,28.31Zm.44-17.73a2.21,2.21,0,0,0-.62.13c-.1,0-.2,0-.28.13a3.84,3.84,0,0,1-.61.45.47.47,0,0,0-.22.36.32.32,0,0,1-.06.15.27.27,0,0,0-.05.21.15.15,0,0,1,0,.13.45.45,0,0,0,.05.36.28.28,0,0,1,0,.12,1,1,0,0,0,.41.65c.06.07.13.13.18.2a1.18,1.18,0,0,0,.53.38,2.09,2.09,0,0,1,.36.08,2.8,2.8,0,0,0,1,0l.05,0a.59.59,0,0,1,.29-.1.25.25,0,0,0,.12,0c.13-.11.28-.17.41-.27a.22.22,0,0,0,.07-.06,3.88,3.88,0,0,1,.26-.31,1.35,1.35,0,0,0,.33-.45,2.26,2.26,0,0,0,.11-.43c0-.26-.17-.44-.21-.67-.13-.07-.18-.23-.3-.3s-.34-.27-.52-.39a1.94,1.94,0,0,0-.72-.25,2.43,2.43,0,0,1-.4,0A1.17,1.17,0,0,0,16.62,10.58ZM30.4,27.16c0-.08-.06-.18-.1-.28a3.94,3.94,0,0,1-.26-.55,7.28,7.28,0,0,0-.31-.77c-.05-.14-.17-.26-.21-.4s-.27-.45-.36-.7c0-.05-.09-.05-.1-.12,0-.27-.31-.41-.43-.64h0c-.05,0-.05-.06-.07-.1a1.83,1.83,0,0,0-.42-.5c-.07-.05-.1,0-.15,0a4.79,4.79,0,0,1-.47.43l0,0L27,24.2s-.06.07,0,.12.13.25.23.34.28.48.49.67c0,0,0,.14.09.18s.26.25.42.35.16.09.2.16.3.25.44.38a4.08,4.08,0,0,0,.61.36l.22.13c.18.14.41.21.59.34l.08,0C30.39,27.25,30.4,27.22,30.4,27.16Zm-17.84,17h.22c.13,0,.14,0,.13-.14a2.51,2.51,0,0,0-.17-.61,1.54,1.54,0,0,1-.15-.69c0-.08,0-.18,0-.25s0-.08,0-.12,0-.17-.06-.19-.12-.1-.21-.1c-.39,0-.78-.05-1.17,0A3,3,0,0,1,10.2,42a.18.18,0,0,0-.23.18v.26a1,1,0,0,1,0,.35,1,1,0,0,0-.05.34,1,1,0,0,1,0,.24,1,1,0,0,0,.07.69.2.2,0,0,0,.21.14,8.66,8.66,0,0,1,1.25,0c.15,0,.28,0,.43,0h.37C12.34,44.17,12.46,44.19,12.56,44.19Zm-1.69-32v-.39c0-.31-.19-.52-.33-.77l0,0-.74-.53a.24.24,0,0,0-.09,0,3.63,3.63,0,0,0-.57,0c-.27.05-.53.15-.8.2a2.65,2.65,0,0,0-.44.17,1,1,0,0,0-.32.25s-.13.1-.13.15-.11.18-.17.25a.19.19,0,0,0,0,.1,4.81,4.81,0,0,0-.13.68.17.17,0,0,0,0,.12,2.5,2.5,0,0,0,.39.53c.18.15.3.36.53.45H8c.08.2.27.23.45.3a1.06,1.06,0,0,0,.39.09,1.94,1.94,0,0,1,.24,0,1.91,1.91,0,0,0,1.1-.23c.16-.09.38-.14.43-.37.11-.05.06-.18.12-.24a.5.5,0,0,0,.11-.4Zm5.25-2.8a.55.55,0,0,0,.31,0s.09,0,.12,0a.06.06,0,0,0,.07,0c.25-.15.51,0,.76-.06a2.28,2.28,0,0,0,.45.11.58.58,0,0,1,.18.08.18.18,0,0,0,.15.05,1,1,0,0,1,.17,0,3.36,3.36,0,0,1,.42.22.31.31,0,0,1,.13.1,1.09,1.09,0,0,0,.26.21s.09.05.14,0,0-.09,0-.14-.06-.09-.05-.16a2.17,2.17,0,0,0-.09-.67C19.11,9,19,8.75,19,8.5a1.28,1.28,0,0,0-.11-.31.27.27,0,0,1,0-.12.85.85,0,0,0-.08-.39,4.49,4.49,0,0,0-.41-.82.19.19,0,0,0-.32,0,2.89,2.89,0,0,1-.33.45,3.1,3.1,0,0,0-.47.55A.69.69,0,0,1,17,8.1a.63.63,0,0,0-.32.34c0,.05-.06.09-.1.13s-.21.19-.23.3A3.07,3.07,0,0,1,16.12,9.37ZM15.49,15c0,.29.3.38.42.59l0,0a1,1,0,0,1,.27.15c.22.11.46.19.69.29a5.12,5.12,0,0,1,.53.25.75.75,0,0,0,.24.08c.34,0,.68,0,1,.07a3.09,3.09,0,0,0,.43,0,.15.15,0,0,0,.17-.13c0-.17,0-.35.08-.52s0-.28,0-.42a1.82,1.82,0,0,1,0-.4,2.08,2.08,0,0,0,.05-.36.14.14,0,0,0-.05-.16c-.05,0-.09,0-.13,0h0a1.7,1.7,0,0,0-.45.26,5.69,5.69,0,0,0-.69.25,2.74,2.74,0,0,1-.69.1.67.67,0,0,0-.31,0,.36.36,0,0,1-.25,0,1.44,1.44,0,0,0-.46-.05,1.57,1.57,0,0,1-.8-.12A.12.12,0,0,0,15.49,15Zm-1,1.26c.05,0,.06,0,.07,0a.12.12,0,0,0,.12-.08s0-.07-.06-.1l-.3-.27c-.16-.14-.24-.35-.43-.47a.42.42,0,0,1-.12-.15,1.19,1.19,0,0,0-.26-.33.33.33,0,0,1-.12-.19.77.77,0,0,0-.16-.31.91.91,0,0,1-.18-.47s0-.1,0-.12a.84.84,0,0,1-.18-.45s0,0-.06,0a0,0,0,0,0-.05,0l0,.11a3.15,3.15,0,0,1-.11.44,2.5,2.5,0,0,1-.3.64,1.85,1.85,0,0,1-.23.34.55.55,0,0,0-.17.23.73.73,0,0,1-.3.35.36.36,0,0,0-.14.18.37.37,0,0,1-.27.27c-.11,0,0,.16-.11.19s.07.08.14.07h2.07a.7.7,0,0,1,.35.05.19.19,0,0,0,.18,0c.06-.05.12,0,.19,0S14.39,16.19,14.52,16.26Zm9.31,3.36a.66.66,0,0,0,0,.27c.1.16.15.35.24.52l.18.38a4.34,4.34,0,0,1,.28.46.56.56,0,0,0,.19.31.26.26,0,0,1,.11.17.45.45,0,0,0,.12.16,6.86,6.86,0,0,1,.68.74.11.11,0,0,0,.17,0c.1-.21.3-.34.4-.54s.21-.23.29-.36.08-.2-.06-.31l-.4-.34c-.18-.16-.37-.3-.54-.46a5.9,5.9,0,0,0-.73-.5c-.22-.14-.44-.26-.67-.39A.55.55,0,0,0,23.83,19.62ZM20.72,42.44c-.24,0-.46-.06-.69,0H19.3c-.08,0-.19,0-.24,0a.18.18,0,0,0-.22,0,.21.21,0,0,0-.11.24,3.72,3.72,0,0,1,.11.94,0,0,0,0,0,0,0c.06.21.1.43.18.64a4.35,4.35,0,0,0,.32.65,2.09,2.09,0,0,0,.21.34.08.08,0,0,0,.09,0c.05,0,.05,0,.05-.08a.33.33,0,0,1,.08-.18.18.18,0,0,0,0-.12c0-.2.12-.38.1-.58,0,0,0-.05,0-.08a5.24,5.24,0,0,0,.31-.68,4.38,4.38,0,0,1,.31-.7A.61.61,0,0,0,20.72,42.44Zm3.07-.12a.49.49,0,0,0-.36.12c-.07.05,0,.18,0,.28v0a5.34,5.34,0,0,0,.05.69,4.14,4.14,0,0,1,.15.68.41.41,0,0,0,.1.27,1.88,1.88,0,0,1,.21.36,2.31,2.31,0,0,0,.32.45s.1,0,.12,0a1.18,1.18,0,0,0,.06-.27.64.64,0,0,1,0-.34,1.6,1.6,0,0,0,.14-.42L24.7,44a2.14,2.14,0,0,0,.18-.54c0-.11,0-.25.08-.34a1.42,1.42,0,0,0,.29-.54c.05-.14,0-.16-.12-.16h-.78a1,1,0,0,1-.31,0A.7.7,0,0,0,23.79,42.32ZM7.49,43.87a4.69,4.69,0,0,0,.75,0c.13,0,.17,0,.17-.16a4.86,4.86,0,0,0,0-.54,1.54,1.54,0,0,0,0-.37s0-.08-.06-.08a2.07,2.07,0,0,0-.5,0,.12.12,0,0,0-.1.11.42.42,0,0,1,0,.2,2.22,2.22,0,0,1-.25.35.73.73,0,0,1-.39.2,2.55,2.55,0,0,1-.48,0,.56.56,0,0,1-.45-.25c-.07-.08-.07-.18-.15-.25a.42.42,0,0,1-.15-.3c0-.19-.1-.24-.3-.24H4.91s-.11,0-.13,0-.16.06-.24.06H4.39c-.11,0-.13,0,0,.13s.18.34.36.44v0a1.07,1.07,0,0,0,.14.39c.07.18.09.21.29.21H6.59s.12,0,.16,0,.13,0,.21,0Zm8.26-1.66h-1.6c-.08,0-.15.07-.23.07a.08.08,0,0,0-.05,0,.41.41,0,0,0,0,.27,1.41,1.41,0,0,1,.09.32,5.27,5.27,0,0,0,.14.69.58.58,0,0,0,.09.27c.09.11.09.26.17.38a.72.72,0,0,1,.12.25.37.37,0,0,0,.1.17c.08.08.1.08.15,0a1,1,0,0,0,.09-.33c0-.1.1-.15.1-.26a.44.44,0,0,1,.1-.32,1.18,1.18,0,0,0,.12-.28q.17-.41.36-.78A4.87,4.87,0,0,0,15.75,42.21ZM7.2,16.2a.65.65,0,0,1,.34-.06s0,0,.06,0,.07-.05.11-.05A.44.44,0,0,0,7.86,16a1.14,1.14,0,0,1,.53-.17.44.44,0,0,0,.3-.13l.1-.07a3,3,0,0,0,.52-.4c.07-.06,0-.11-.05-.14L8.89,15a1.27,1.27,0,0,0-.46-.1c-.15,0-.29-.12-.44-.1l0,0c-.06-.13-.18-.13-.29-.17a1.76,1.76,0,0,1-.37-.17c-.12-.09-.2,0-.2.11,0,.4,0,.79,0,1.18,0,.05,0,.13,0,.16s0,.09,0,.13a.29.29,0,0,0,0,.18S7.15,16.19,7.2,16.2Zm2.89-7.13a3,3,0,0,0-.32-.59L9.41,8A5.3,5.3,0,0,1,9,7.61a1,1,0,0,0-.2-.21c-.11-.09-.19-.07-.23.07l0,.09c0,.13-.12.24-.16.36a.84.84,0,0,0-.11.38s0,0,0,0a.1.1,0,0,0-.07.12c0,.13-.08.21-.13.3s0,.23-.06.32,0,.05,0,.06H8.1A2.3,2.3,0,0,0,8.63,9,1.64,1.64,0,0,1,9.7,9,.57.57,0,0,0,10.09,9.07Zm7,35h.39c.12,0,.15,0,.11-.16a1.32,1.32,0,0,0-.08-.33.6.6,0,0,1-.06-.23c0-.22-.06-.44-.07-.66,0,0,0-.07,0-.08s-.06,0-.08,0a3.39,3.39,0,0,0-.54.65,1.59,1.59,0,0,1-.3.5c-.05,0,0,.18,0,.19a1.38,1.38,0,0,0,.5.08ZM22.32,44a.15.15,0,0,0,0-.09,2.75,2.75,0,0,1-.14-.49s0,0,0-.06-.06,0-.08,0a5,5,0,0,0-.37.63c-.05.13,0,.2.13.18h.37C22.32,44.19,22.32,44.19,22.32,44Z"/><path d="M17.84,12.28a.8.8,0,0,1-.21.63,2.69,2.69,0,0,0-.26.33s-.05,0-.08,0a2.81,2.81,0,0,1-.39.19.75.75,0,0,1-.65,0,2,2,0,0,0-.37-.14.17.17,0,0,1-.13-.1,1.55,1.55,0,0,0-.19-.36.2.2,0,0,1,0-.15.53.53,0,0,0-.07-.28.43.43,0,0,1,0-.4.17.17,0,0,0,0-.07.42.42,0,0,1,.17-.29.2.2,0,0,0,.08-.08.59.59,0,0,1,.36-.26l.14-.05c.08-.06.15-.1.24,0s.06,0,.09,0a1.24,1.24,0,0,1,.54,0,.89.89,0,0,1,.6.41c0,.06.13.08.14.16A1.88,1.88,0,0,1,17.84,12.28Z"/><path d="M8.91,13.29a.55.55,0,0,1-.35-.1c-.16-.09-.35-.14-.45-.32a.18.18,0,0,1,0-.07c-.05-.18-.13-.34-.19-.51a.56.56,0,0,1,0-.34c0-.17.15-.32.19-.48s.06-.18.17-.21h0c.1-.18.3-.2.45-.3a.38.38,0,0,1,.36-.06.85.85,0,0,0,.32,0,.49.49,0,0,1,.23.06.8.8,0,0,1,.48.66c0,.13.06.25.07.39a1.41,1.41,0,0,1-.2.8s-.07,0-.1.08-.06,0-.07.09a.28.28,0,0,1-.25.21Z"/><path class="cls-9" d="M181.41,19.74h-7.28a5.37,5.37,0,0,1-3.23-.64v1c0,7.73,0,15.45,0,23.17,0,.67.16.85.84.85q10.35,0,20.69,0c.62,0,.81-.15.8-.79,0-2,.07-4,0-6,0-.9.27-1.12,1.06-1a6.51,6.51,0,0,0,.77,0c0,2.82,0,5.64,0,8.45,0,.87-.28,1.18-1.16,1.18-7.88,0-15.76,0-23.64,0-1,0-1.26-.23-1.27-1.3v-.39c0-1.45,0-1.46-1.39-1.58a.87.87,0,0,1-.9-.9,3.81,3.81,0,0,1,0-.48c0-.51.17-1.12,0-1.51s-.93-.13-1.41-.19a.86.86,0,0,1-.83-.87c0-.22,0-.45,0-.67,0-9.45,0-18.9,0-28.35a4.44,4.44,0,0,1,4.35-4.39c4.23.18,8.48,0,12.72,0,.41.56.13,1.18.18,1.77l-12.89.1a2.08,2.08,0,0,0-2.15,1.09A2.15,2.15,0,0,0,167,11a7.27,7.27,0,0,1,.47-.74,3.7,3.7,0,0,1,2.67-1.63c3.76,0,7.52,0,11.28,0v1.69l-10.51.12a2,2,0,0,0-2.06,1.07,2.26,2.26,0,0,0,.42,2.56c.28-.08.35-.35.51-.54a3.62,3.62,0,0,1,2.75-1.65c3,0,5.93,0,8.89,0l0,1.73c-.35,0-.7,0-1,0l-7.08.06a2.08,2.08,0,0,0-2.16,3,2,2,0,0,0,2,1.09h8.31Zm-14.83-6.87h-.19V37.78h.19Zm2.1,28h.17V15.94h-.17Z"/><path class="cls-10" d="M181.58,7.24c-.05-.59.23-1.21-.18-1.77a14.76,14.76,0,0,1,.23-1.77,1.68,1.68,0,0,1,1.71-1.27c5,0,10,0,15,0a1.16,1.16,0,0,1,.89.46q3.75,3.78,7.51,7.55a1.37,1.37,0,0,1,.52,1.06c0,7.43,0,14.86,0,22.29A11.72,11.72,0,0,1,205.54,32q0-9.53,0-19c0-.66-.22-.79-.81-.77-1.63,0-3.26,0-4.89,0a2.12,2.12,0,0,1-2.36-2.38c0-1.63,0-3.27,0-4.9,0-.6-.12-.82-.78-.81q-6.31,0-12.64,0c-.71,0-.93.2-.93.92q0,14.31,0,28.64c0,.78.28,1,1,1,5.17,0,10.34,0,15.51,0a4.58,4.58,0,0,1,0,1.65l-3.74.06-12.33-.1c-1.46,0-2-.57-2-2,0-3.55,0-7.11-.07-10.66.1-2.84.11-5.67,0-8.5,0-.44,0-.87,0-1.3a6.26,6.26,0,0,0,0-2V10.33a6.56,6.56,0,0,0,0-1.77ZM199.34,5.7V9.82c0,.27,0,.53.38.53H204Z"/><path class="cls-11" d="M205.54,32a11.72,11.72,0,0,0,1.71,1.74l1.16,1.29a4.43,4.43,0,0,0-1.48.28c-.35,0-.69,0-1,0-.67,0-.94.3-.5.93.76,1.44.73,1.38-.71,2.21-.78.45-1.09.38-1.45-.48-.64-1.57-.71-1.54-2-.44-.42.37-.86.73-1.37,1.16a17.43,17.43,0,0,1-.16-2.42,4.63,4.63,0,0,0,0-1.66V26.5l.44-.23Zm-2.12,2.6,2.35-.31-5.13-5.18v7.3c.12,0,.2,0,.24,0,.61-.49,1.25-1.42,1.8-1.36s.69,1.25,1.12,1.89c0,0,0,.07,0,.09.1.24.25.52.51.39s.34-.36.12-.71C204.07,36.09,203.79,35.39,203.42,34.63Z"/><path class="cls-12" d="M205.39,36.29c-.44-.63-.17-.9.5-.93.35,0,.69,0,1,0A1.57,1.57,0,0,1,205.39,36.29Z"/><path class="cls-13" d="M181.53,15.1c.11,2.83.1,5.66,0,8.5a26.17,26.17,0,0,1-.12-3.86V17.81A12.93,12.93,0,0,1,181.53,15.1Z"/><path class="cls-14" d="M166.58,12.87V37.78h-.19V12.86Z"/><path class="cls-14" d="M168.68,40.86V15.94h.17V40.86Z"/><path class="cls-13" d="M181.39,11.86a.21.21,0,0,1,.17,0,6.26,6.26,0,0,1,0,2c-.09,0-.17-.09-.13-.21C181.41,13,181.4,12.44,181.39,11.86Z"/><path class="cls-13" d="M181.57,10.33a.39.39,0,0,1-.18,0V8.6l.19,0A6.56,6.56,0,0,1,181.57,10.33Z"/><path class="cls-15" d="M191.86,17.23c2.1,0,4.2,0,6.3,0,.54,0,.71.14.7.69q0,3.16,0,6.33c0,.56-.16.7-.7.7q-6.41,0-12.81,0c-.53,0-.7-.15-.69-.7q0-3.16,0-6.33c0-.55.16-.7.7-.69C187.52,17.25,189.69,17.23,191.86,17.23Zm-2.63,6.64.14-.27c-1-.78-2.21-1.06-3.26-1.8,1.12-.75,2.41-1.05,3.3-2a34.35,34.35,0,0,0-4,1.85c-.16.09-.27.31,0,.44Zm4.8-.08.18.26c1.25-.62,2.5-1.22,3.73-1.85.47-.24.37-.5-.07-.71L194.59,20c-.14-.06-.3-.11-.41.17.94.77,2.18,1,3.22,1.76C196.31,22.67,195,22.91,194,23.79Zm-.47-5.94c-.39-.1-.55,0-.64.19l-2.67,5.9c-.06.14-.13.33.08.4s.34-.12.42-.3C191.68,22,192.61,20,193.56,17.85Z"/><path class="cls-16" d="M189.23,23.87l-3.81-1.81c-.27-.13-.16-.35,0-.44a34.35,34.35,0,0,1,4-1.85c-.89,1-2.18,1.28-3.3,2,1,.74,2.31,1,3.26,1.8Z"/><path class="cls-16" d="M194,23.79c.94-.88,2.28-1.12,3.37-1.91-1-.73-2.28-1-3.22-1.76.11-.28.27-.23.41-.17l3.28,1.54c.44.21.54.47.07.71-1.23.63-2.48,1.23-3.73,1.85Z"/><path class="cls-17" d="M193.56,17.85C192.61,20,191.68,22,190.75,24c-.08.18-.18.38-.42.3s-.14-.26-.08-.4l2.67-5.9C193,17.86,193.17,17.75,193.56,17.85Z"/></svg>