<svg xmlns="http://www.w3.org/2000/svg" id="Ebene_1" data-name="Ebene 1" viewBox="0 0 320 49.65">
    <defs>
        <style>.cls-1{fill:#048263;}.cls-2,.cls-3{fill:none;stroke:#048263;stroke-miterlimit:10;}.cls-2{stroke-width:1.05px;}.cls-3{stroke-width:1.95px;}.cls-4{fill:#010101;}.cls-5{fill:#228d6d;}.cls-6{fill:#050403;}.cls-7{fill:#25866a;}.cls-8{fill:#a6b6b8;}.cls-9{fill:#ebebeb;}.cls-10{fill:#238e6e;}.cls-11{fill:#eef6f3;}.cls-12{fill:#eff6f4;}</style>
    </defs>
    <path d="M91.1,23.57V12.23h4.4V13.4H92.68v3.75H95v1.12H92.68v4.16h2.84v1.14Z" transform="translate(0 -2.41)"/>
    <path d="M96.6,23.57V15.63h1.73a3,3,0,0,1,1.39.27,1.54,1.54,0,0,1,.74.81,3.44,3.44,0,0,1,.22,1.34V21a4,4,0,0,1-.22,1.42,1.75,1.75,0,0,1-.72.88,2.53,2.53,0,0,1-1.32.3Zm1.11-.8h.63a1.3,1.3,0,0,0,.86-.23,1.11,1.11,0,0,0,.31-.69c0-.3,0-.66,0-1.09V18.19a4.52,4.52,0,0,0-.08-1,.79.79,0,0,0-.34-.56,1.5,1.5,0,0,0-.83-.18h-.6Z" transform="translate(0 -2.41)"/>
    <path d="M101.88,23.57V15.63H103v7.94Z" transform="translate(0 -2.41)"/>
    <path d="M105.17,23.57V16.45h-1.34v-.82h3.75v.82h-1.3v7.12Z" transform="translate(0 -2.41)"/>
    <path d="M108.45,23.57V15.63h1.09v7.94Z" transform="translate(0 -2.41)"/>
    <path d="M112.9,23.65a2.29,2.29,0,0,1-1.28-.31,1.75,1.75,0,0,1-.69-.9,4,4,0,0,1-.21-1.36v-3a3.87,3.87,0,0,1,.21-1.35,1.65,1.65,0,0,1,.69-.86,2.38,2.38,0,0,1,1.28-.3,2.32,2.32,0,0,1,1.27.3,1.69,1.69,0,0,1,.68.87,3.55,3.55,0,0,1,.22,1.34v3a3.75,3.75,0,0,1-.22,1.35,1.74,1.74,0,0,1-.68.89A2.15,2.15,0,0,1,112.9,23.65Zm0-.87a1.07,1.07,0,0,0,.67-.18.88.88,0,0,0,.3-.51,3.44,3.44,0,0,0,.08-.77V17.84a3.34,3.34,0,0,0-.08-.76.86.86,0,0,0-.3-.49,1.41,1.41,0,0,0-1.34,0,.82.82,0,0,0-.31.49,3.34,3.34,0,0,0-.08.76v3.48a3.44,3.44,0,0,0,.08.77.84.84,0,0,0,.31.51A1.07,1.07,0,0,0,112.9,22.78Z" transform="translate(0 -2.41)"/>
    <path d="M116.2,23.57V15.63H117l2.25,5.27V15.63h.92v7.94h-.7l-2.29-5.42v5.42Z" transform="translate(0 -2.41)"/>
    <path d="M123.3,23.65a2,2,0,0,1-1.14-.29,1.9,1.9,0,0,1-.7-.81,3.65,3.65,0,0,1-.27-1.21l1-.26a4.28,4.28,0,0,0,.13.81,1.46,1.46,0,0,0,.34.64,1,1,0,0,0,1.31,0,1,1,0,0,0,.22-.69,1.38,1.38,0,0,0-.25-.87,4.08,4.08,0,0,0-.61-.66L122,19.15a2.2,2.2,0,0,1-.57-.75,2.37,2.37,0,0,1-.19-1,1.8,1.8,0,0,1,.5-1.35,1.88,1.88,0,0,1,1.36-.48,2.59,2.59,0,0,1,.83.12,1.44,1.44,0,0,1,.6.38,1.76,1.76,0,0,1,.38.64,3.74,3.74,0,0,1,.19.91l-.94.25a3.86,3.86,0,0,0-.12-.72,1.09,1.09,0,0,0-.31-.53.9.9,0,0,0-.63-.2.87.87,0,0,0-.64.22.89.89,0,0,0-.23.65,1.31,1.31,0,0,0,.12.6,1.7,1.7,0,0,0,.4.48l1.34,1.18a4.26,4.26,0,0,1,.8.93,2.48,2.48,0,0,1,.34,1.29,2,2,0,0,1-.25,1,1.61,1.61,0,0,1-.67.65A2.05,2.05,0,0,1,123.3,23.65Z" transform="translate(0 -2.41)"/>
    <path d="M126.11,23.57V15.63h2a2.09,2.09,0,0,1,1.14.26,1.44,1.44,0,0,1,.62.75,3.16,3.16,0,0,1,.2,1.18,2.47,2.47,0,0,1-.22,1.09,1.66,1.66,0,0,1-.65.71,2.11,2.11,0,0,1-1.08.25h-.87v3.7Zm1.11-4.49h.51a2.12,2.12,0,0,0,.75-.11.69.69,0,0,0,.39-.38,1.91,1.91,0,0,0,.12-.76,3.77,3.77,0,0,0-.08-.87.62.62,0,0,0-.35-.42,2.11,2.11,0,0,0-.82-.12h-.52Z" transform="translate(0 -2.41)"/>
    <path d="M130.86,23.57V15.63h1.6a3.49,3.49,0,0,1,1.31.21,1.42,1.42,0,0,1,.77.67,2.54,2.54,0,0,1,.25,1.22,3.12,3.12,0,0,1-.1.84,1.59,1.59,0,0,1-.31.64,1.22,1.22,0,0,1-.57.38l1.13,4h-1.07l-1-3.73H132v3.73ZM132,19.05h.42a2.07,2.07,0,0,0,.77-.12.8.8,0,0,0,.43-.4,1.93,1.93,0,0,0,.13-.8,1.58,1.58,0,0,0-.25-1,1.27,1.27,0,0,0-1-.31H132Z" transform="translate(0 -2.41)"/>
    <path d="M138,23.65a2.32,2.32,0,0,1-1.29-.31,1.68,1.68,0,0,1-.68-.9,4,4,0,0,1-.21-1.36v-3a3.87,3.87,0,0,1,.21-1.35,1.65,1.65,0,0,1,.69-.86,2.86,2.86,0,0,1,2.55,0,1.75,1.75,0,0,1,.68.87,3.77,3.77,0,0,1,.21,1.34v3a4,4,0,0,1-.21,1.35,1.8,1.8,0,0,1-.68.89A2.17,2.17,0,0,1,138,23.65Zm0-.87a1,1,0,0,0,.66-.18.94.94,0,0,0,.31-.51,3.44,3.44,0,0,0,.08-.77V17.84a3.34,3.34,0,0,0-.08-.76.92.92,0,0,0-.31-.49,1.11,1.11,0,0,0-.66-.17,1.18,1.18,0,0,0-.68.17.86.86,0,0,0-.3.49,2.86,2.86,0,0,0-.08.76v3.48a2.94,2.94,0,0,0,.08.77.88.88,0,0,0,.3.51A1.1,1.1,0,0,0,138,22.78Z" transform="translate(0 -2.41)"/>
    <path d="M143.22,23.66a2,2,0,0,1-1.19-.32,1.8,1.8,0,0,1-.65-.92,4.81,4.81,0,0,1-.2-1.46V18.3a5.3,5.3,0,0,1,.18-1.48,1.7,1.7,0,0,1,.65-.94,2.29,2.29,0,0,1,1.3-.32,2.46,2.46,0,0,1,1.2.25,1.5,1.5,0,0,1,.66.76,3.5,3.5,0,0,1,.21,1.3v.3h-1v-.25a4.75,4.75,0,0,0-.07-.85.82.82,0,0,0-.28-.49,1.14,1.14,0,0,0-.66-.16.94.94,0,0,0-.71.23,1.05,1.05,0,0,0-.28.61,7.61,7.61,0,0,0-.05.88v2.94a5,5,0,0,0,.08,1,1,1,0,0,0,.32.57,1.09,1.09,0,0,0,.67.18,1,1,0,0,0,.66-.2,1.09,1.09,0,0,0,.33-.61,4.68,4.68,0,0,0,.09-1v-.55h-1v-.78h2v3.93h-.7l-.11-.92a1.63,1.63,0,0,1-.49.73A1.37,1.37,0,0,1,143.22,23.66Z" transform="translate(0 -2.41)"/>
    <path d="M146.62,23.57V15.63h1.6a3.49,3.49,0,0,1,1.31.21,1.46,1.46,0,0,1,.77.67,2.54,2.54,0,0,1,.25,1.22,3.12,3.12,0,0,1-.1.84,1.59,1.59,0,0,1-.31.64,1.22,1.22,0,0,1-.57.38l1.13,4h-1.07l-1-3.73h-.86v3.73Zm1.11-4.52h.42a2,2,0,0,0,.76-.12.82.82,0,0,0,.44-.4,1.93,1.93,0,0,0,.13-.8,1.58,1.58,0,0,0-.25-1,1.27,1.27,0,0,0-1-.31h-.49Z" transform="translate(0 -2.41)"/>
    <path d="M151.32,23.57,153,15.63h1.07l1.69,7.94h-1l-.37-2h-1.61l-.39,2Zm1.57-2.8h1.33l-.67-3.57Z" transform="translate(0 -2.41)"/>
    <path d="M156.61,23.57l.14-7.94h1.09l1.4,6.44,1.41-6.44h1.08l.15,7.94H161l-.09-5.77-1.34,5.77h-.63L157.6,17.8l-.09,5.77Z" transform="translate(0 -2.41)"/>
    <path d="M163.12,23.57l.15-7.94h1.09l1.4,6.44,1.41-6.44h1.08l.15,7.94h-.9l-.08-5.77-1.35,5.77h-.62l-1.34-5.77L164,23.57Z" transform="translate(0 -2.41)"/>
    <path d="M91.06,40.37V29H96v1.69h-2.4v2.86h2.09v1.75H93.56v5Z" transform="translate(0 -2.41)"/>
    <path d="M97,40.37V32.43h2.19a5.18,5.18,0,0,1,1.39.17,1.64,1.64,0,0,1,.91.64,2.14,2.14,0,0,1,.33,1.28,3.94,3.94,0,0,1-.08.88,1.63,1.63,0,0,1-.28.66,1.72,1.72,0,0,1-.61.46l1.09,3.85h-1.81l-.87-3.56h-.5v3.56Zm1.76-4.57h.49a1.12,1.12,0,0,0,.57-.13.68.68,0,0,0,.29-.39,1.72,1.72,0,0,0,.09-.6,1.46,1.46,0,0,0-.19-.79.76.76,0,0,0-.69-.29h-.56Z" transform="translate(0 -2.41)"/>
    <path d="M102.5,40.37l1.5-7.94h2l1.48,7.94h-1.62l-.27-1.68h-1.16l-.28,1.68Zm2.08-2.73h.85l-.42-3.1Z" transform="translate(0 -2.41)"/>
    <path d="M108.33,40.37V32.43h1.75v3.24l1.34-3.24h1.71L111.66,36l1.54,4.36h-1.78l-1.15-3.51-.19.31v3.2Z" transform="translate(0 -2.41)"/>
    <path d="M114.65,40.37V33.73h-1.2v-1.3h4.15v1.3h-1.19v6.64Z" transform="translate(0 -2.41)"/>
    <path d="M118.35,40.37V32.43h1.76v7.94Z" transform="translate(0 -2.41)"/>
    <path d="M123.62,40.48a2.68,2.68,0,0,1-1.41-.31,1.75,1.75,0,0,1-.75-.9,3.91,3.91,0,0,1-.23-1.4V34.92a3.93,3.93,0,0,1,.23-1.41,1.71,1.71,0,0,1,.75-.88,2.68,2.68,0,0,1,1.41-.31,2.74,2.74,0,0,1,1.42.31,1.71,1.71,0,0,1,.75.88,3.93,3.93,0,0,1,.23,1.41v2.95a3.91,3.91,0,0,1-.23,1.4,1.75,1.75,0,0,1-.75.9A2.74,2.74,0,0,1,123.62,40.48Zm0-1.24a.54.54,0,0,0,.4-.14.77.77,0,0,0,.17-.35,3.25,3.25,0,0,0,0-.44V34.49a3.19,3.19,0,0,0,0-.45.77.77,0,0,0-.17-.35.54.54,0,0,0-.4-.14.53.53,0,0,0-.39.14.67.67,0,0,0-.16.35,2.15,2.15,0,0,0,0,.45v3.82a3.25,3.25,0,0,0,0,.44.76.76,0,0,0,.16.35A.51.51,0,0,0,123.62,39.24Z" transform="translate(0 -2.41)"/>
    <path d="M127.13,40.37V32.43h1.24L130,36.25V32.43h1.45v7.94h-1.19l-1.63-4.12v4.12Z" transform="translate(0 -2.41)"/>
    <path d="M132.68,40.37V32.43h3.57v1.19h-1.81v2h1.38v1.22h-1.38v2.37h1.83v1.19Z" transform="translate(0 -2.41)"/>
    <path d="M137.11,40.37V32.43h1.24L140,36.25V32.43h1.45v7.94h-1.18l-1.63-4.12v4.12Z" transform="translate(0 -2.41)"/>
    <path d="M146.32,40.37V32.43h1.76v7.94Z" transform="translate(0 -2.41)"/>
    <path d="M149.28,40.37l.14-7.94h1.88l.87,4.61.94-4.61h1.82l.13,7.94h-1.24l-.15-5.29-.92,5.29h-1.11l-1-5.33-.12,5.33Z" transform="translate(0 -2.41)"/>
    <path d="M160.16,40.37V29H163a5.73,5.73,0,0,1,2.31.37,2.15,2.15,0,0,1,1.17,1.16,5.36,5.36,0,0,1,.33,2.05v4.11a5.52,5.52,0,0,1-.33,2.08A2.21,2.21,0,0,1,165.35,40a5.61,5.61,0,0,1-2.29.38Zm2.51-1.74h.39a1.58,1.58,0,0,0,.83-.17.72.72,0,0,0,.31-.5,4.06,4.06,0,0,0,.07-.84V32.17a3.56,3.56,0,0,0-.08-.81.65.65,0,0,0-.33-.44,1.68,1.68,0,0,0-.81-.14h-.38Z" transform="translate(0 -2.41)"/>
    <path d="M168.19,40.37V32.43h3.56v1.19h-1.81v2h1.38v1.22h-1.38v2.37h1.83v1.19Z" transform="translate(0 -2.41)"/>
    <path d="M174.91,40.48a2.87,2.87,0,0,1-1.43-.3,1.63,1.63,0,0,1-.72-.87,4.37,4.37,0,0,1-.2-1.4V32.43h1.73v5.74a2.7,2.7,0,0,0,0,.49.92.92,0,0,0,.17.4.5.5,0,0,0,.41.16.48.48,0,0,0,.41-.16.72.72,0,0,0,.16-.4,2.7,2.7,0,0,0,0-.49V32.43h1.74v5.48a4.09,4.09,0,0,1-.21,1.4,1.63,1.63,0,0,1-.72.87A2.8,2.8,0,0,1,174.91,40.48Z" transform="translate(0 -2.41)"/>
    <path d="M179.14,40.37V33.73H178v-1.3h4.14v1.3h-1.18v6.64Z" transform="translate(0 -2.41)"/>
    <path d="M184.94,40.48a2.71,2.71,0,0,1-1.24-.26,1.74,1.74,0,0,1-.76-.82,3.79,3.79,0,0,1-.28-1.44l1.5-.22a4.16,4.16,0,0,0,.09.82,1,1,0,0,0,.24.45.53.53,0,0,0,.37.14.33.33,0,0,0,.35-.19.86.86,0,0,0,.09-.39,1.42,1.42,0,0,0-.24-.83,3.61,3.61,0,0,0-.64-.68l-.68-.6a3.64,3.64,0,0,1-.76-.86,2.19,2.19,0,0,1-.31-1.2,2,2,0,0,1,.6-1.55,2.39,2.39,0,0,1,1.63-.53,2,2,0,0,1,1,.22,1.52,1.52,0,0,1,.59.56,2.48,2.48,0,0,1,.27.73,5.13,5.13,0,0,1,.09.74l-1.51.19c0-.24,0-.44-.05-.61a.78.78,0,0,0-.14-.4.37.37,0,0,0-.33-.15.37.37,0,0,0-.36.21.79.79,0,0,0-.11.41,1.18,1.18,0,0,0,.21.72,3.64,3.64,0,0,0,.55.58l.66.58a4.57,4.57,0,0,1,.87,1,2.49,2.49,0,0,1,.36,1.38,2.06,2.06,0,0,1-.25,1,1.91,1.91,0,0,1-.72.72A2.28,2.28,0,0,1,184.94,40.48Z" transform="translate(0 -2.41)"/>
    <path d="M190.2,40.48a2.68,2.68,0,0,1-1.43-.33,1.7,1.7,0,0,1-.74-.92,4.15,4.15,0,0,1-.21-1.39V35a4.23,4.23,0,0,1,.21-1.41,1.73,1.73,0,0,1,.74-.92,3.37,3.37,0,0,1,2.8,0,1.54,1.54,0,0,1,.7.81,3.12,3.12,0,0,1,.21,1.19v.69h-1.72v-.8a3.39,3.39,0,0,0,0-.45.65.65,0,0,0-.14-.35.48.48,0,0,0-.4-.15.51.51,0,0,0-.41.15.75.75,0,0,0-.17.37,3.44,3.44,0,0,0,0,.46v3.74a2.39,2.39,0,0,0,0,.48.68.68,0,0,0,.18.36.57.57,0,0,0,.39.13.5.5,0,0,0,.39-.14.73.73,0,0,0,.15-.37c0-.15,0-.31,0-.46v-.84h1.72v.69a3.53,3.53,0,0,1-.2,1.21,1.6,1.6,0,0,1-.7.84A2.57,2.57,0,0,1,190.2,40.48Z" transform="translate(0 -2.41)"/>
    <path d="M193.52,40.37V32.43h1.75v3.21h1.23V32.43h1.76v7.94H196.5V36.9h-1.23v3.47Z" transform="translate(0 -2.41)"/>
    <path d="M199.52,40.37V32.43h3.56v1.19h-1.81v2h1.38v1.22h-1.38v2.37h1.83v1.19Z" transform="translate(0 -2.41)"/>
    <path d="M204,40.37V32.43h1.23l1.63,3.82V32.43h1.45v7.94h-1.19l-1.63-4.12v4.12Z" transform="translate(0 -2.41)"/>
    <path d="M213.4,40.37V29h2.95a7.57,7.57,0,0,1,1.38.11,3.09,3.09,0,0,1,1.16.42,2.17,2.17,0,0,1,.79.9A3.52,3.52,0,0,1,220,32a2.87,2.87,0,0,1-.2,1.16,1.88,1.88,0,0,1-.57.75,2.31,2.31,0,0,1-.89.38,2.07,2.07,0,0,1,1.78,1.34,3.56,3.56,0,0,1,.23,1.38,4.3,4.3,0,0,1-.23,1.52,2.55,2.55,0,0,1-.66,1,2.73,2.73,0,0,1-1.07.6,5,5,0,0,1-1.47.2Zm2.5-6.81h.49a1.78,1.78,0,0,0,.87-.17.88.88,0,0,0,.4-.51,2.81,2.81,0,0,0,.11-.82,1.67,1.67,0,0,0-.16-.75,1,1,0,0,0-.48-.45,1.82,1.82,0,0,0-.79-.15h-.44Zm0,5.06h.54a1.37,1.37,0,0,0,1.14-.42,2.06,2.06,0,0,0,.31-1.24,2.84,2.84,0,0,0-.14-1,1,1,0,0,0-.46-.55,1.76,1.76,0,0,0-.87-.18h-.52Z" transform="translate(0 -2.41)"/>
    <path d="M223.74,40.48a2.8,2.8,0,0,1-1.42-.3,1.55,1.55,0,0,1-.72-.87,4.09,4.09,0,0,1-.21-1.4V32.43h1.73v5.74a4,4,0,0,0,0,.49.92.92,0,0,0,.17.4.5.5,0,0,0,.41.16.48.48,0,0,0,.41-.16.72.72,0,0,0,.16-.4,2.7,2.7,0,0,0,0-.49V32.43h1.74v5.48a4.09,4.09,0,0,1-.21,1.4,1.63,1.63,0,0,1-.72.87A2.8,2.8,0,0,1,223.74,40.48Z" transform="translate(0 -2.41)"/>
    <path d="M227.26,40.37V32.43h1.24l1.62,3.82V32.43h1.45v7.94h-1.18l-1.63-4.12v4.12Z" transform="translate(0 -2.41)"/>
    <path d="M232.81,40.37V32.43h2a3.88,3.88,0,0,1,1.61.26,1.51,1.51,0,0,1,.82.81,3.87,3.87,0,0,1,.23,1.44v2.88a3.93,3.93,0,0,1-.23,1.45,1.56,1.56,0,0,1-.81.83,3.86,3.86,0,0,1-1.61.27Zm1.75-1.22h.27a1,1,0,0,0,.58-.12.5.5,0,0,0,.22-.35,3.17,3.17,0,0,0,.05-.59V34.63a2.26,2.26,0,0,0-.06-.57.46.46,0,0,0-.23-.31,1.12,1.12,0,0,0-.56-.1h-.27Z" transform="translate(0 -2.41)"/>
    <path d="M238.6,40.37V32.43h3.57v1.19h-1.82v2h1.38v1.22h-1.38v2.37h1.84v1.19Z" transform="translate(0 -2.41)"/>
    <path d="M245.13,40.48a2.71,2.71,0,0,1-1.24-.26,1.74,1.74,0,0,1-.76-.82,3.79,3.79,0,0,1-.28-1.44l1.5-.22a4.16,4.16,0,0,0,.09.82,1,1,0,0,0,.24.45.53.53,0,0,0,.37.14.33.33,0,0,0,.35-.19.86.86,0,0,0,.09-.39,1.42,1.42,0,0,0-.24-.83,3.87,3.87,0,0,0-.63-.68l-.69-.6a3.88,3.88,0,0,1-.76-.86,2.19,2.19,0,0,1-.31-1.2,2,2,0,0,1,.6-1.55,2.39,2.39,0,0,1,1.63-.53,2,2,0,0,1,1,.22,1.52,1.52,0,0,1,.59.56,2.48,2.48,0,0,1,.27.73,5.13,5.13,0,0,1,.09.74l-1.51.19c0-.24,0-.44-.05-.61a.78.78,0,0,0-.14-.4.37.37,0,0,0-.33-.15.37.37,0,0,0-.36.21.79.79,0,0,0-.11.41,1.18,1.18,0,0,0,.21.72,3.64,3.64,0,0,0,.55.58l.66.58a4.57,4.57,0,0,1,.87,1,2.49,2.49,0,0,1,.36,1.38,2.06,2.06,0,0,1-.25,1,1.91,1.91,0,0,1-.72.72A2.28,2.28,0,0,1,245.13,40.48Z" transform="translate(0 -2.41)"/>
    <path d="M248.83,40.37V33.73h-1.2v-1.3h4.15v1.3h-1.19v6.64Z" transform="translate(0 -2.41)"/>
    <path d="M252.14,40.37l1.5-7.94h2l1.48,7.94H255.5l-.26-1.68h-1.17l-.27,1.68Zm2.09-2.73h.84l-.42-3.1Z" transform="translate(0 -2.41)"/>
    <path d="M260,40.48a2.18,2.18,0,0,1-1.3-.34,1.8,1.8,0,0,1-.67-1,4.45,4.45,0,0,1-.2-1.43V35.07a4.55,4.55,0,0,1,.21-1.46,1.76,1.76,0,0,1,.74-1,2.59,2.59,0,0,1,1.43-.34,2.8,2.8,0,0,1,1.38.29,1.64,1.64,0,0,1,.72.82,3,3,0,0,1,.22,1.21v.51h-1.72V34.5a3.48,3.48,0,0,0,0-.47.6.6,0,0,0-.16-.34.5.5,0,0,0-.39-.14.51.51,0,0,0-.42.16.83.83,0,0,0-.16.37,3.59,3.59,0,0,0,0,.47v3.68a2.46,2.46,0,0,0,0,.49.77.77,0,0,0,.2.38.67.67,0,0,0,.83,0,.86.86,0,0,0,.2-.38,2,2,0,0,0,.06-.5v-.93h-.71v-1h2.29v4.12h-1.16l-.1-.66a1.29,1.29,0,0,1-.46.55A1.33,1.33,0,0,1,260,40.48Z" transform="translate(0 -2.41)"/>
    <path class="cls-1" d="M73.39-26.37" transform="translate(0 -2.41)"/>
    <path d="M20.53,5.7a8.59,8.59,0,0,0,.91.36,1.2,1.2,0,0,1,.38.18c.17.11.36.18.53.27a2.66,2.66,0,0,1,.72.48,1.3,1.3,0,0,0,.33.23,3.34,3.34,0,0,1,.48.36l.07.06a3,3,0,0,1,.9,1,4,4,0,0,0,.44.5,1.77,1.77,0,0,1,.28.43s0,.07,0,.08a2.1,2.1,0,0,1,.4.54.67.67,0,0,1,.1.21.37.37,0,0,0,.09.21,8.58,8.58,0,0,1,.6,1,.81.81,0,0,1,.13.3,2.53,2.53,0,0,0,.19.45s0,.06,0,.1a1.14,1.14,0,0,0,.17.43.71.71,0,0,1,.09.28,2.24,2.24,0,0,0,.18.66,1.48,1.48,0,0,1,.12.41,7.84,7.84,0,0,1,.11,1,.45.45,0,0,0,0,.11,2.51,2.51,0,0,1,.15,1,2.64,2.64,0,0,1,0,.56,5.27,5.27,0,0,0,0,1.05c0,.24,0,.46,0,.69s0,.18.17.24a1.55,1.55,0,0,0,.36.08c.18,0,.35.08.53.11a3.84,3.84,0,0,1,.67.16,6.61,6.61,0,0,1,.76.22c.21.09.43.12.64.2a6.29,6.29,0,0,1,1,.34c.2.12.42.15.62.26s.46.16.66.29.4.19.59.3a7.62,7.62,0,0,0,1.11.64,1.44,1.44,0,0,1,.57.37h0a7,7,0,0,1,.91.63c.11.09.22.18.32.28s.34.28.48.43a3,3,0,0,1,.61.72c.18.14.24.36.38.52a2.77,2.77,0,0,1,.44.58c.13.27.3.52.44.79a.35.35,0,0,0,.12.15.37.37,0,0,1,.13.17c.21.43.46.84.69,1.27.12.24.22.49.34.72a.71.71,0,0,1,0,.2.2.2,0,0,0,.07.19s0,0,0,0c0,.27.18.46.23.7a.87.87,0,0,0,.07.17,1.52,1.52,0,0,1,.22.83.25.25,0,0,0,.06.17.65.65,0,0,1,.13.34c.06.28.17.55.22.83a6.39,6.39,0,0,0,.13.63,5.65,5.65,0,0,1,.11.68c0,.18,0,.21-.16.26a7.3,7.3,0,0,0-.79.26,2.65,2.65,0,0,1-.54.13,2.76,2.76,0,0,0-.4.06,2.41,2.41,0,0,1-.53.07h0c-.17.14-.37.09-.56.1h-.6c-.15,0-.28.1-.43.1s-.06,0-.09,0a5.77,5.77,0,0,0-.72,0,1.82,1.82,0,0,1-.33,0c-.09,0-.16.06-.25.08a4.62,4.62,0,0,1-1,.1.57.57,0,0,0-.13,0c-.07,0-.1,0-.09.11a2.44,2.44,0,0,1,0,.54c0,.14,0,.28,0,.41a8.91,8.91,0,0,1-.11,1.36c0,.11-.07.14-.16.16-.3.07-.6.1-.9.15a5.29,5.29,0,0,1-.8,0H32.05a.26.26,0,0,0-.23.07s-.11,0-.17,0H27.1c-.16,0-.17,0-.13.18a.94.94,0,0,1,.06.44,1.29,1.29,0,0,0,0,.39,4.41,4.41,0,0,1,0,.73,2.51,2.51,0,0,0,0,.27,8.81,8.81,0,0,1,.22,1c0,.09.07.17.07.27a.52.52,0,0,1,0,.18.23.23,0,0,0,.11.22l0,0c.12-.09.25.06.37,0l.09,0a2.55,2.55,0,0,1,.73,0,9.14,9.14,0,0,0,1.16.07c.33,0,.66,0,1,0l.94.07a2.44,2.44,0,0,1,.66.08,1.29,1.29,0,0,0,.39,0h.38a1,1,0,0,1,.34,0A1.27,1.27,0,0,0,34,41a.83.83,0,0,1,.35,0s.07,0,.11,0a1.39,1.39,0,0,1,.64,0,1.49,1.49,0,0,0,.52.06.56.56,0,0,1,.25,0,.35.35,0,0,0,.2.05,7.16,7.16,0,0,1,.93.11c.23,0,.44.1.66.11h.19c.1,0,.2,0,.28.06a.27.27,0,0,0,.13,0,1.24,1.24,0,0,1,.5.07.53.53,0,0,0,.22,0,1.09,1.09,0,0,1,.5.1l.09,0a1.65,1.65,0,0,1,.58.14,4.47,4.47,0,0,1,.86.26s0,0,.05,0c.2,0,.37.11.57.1a.24.24,0,0,1,.12,0,3.87,3.87,0,0,0,.65.23,3,3,0,0,1,.56.24c.11.06.24.06.34.14a.36.36,0,0,1,.16.23,4.38,4.38,0,0,1-.6.39.33.33,0,0,1-.1.06,2.11,2.11,0,0,0-.71.3,2.11,2.11,0,0,1-.91.35,5.9,5.9,0,0,0-.6.17s-.07,0-.11,0a3.27,3.27,0,0,0-.81.18,2.13,2.13,0,0,1-.71.13.16.16,0,0,0-.12,0,.47.47,0,0,1-.41.09,4,4,0,0,0-.59.1,2.22,2.22,0,0,0-.44.06,2.32,2.32,0,0,1-.58.08.16.16,0,0,0-.09,0,.14.14,0,0,1-.12,0c-.27,0-.53.12-.8.11a2.59,2.59,0,0,0-.56,0c-.27.07-.56,0-.82.11s-.67,0-1,.07a2,2,0,0,0-.64.09h-.05a17.28,17.28,0,0,1-2,.12.36.36,0,0,0-.25,0,.11.11,0,0,1-.14,0,.15.15,0,0,0-.19,0,.57.57,0,0,1-.31.05,2.16,2.16,0,0,0-.44,0,.09.09,0,0,1-.09,0,.78.78,0,0,0-.45-.06H26.74c-.23,0-.24,0-.32.23A9.48,9.48,0,0,0,26.09,47c-.05.18-.1.2-.28.09s-.52-.35-.78-.53a3.54,3.54,0,0,1-.68-.53.71.71,0,0,0-.68-.26.81.81,0,0,1-.43-.06.2.2,0,0,0-.2,0,.55.55,0,0,1-.31.05H22c-.17,0-.19,0-.25.17a2.65,2.65,0,0,0-.23,1c0,.14-.07.18-.21.15a1.07,1.07,0,0,1-.55-.3.89.89,0,0,0-.3-.24c-.12-.06-.19-.19-.29-.28a2.6,2.6,0,0,1-.36-.38.28.28,0,0,0-.21-.1c-.16,0-.31,0-.46,0s-.44,0-.65,0H16.83c-.24,0-.29,0-.31.28a4.71,4.71,0,0,1-.19.64.14.14,0,0,1-.17.08.68.68,0,0,1-.35-.17c-.22-.22-.49-.37-.71-.59a.58.58,0,0,1-.16-.19.25.25,0,0,0-.27-.15c-.83,0-1.67,0-2.5,0H10.59a.93.93,0,0,1-.65-.31,1.1,1.1,0,0,0-.72-.33c-.15,0-.3,0-.45,0s-.34-.07-.51,0a0,0,0,0,1,0,0A.78.78,0,0,0,7.74,45c-.52,0-1,0-1.55,0-.29,0-.59,0-.88,0a1,1,0,0,1-.45-.09.54.54,0,0,1-.31-.42,3,3,0,0,0-.17-.41,6.24,6.24,0,0,0-.49-.87c0-.07-.12-.1-.17-.16-.22-.27-.5-.47-.73-.72a.77.77,0,0,0-.21-.14,2.1,2.1,0,0,1-.56-.37s-.07-.07-.05-.12.07-.06.11-.07H3.55A1.15,1.15,0,0,0,4,41.55a1.38,1.38,0,0,1,.36,0H9.17c.29,0,.33,0,.39-.32,0-.12.12-.19.17-.29s.13-.17.19-.27.18-.11.28-.17a1.19,1.19,0,0,1,.42-.11,11.7,11.7,0,0,1,1.18,0c.15,0,.31-.08.46,0a.17.17,0,0,0,.1,0,1.61,1.61,0,0,1,.69-.07h.51c.06,0,.13,0,.16-.07s.14-.21.2-.31a1,1,0,0,1,.14-.22,2.55,2.55,0,0,0,.26-.38,8,8,0,0,0,.58-1c.11-.22.22-.43.31-.65s.22-.57.36-.84a2.85,2.85,0,0,0,.19-.63,2,2,0,0,1,.13-.41c.15-.3.17-.64.31-1a.22.22,0,0,0-.1-.3,1.78,1.78,0,0,1-.26-.22.41.41,0,0,0-.27-.13.66.66,0,0,1-.36-.16,1.75,1.75,0,0,0-.48-.27,5,5,0,0,1-.64-.36c-.36-.24-.72-.48-1.07-.73a8.93,8.93,0,0,1-.8-.57c-.19-.15-.4-.27-.58-.44-.33-.29-.68-.56-1-.86s-.67-.7-1-1a.55.55,0,0,1-.13-.18,1.16,1.16,0,0,0-.16-.21A1.3,1.3,0,0,1,9,29c-.06-.12-.16-.21-.22-.32a12.93,12.93,0,0,1-.64-1.15c-.09-.19-.21-.35-.3-.54a7.94,7.94,0,0,1-.34-.72c0-.1-.12-.2-.17-.3A4.86,4.86,0,0,1,7,25c0-.17-.12-.33-.17-.49-.09-.32-.21-.62-.28-.94a3.64,3.64,0,0,0-.2-.88c-.09-.2-.11-.41-.2-.6a.08.08,0,0,1,0-.05c0-.2-.1-.38-.1-.58A.67.67,0,0,0,6,21.18a1.35,1.35,0,0,1,0-.45c0-.28,0-.57,0-.85s0-.35-.07-.53a3.62,3.62,0,0,1,0-.47c0-.41,0-.83,0-1.25,0-.87,0-1.73,0-2.6a.31.31,0,0,1,.05-.21.24.24,0,0,0,0-.09c0-.22,0-.43,0-.65A3,3,0,0,1,6,13.49a3,3,0,0,0,0-.67.59.59,0,0,1,0-.23.83.83,0,0,0,0-.35.64.64,0,0,1,.06-.31s0,0,0,0c0-.29.14-.57.2-.86a5,5,0,0,0,.08-.66.36.36,0,0,1,0-.11,4.83,4.83,0,0,0,.31-1.11,1.23,1.23,0,0,1,.12-.37,1.76,1.76,0,0,0,.16-.54,3.19,3.19,0,0,0,.12-.6,1.58,1.58,0,0,1,.15-.48,3.38,3.38,0,0,0,.18-.44c0-.09.1-.15.13-.24A5.92,5.92,0,0,1,8,5.67c.1-.21.16-.44.26-.66a1.4,1.4,0,0,1,.24-.47c.06-.07.06-.17.1-.24L9,3.58a3.16,3.16,0,0,0,.16-.43,1.29,1.29,0,0,1,.17-.33.31.31,0,0,1,.33-.17c.11,0,.22,0,.33,0a2.64,2.64,0,0,1,.49.08c.26,0,.46.23.71.28s.17.14.1.26a2.51,2.51,0,0,0-.16.46.63.63,0,0,1-.18.34,1.36,1.36,0,0,0-.24.5,1.21,1.21,0,0,0-.09.2c0,.08,0,.14.09.11a2.15,2.15,0,0,1,.76,0,6,6,0,0,0,.74,0h.28a4.56,4.56,0,0,0,.64,0c.1,0,.2,0,.3,0s.47-.05.71,0,.55,0,.82,0a.3.3,0,0,0,.16,0,.14.14,0,0,1,.14,0,.15.15,0,0,0,.11,0,3.64,3.64,0,0,1,.66,0c.22,0,.43,0,.65,0h.08a7.29,7.29,0,0,0,1,.18l.31.08A.26.26,0,0,0,18.36,5a2.57,2.57,0,0,1,.32-.22c.16-.11.33-.22.48-.34l.64-.49c.11-.08.21-.17.32-.24l.43-.26.32-.15a.2.2,0,0,1,.26.05,1,1,0,0,1,.32.43,3,3,0,0,0,.3.48l.06.1c.08.15.07.18-.07.27a12.42,12.42,0,0,0-1.11.93A.32.32,0,0,0,20.53,5.7ZM8.3,18.05a.27.27,0,0,0-.3.28v1.46a.17.17,0,0,0,0,.07,1,1,0,0,1,.06.53,1.7,1.7,0,0,0,.06.46c.09.26.09.54.16.8a2.79,2.79,0,0,0,.07.4,3.07,3.07,0,0,1,.27.94s0,.06,0,.09a2.69,2.69,0,0,1,.19.61c0,.07,0,.14,0,.21a2.44,2.44,0,0,1,.19.75.2.2,0,0,0,0,.11.88.88,0,0,1,.1.36s0,.06,0,.09.16.35.27.52a6.31,6.31,0,0,1,.38.73c.11.23.26.44.38.66a2.85,2.85,0,0,0,.23.26c.24.29.42.63.66.92a6,6,0,0,0,.37.51c.31.33.61.66.93,1a2.76,2.76,0,0,0,.47.43c.24.16.47.34.69.52s.48.34.71.51.43.25.63.39a9.94,9.94,0,0,0,1,.59l.21.08q.15,0,.12-.09c-.07-.29-.06-.59-.13-.88-.12-.47-.2-.94-.36-1.4a5.53,5.53,0,0,0-.33-.85,5.64,5.64,0,0,0-.36-.69,3.67,3.67,0,0,1-.36-.6c-.13-.31-.34-.57-.49-.87a8.17,8.17,0,0,1-.54-1,6.4,6.4,0,0,0-.43-.76,1.86,1.86,0,0,0-.1-.25c-.13-.17-.19-.37-.3-.54a.33.33,0,0,1-.07-.13,1.74,1.74,0,0,0-.17-.45,6.26,6.26,0,0,1-.38-.93,2.43,2.43,0,0,0-.13-.38,5.57,5.57,0,0,1-.38-1.06,2.36,2.36,0,0,1-.15-.79,2.51,2.51,0,0,1-.16-.72,6.59,6.59,0,0,1-.16-1,5.7,5.7,0,0,1-.09-.83c0-.09-.05-.13-.14-.13a3,3,0,0,1-.42,0,.14.14,0,0,0-.11,0A1.38,1.38,0,0,1,10,18c-.42,0-.84,0-1.26.06A2.2,2.2,0,0,1,8.3,18.05Zm21.81,3.12a.19.19,0,0,0,.07.14c.16.14.29.31.44.45.37.36.63.79,1,1.16a.41.41,0,0,1,.07.11c.08.12.14.25.23.36a3.49,3.49,0,0,1,.43.65,8.29,8.29,0,0,1,.43.84,5.29,5.29,0,0,1,.41.91,1.33,1.33,0,0,0,.09.21,6.42,6.42,0,0,1,.37.85,8.39,8.39,0,0,0,.29.79c.1.22.13.47.22.7a5.31,5.31,0,0,0,.21.64.36.36,0,0,1,0,.1,4,4,0,0,0,.22,1,.26.26,0,0,1,0,.11,1.92,1.92,0,0,0,.07.48,2.83,2.83,0,0,1,.08.4,2.06,2.06,0,0,0,0,.26,2.66,2.66,0,0,1,.17.63.25.25,0,0,0,.2.25,1.82,1.82,0,0,0,.69.08H36a2.16,2.16,0,0,0,.57,0,1.8,1.8,0,0,1,.46,0,1.06,1.06,0,0,0,.31,0c.29-.08.58,0,.86-.12s.57-.06.85-.12.44-.08.66-.12.13,0,.11-.13-.11-.5-.18-.74-.16-.65-.25-1-.13-.42-.22-.63-.16-.38-.22-.57a2.58,2.58,0,0,0-.25-.56c-.25-.39-.53-.76-.78-1.15-.09-.13-.2-.24-.3-.36a2.3,2.3,0,0,0-.35-.47s0-.07-.07-.11a.42.42,0,0,0-.09-.16c-.22-.24-.4-.51-.61-.75a3.08,3.08,0,0,1-.3-.33,5.37,5.37,0,0,0-.58-.67c-.15-.17-.36-.28-.49-.46a.8.8,0,0,0-.28-.24,2.64,2.64,0,0,1-.42-.3,1.1,1.1,0,0,0-.14-.09,1.6,1.6,0,0,1-.38-.23c-.2-.16-.43-.25-.62-.41l-.09,0a.79.79,0,0,1-.37-.2,2,2,0,0,0-.69-.35,1.14,1.14,0,0,1-.35-.17,1.17,1.17,0,0,0-.56-.27.86.86,0,0,1-.28,0l-.65-.22A.19.19,0,0,0,30.11,21.17ZM16,40.41a.17.17,0,0,0,.11,0,3.21,3.21,0,0,0,.62,0,3.39,3.39,0,0,1,.55,0h1.07a2.26,2.26,0,0,1,.52,0c.17,0,.35,0,.52,0a2.62,2.62,0,0,0,.56,0c.15,0,.18,0,.19-.18a3.49,3.49,0,0,0,0-.56c0-.51,0-1,0-1.55a7.36,7.36,0,0,0,.06-.81c0-.12.05-.14.17-.13a4.78,4.78,0,0,0,.53.06h.71c.16,0,.2,0,.19.19s0,.54,0,.81c0,.68,0,1.36,0,2,0,.09,0,.13.13.14s.43,0,.65,0h2.79c.14,0,.15,0,.13-.15s0,0,0,0a3.59,3.59,0,0,1-.17-.79c-.08-.53-.22-1.05-.26-1.6,0-.29-.06-.58-.06-.87a1.62,1.62,0,0,0,0-.22c0-.15-.06-.21-.2-.22a2,2,0,0,1-.48-.07c-.22-.08-.46,0-.69-.11s-.52-.06-.79-.1a5.77,5.77,0,0,0-.83-.15.37.37,0,0,1-.15,0,.4.4,0,0,0-.28-.06.85.85,0,0,1-.42-.08.45.45,0,0,0-.2,0,.35.35,0,0,1-.23,0c-.14-.1-.32,0-.44-.14a2.69,2.69,0,0,1-.62-.11,2,2,0,0,0-.59-.13.1.1,0,0,1-.08,0s-.06-.06-.1,0a1.12,1.12,0,0,1-.4-.1c-.23-.07-.33,0-.39.21a3.24,3.24,0,0,0-.16.53.21.21,0,0,1,0,.07,4.76,4.76,0,0,0-.28.71,2.64,2.64,0,0,1-.1.3,2.42,2.42,0,0,0-.27.64.79.79,0,0,1-.17.36.91.91,0,0,0-.11.22c-.15.32-.24.67-.42,1a3.94,3.94,0,0,1-.35.55A1.15,1.15,0,0,0,16,40.41Zm6.1-24.1v.17a.28.28,0,0,0,.18.29,3.17,3.17,0,0,0,.4.14,5.16,5.16,0,0,0,.77.21,1.14,1.14,0,0,1,.37.11c.24.13.49.2.73.32a5.46,5.46,0,0,0,.7.3,4.31,4.31,0,0,1,.49.22c.1.05.17,0,.17-.11a1.34,1.34,0,0,1,0-.2A4.53,4.53,0,0,1,26,17v0a5.07,5.07,0,0,1,0-.55c0-.39,0-.77-.08-1.16a8.61,8.61,0,0,0-.14-1.22,6.79,6.79,0,0,1-.18-.78.86.86,0,0,0-.06-.23,8.45,8.45,0,0,1-.28-.85,3.19,3.19,0,0,0-.46-.9l-.15-.24c-.12-.23-.26-.45-.38-.68a4.78,4.78,0,0,0-.58-.78c-.1-.12-.21-.22-.32-.33S23,9,22.83,8.83a4.14,4.14,0,0,0-.55-.38c-.07,0-.13-.15-.22-.1s0,.15,0,.23c0,.31.07.62.09.93a1.94,1.94,0,0,0,0,.24,1.48,1.48,0,0,1,.07.75s0,.05,0,.08a9.36,9.36,0,0,1,.08,1.18,1,1,0,0,0,0,.24,1.67,1.67,0,0,1,.05.5,2.75,2.75,0,0,0,0,.5,6.38,6.38,0,0,1-.11,1.31,4,4,0,0,0-.07.48c0,.21-.06.42-.06.63A8.87,8.87,0,0,0,22.07,16.31Zm4.79,9.55a1.14,1.14,0,0,0-.19.19A12,12,0,0,0,26,27.18c-.15.25-.25.53-.4.78s-.14.26-.2.4A2.07,2.07,0,0,1,25,29a.32.32,0,0,0-.05.35c0,.11.05.23.08.34.06.26.05.54.11.79s0,.75.15,1.11v.08a4,4,0,0,0,.09.77c0,.38.08.77.14,1.15,0,.17,0,.34,0,.52a1.51,1.51,0,0,0,.06.36.23.23,0,0,0,.26.19h.37c.15,0,.29.08.44,0a1.06,1.06,0,0,0,.53.06,5.63,5.63,0,0,1,.58,0,2,2,0,0,0,.35,0,.11.11,0,0,0,.12-.12,1.31,1.31,0,0,0,0-.28c-.05-.2-.05-.42-.09-.62s-.06-.6-.1-.89a.27.27,0,0,0,0-.16.37.37,0,0,1-.06-.25.93.93,0,0,0-.09-.52s0-.05,0-.08-.08-.28-.1-.43a5.33,5.33,0,0,1-.16-1,4,4,0,0,0-.07-.48c0-.23-.08-.46-.13-.69s0-.35,0-.52c-.08-.34-.14-.68-.21-1a1.74,1.74,0,0,1-.05-.39.56.56,0,0,0,0-.29.9.9,0,0,1-.07-.27c0-.22-.07-.43-.08-.65A.17.17,0,0,0,26.86,25.86Zm5.63,9.22h.2c.12,0,.15,0,.15-.15a1.7,1.7,0,0,0,0-.39c-.07-.33,0-.66-.06-1s-.06-.63-.11-.94a2.74,2.74,0,0,1-.07-.5,2.55,2.55,0,0,0,0-.55,3.13,3.13,0,0,0-.17-.86s0-.05,0-.07a5,5,0,0,0-.16-.67c0-.1,0-.19-.07-.29a.74.74,0,0,0-.5-.64,2.07,2.07,0,0,1-.58-.28,4.43,4.43,0,0,0-.46-.29c-.23-.11-.45-.24-.68-.37l-.66-.38s-.08-.07-.13,0,0,.09,0,.14c.1.27.13.55.22.83a5,5,0,0,1,.15.86,6,6,0,0,0,.21,1.26,2.67,2.67,0,0,1,.09.89,4.91,4.91,0,0,0,0,.55A3.12,3.12,0,0,1,30,33a.07.07,0,0,0,0,0,.52.52,0,0,1,.05.27,5.1,5.1,0,0,0,0,.68,6.06,6.06,0,0,1,.09.73.41.41,0,0,0,.49.38c.21,0,.42-.18.64,0h0C31.69,35.05,32.09,35,32.49,35.08ZM20.14,23.73a.29.29,0,0,0-.12-.21c-.26-.27-.51-.54-.76-.82a9.38,9.38,0,0,1-1-1.21,3,3,0,0,0-.2-.29c0-.05-.1-.07-.13,0a2.48,2.48,0,0,1-.36.55,4.63,4.63,0,0,1-.52.65,1.06,1.06,0,0,0-.36.45.11.11,0,0,1-.08.07,3,3,0,0,0-.67.62c-.16.16-.24.39-.48.45,0,0-.06.05-.09.08a.94.94,0,0,1-.19.14c-.11.05-.13.08-.1.2l.06.16a1.71,1.71,0,0,1,.17.33.32.32,0,0,0,.13.15,2.8,2.8,0,0,1,.4.27c.28.31.64.51.93.8a2.68,2.68,0,0,0,.56.39,3.7,3.7,0,0,0,.61.35,2.92,2.92,0,0,1,.47.22,1.3,1.3,0,0,0,.17.08c.24.1.51.11.75.23.08,0,.13,0,.13-.09s0-.36,0-.54a.77.77,0,0,1,0-.22c.08-.23.1-.48.16-.71a5.86,5.86,0,0,0,.13-.73,6.25,6.25,0,0,1,.17-.72C20,24.17,20.08,24,20.14,23.73Zm1,6a5,5,0,0,0,.11,1.11c0,.15,0,.31.05.46a3.87,3.87,0,0,1,.1.67A6.68,6.68,0,0,0,21.57,33a7.26,7.26,0,0,1,.2.9.3.3,0,0,0,.23.27,4.94,4.94,0,0,0,.53.1c.37.05.74.08,1.12.12h.18c.1,0,.13,0,.13-.14a1,1,0,0,0,0-.17,2.63,2.63,0,0,1-.08-.3c-.06-.4,0-.81-.09-1.21a9.56,9.56,0,0,0-.17-1.05,3.75,3.75,0,0,1-.11-.67,1.39,1.39,0,0,0-.07-.46,7.42,7.42,0,0,1-.21-1.25c-.07-.36-.09-.73-.13-1.1,0-.11,0-.23-.12-.31l-.3-.24a5.12,5.12,0,0,1-.58-.56l-.38-.48a.52.52,0,0,0-.1-.11c-.05-.05-.09,0-.11,0a6.8,6.8,0,0,0-.18.75q-.09.7-.12,1.41C21.17,28.91,21.14,29.27,21.14,29.69ZM40,43.13a.41.41,0,0,0-.26-.07,1.85,1.85,0,0,0-.57-.1,3.92,3.92,0,0,1-.59,0c-.16,0-.32-.06-.47-.09-.45-.08-.92,0-1.37-.1a9.73,9.73,0,0,1-1.07-.12s-.06,0-.09,0c-.32,0-.63-.06-1,0h-.07a1.36,1.36,0,0,0-.53-.07c-.23,0-.46,0-.69,0a1.45,1.45,0,0,0-.3-.05,1.74,1.74,0,0,1-.32,0,4.41,4.41,0,0,0-.52,0,.15.15,0,0,1-.09,0,.49.49,0,0,0-.29-.05H29.64a.79.79,0,0,1-.37-.07.62.62,0,0,0-.5,0,.29.29,0,0,1-.27,0,.26.26,0,0,0-.28,0,.2.2,0,0,1-.21,0c-.1-.08-.16,0-.2,0a2.22,2.22,0,0,0-.23.43,1.42,1.42,0,0,1-.17.35,4.68,4.68,0,0,0-.3.59c0,.08,0,.13.07.16a1.09,1.09,0,0,0,.35.07,5,5,0,0,0,.95,0h.07a2.42,2.42,0,0,0,.76,0,2.2,2.2,0,0,1,.44,0c.2,0,.4,0,.59,0s.62,0,.93,0h1.95c.07,0,.14,0,.2,0a.53.53,0,0,1,.27-.06c.3,0,.61,0,.92,0,.13,0,.25-.07.37-.08a4.4,4.4,0,0,0,1-.12h0a4.93,4.93,0,0,1,.67,0,.39.39,0,0,0,.15,0,.57.57,0,0,1,.28-.06,3.46,3.46,0,0,0,.91-.07c.23-.07.48,0,.72-.11a1.53,1.53,0,0,1,.52,0,.25.25,0,0,0,.15,0,.27.27,0,0,1,.21,0ZM15.19,17.85h-.75A.71.71,0,0,0,14,18c-.09.08,0,.22-.06.34a.94.94,0,0,1-.06.47.17.17,0,0,0,0,.14.25.25,0,0,1,0,.22,1,1,0,0,0-.06.42v1a1.25,1.25,0,0,0,.06.54.23.23,0,0,1,0,.14,1.42,1.42,0,0,0,0,.46,1.75,1.75,0,0,0,.14.6c.11.25.12.25.35.07s.45-.33.65-.52.14-.16.22-.22a9.16,9.16,0,0,0,.71-.68,2.42,2.42,0,0,0,.29-.42,4.44,4.44,0,0,0,.52-1.1A3.09,3.09,0,0,1,17,19c.1-.22.13-.45.25-.66s0-.35-.22-.34a4.28,4.28,0,0,1-.72-.07,2.49,2.49,0,0,0-.61-.08A4.17,4.17,0,0,1,15.19,17.85Zm7,5.3,0,.08a4.16,4.16,0,0,0,.23.62,2.8,2.8,0,0,0,.3.66s0,0,0,.06c.1.22.2.44.32.65a3.69,3.69,0,0,0,.73.89c.13.11.24.23.38.33s.13.06.19,0,.17-.33.26-.49l.53-1.05c.12-.22.26-.43.38-.66a2.68,2.68,0,0,1,.18-.28c.07-.12.05-.13,0-.25a3.61,3.61,0,0,0-.33-.35l-.32-.4c-.16-.18-.3-.37-.44-.56s-.22-.34-.33-.51-.24-.42-.38-.62a2,2,0,0,1-.1-.26c0-.1-.14-.12-.18,0s-.17.22-.24.33-.2.45-.32.66a2.4,2.4,0,0,1-.18.26,2.52,2.52,0,0,0-.45.57.44.44,0,0,1-.17.19C22.17,23,22.15,23.07,22.14,23.15ZM19,18.48a.77.77,0,0,0,0,.15,4,4,0,0,1,.13.46,2.25,2.25,0,0,0,.2.77,2.13,2.13,0,0,1,.14.35,2.57,2.57,0,0,0,.28.66,4.66,4.66,0,0,0,.3.47c.14.21.3.41.43.63s.17.16.25.25a.06.06,0,0,0,.1,0c.14-.22.4-.35.49-.62a.42.42,0,0,1,.09-.14,1.55,1.55,0,0,0,.28-.39,7.59,7.59,0,0,0,.46-.65c.1-.21.22-.42.32-.63s.23-.46.33-.7,0-.25-.15-.27a1.21,1.21,0,0,1-.34-.08.39.39,0,0,0-.18,0c-.24,0-.47-.06-.7-.07a2.91,2.91,0,0,0-.66-.08.22.22,0,0,1-.13,0c-.18-.05-.33-.19-.53-.18a.09.09,0,0,1-.05,0,.43.43,0,0,0-.25-.07,3.25,3.25,0,0,1-.54,0C19.1,18.16,19,18.27,19,18.48Zm-5.28-7.06a.45.45,0,0,1,0-.08,2.28,2.28,0,0,1,.18-.77c.05-.12.12-.21.16-.32a4,4,0,0,1,.22-.47,3.68,3.68,0,0,0,.31-.63l0-.05a2,2,0,0,0,.28-.44,4.72,4.72,0,0,1,.65-.89c.18-.22.33-.46.52-.67.05,0,.11-.12.06-.2s-.12,0-.19,0c-.56,0-1.13,0-1.69,0-.38,0-.75-.05-1.12,0a4.21,4.21,0,0,0-.79.06c-.13,0-.29,0-.43,0s-.14,0-.16.06.05.12.09.18h0a2.18,2.18,0,0,1,.3.38,4.19,4.19,0,0,0,.47.69s0,.05,0,.08a.57.57,0,0,0,.08.13,1,1,0,0,1,.27.48.12.12,0,0,0,0,.08,2.63,2.63,0,0,1,.24.58,1,1,0,0,1,.12.45,5.28,5.28,0,0,0,.1.66A4.11,4.11,0,0,0,13.72,11.42Zm6.4,22.08a3.77,3.77,0,0,0-.07-.4,2.26,2.26,0,0,1-.09-.58,2.19,2.19,0,0,0-.09-.57,1.43,1.43,0,0,1-.06-.5,3.27,3.27,0,0,0-.11-.88,3.43,3.43,0,0,1-.11-.64,5.13,5.13,0,0,0-.12-.77.2.2,0,0,0-.19-.2c-.22,0-.44-.12-.66-.18a1.76,1.76,0,0,1-.54-.2c-.24-.14-.52-.16-.76-.28a.11.11,0,0,0-.11,0s0,.07,0,.09.05.09.07.13c.13.28.23.57.36.84a1.61,1.61,0,0,1,.16.39c.05.22.13.42.17.63a3.06,3.06,0,0,0,.17.59,4.3,4.3,0,0,1,.19.92c0,.3,0,.61.08.91,0,.1,0,.2,0,.3a.33.33,0,0,0,.23.23,2.38,2.38,0,0,0,.38.11.92.92,0,0,1,.27.08,1.53,1.53,0,0,0,.6.16C20.09,33.69,20.11,33.68,20.12,33.5ZM17.6,10.59a1.66,1.66,0,0,0-.54.1c-.11,0-.23,0-.31.12a4.67,4.67,0,0,1-.67.5.41.41,0,0,0-.18.29.38.38,0,0,1-.07.21.33.33,0,0,0,0,.14,3,3,0,0,0,.07.59,2,2,0,0,0,.26.52.73.73,0,0,0,.17.18,1,1,0,0,1,.21.21.68.68,0,0,0,.25.23,2.13,2.13,0,0,0,.77.26.66.66,0,0,0,.31,0c.25-.07.53,0,.76-.14h.07a.38.38,0,0,0,.16-.06,2.12,2.12,0,0,0,.66-.53.56.56,0,0,1,.16-.18.73.73,0,0,0,.27-.42.78.78,0,0,0,.07-.56,1.51,1.51,0,0,0-.34-.62,3.23,3.23,0,0,1-.27-.23,2.89,2.89,0,0,0-.45-.33,1.66,1.66,0,0,0-.79-.24l-.31,0A.78.78,0,0,0,17.6,10.59ZM31.36,27.1c0-.08-.07-.17-.11-.26a3.32,3.32,0,0,1-.23-.51,7.27,7.27,0,0,0-.38-.91,2.8,2.8,0,0,1-.15-.3.79.79,0,0,0-.13-.26,2.25,2.25,0,0,1-.12-.21c-.11-.21-.24-.41-.36-.61,0,0,0-.05-.06-.07a1.48,1.48,0,0,1-.3-.36c-.09-.16-.23-.27-.31-.42a.31.31,0,0,0-.09-.07.12.12,0,0,0-.19,0c-.13.13-.28.25-.4.39s-.35.45-.53.67c0,0,0,.07,0,.1s.16.29.27.41a1.33,1.33,0,0,1,.24.33,2.61,2.61,0,0,0,.31.43,1.45,1.45,0,0,0,.41.37,1,1,0,0,1,.2.15,2.92,2.92,0,0,0,.64.52l.27.14.56.35a2.53,2.53,0,0,0,.37.18C31.32,27.2,31.36,27.18,31.36,27.1ZM13.55,42.78c0-.14,0-.27-.06-.41s-.1-.26-.26-.26a5.09,5.09,0,0,0-.54,0h-1a1.55,1.55,0,0,1-.31,0c-.28-.07-.4-.07-.38.26v.08a1.75,1.75,0,0,1,0,.4,1.61,1.61,0,0,0,0,.37.82.82,0,0,1,0,.22,1.41,1.41,0,0,0,0,.41.36.36,0,0,0,.41.39,7.89,7.89,0,0,1,1,0,4.63,4.63,0,0,0,.91-.05h.11a1.29,1.29,0,0,0,.44,0c.11,0,.15,0,.13-.15a2.52,2.52,0,0,0-.18-.61A1.54,1.54,0,0,1,13.55,42.78Zm6.71-32.73a.69.69,0,0,1,0-.18,2.68,2.68,0,0,0-.13-.8c-.09-.39-.2-.77-.3-1.15a3,3,0,0,0-.46-1c-.1-.15-.18-.15-.3,0a3.9,3.9,0,0,1-.4.51,1.67,1.67,0,0,0-.31.34,1.47,1.47,0,0,1-.49.47.27.27,0,0,0-.13.15.53.53,0,0,1-.17.25.65.65,0,0,0-.21.3,2.37,2.37,0,0,1-.13.34c-.06.1,0,.14.09.13a1.93,1.93,0,0,0,.48,0c.21-.06.43,0,.64,0h0a2.17,2.17,0,0,1,.65.22s.05,0,.07,0a1.27,1.27,0,0,1,.77.37,2.15,2.15,0,0,0,.24.18C20.22,10.2,20.26,10.16,20.26,10.05Zm-8.43,2.12v-.4a.77.77,0,0,0-.16-.5.5.5,0,0,1-.08-.12.32.32,0,0,0-.15-.19c-.22-.18-.46-.33-.69-.49a.2.2,0,0,0-.12-.06,3.55,3.55,0,0,0-.46,0c-.28.06-.56.14-.83.21a1.81,1.81,0,0,0-.61.26,3.13,3.13,0,0,0-.51.63.12.12,0,0,0,0,.07,5.54,5.54,0,0,0-.11.56.35.35,0,0,0,.06.24,5.57,5.57,0,0,0,1,1.12l0,0a1.3,1.3,0,0,1,.42.14,2.26,2.26,0,0,0,.52,0,2,2,0,0,0,1-.24,1,1,0,0,0,.46-.39c0-.07,0-.16.09-.22a.41.41,0,0,0,.1-.35ZM16.53,15a.32.32,0,0,0,.09.24c.06.08.17.11.22.19a1,1,0,0,0,.4.29c.22.13.46.18.69.29l.55.26a.47.47,0,0,0,.2.06c.23,0,.45.05.69,0h.14a1.78,1.78,0,0,0,.56,0c.1,0,.16,0,.17-.13a6,6,0,0,0,.1-.85,2.57,2.57,0,0,1,0-.48,1.75,1.75,0,0,0,0-.33s0-.1,0-.14-.09,0-.13,0c-.21.09-.39.25-.61.32a.85.85,0,0,0-.17.06,2.09,2.09,0,0,1-.95.24,1,1,0,0,0-.44,0,.28.28,0,0,1-.22,0,.82.82,0,0,0-.34-.06c-.16,0-.31,0-.47,0A1.2,1.2,0,0,1,16.53,15Zm-1,1.21c.07,0,.13,0,.15,0s0-.07-.06-.1c-.27-.24-.49-.54-.76-.79,0,0,0,0,0,0-.11-.26-.37-.41-.47-.68a1.76,1.76,0,0,0-.09-.2.85.85,0,0,1-.21-.54s0-.08,0-.11a.7.7,0,0,1-.15-.34s0,0,0,0-.05,0-.05.06a1.51,1.51,0,0,1-.1.42,2.81,2.81,0,0,1-.61,1.09A.42.42,0,0,0,13,15a1.13,1.13,0,0,1-.32.4.55.55,0,0,0-.14.17.48.48,0,0,1-.26.28c-.07,0-.07.09-.06.15s.06.08.11.08h.15c.45,0,.89,0,1.33,0s.78.05,1.17,0l.1,0A1.24,1.24,0,0,1,15.5,16.22Zm12,5.35a.18.18,0,0,0-.09-.14c-.24-.2-.48-.39-.71-.6a3.66,3.66,0,0,0-.72-.52c-.15-.08-.26-.2-.41-.29s-.33-.19-.5-.27-.11-.1-.18-.1-.08,0-.08.07a.27.27,0,0,0,0,.12l.15.34a3.48,3.48,0,0,0,.24.52,6.33,6.33,0,0,0,.56.89.45.45,0,0,1,.06.12l.08.12c.24.24.48.48.7.74.06.07.1.06.15,0,.21-.26.39-.53.62-.77A.44.44,0,0,0,27.54,21.57ZM20.65,45.2c0-.16.11-.26.13-.39A2,2,0,0,1,21,44a2.67,2.67,0,0,0,.2-.46,3.08,3.08,0,0,1,.35-.76,1,1,0,0,0,.09-.18c0-.1,0-.13-.07-.14a2.59,2.59,0,0,0-.48,0h-.77a1.09,1.09,0,0,1-.31,0c-.18-.07-.29,0-.26.21s.07.37.09.55a1.79,1.79,0,0,0,.12.76v0a1.15,1.15,0,0,0,.12.37c.08.24.23.44.33.67A.46.46,0,0,0,20.65,45.2Zm4.16-2.87c-.11,0-.18,0-.27.06s-.12.07-.11.15a3.8,3.8,0,0,0,.08,1,1.93,1.93,0,0,1,.11.53.69.69,0,0,0,.12.31,1.58,1.58,0,0,1,.2.36,1.53,1.53,0,0,0,.29.38c0,.06.09,0,.11,0a1,1,0,0,0,.05-.24.65.65,0,0,1,0-.31,2.32,2.32,0,0,0,.16-.44.78.78,0,0,1,.05-.14,2,2,0,0,0,.23-.72A.43.43,0,0,1,26,43a1.8,1.8,0,0,0,.25-.5c0-.09,0-.11-.08-.12h-1C25,42.38,24.92,42.28,24.81,42.33Zm-19.48.33a2.83,2.83,0,0,1,.45.77l0,0c.07.28.26.33.51.31s.41,0,.61,0l.71,0a.2.2,0,0,1,.11,0,.42.42,0,0,0,.27.05h1.2c.11,0,.15,0,.16-.14,0-.28,0-.56,0-.84,0-.12,0-.15-.17-.16h-.3c-.1,0-.16,0-.16.14a.73.73,0,0,1-.11.29.8.8,0,0,1-.72.44,1.29,1.29,0,0,0-.34,0,.52.52,0,0,1-.47-.24c-.07-.08-.08-.18-.15-.25a.57.57,0,0,1-.16-.33.27.27,0,0,0-.26-.23c-.1,0-.2,0-.3,0a5.42,5.42,0,0,0-.8.08A.09.09,0,0,0,5.33,42.66Zm11.34-.42a.32.32,0,0,0-.19,0h-1.3c-.29,0-.38.17-.32.39a4.29,4.29,0,0,1,.13.6,1.89,1.89,0,0,0,.1.41c.13.32.26.63.4.94a.27.27,0,0,0,.14.14,2.64,2.64,0,0,0,.2-.62,2.29,2.29,0,0,1,.17-.46c0-.06.05-.12.07-.17a6.91,6.91,0,0,1,.36-.78ZM8.06,15.88h0l0,.18c0,.07.06.09.13.08A2,2,0,0,0,8.8,16a1.91,1.91,0,0,1,.6-.19.43.43,0,0,0,.23-.09,1.59,1.59,0,0,1,.21-.15l.41-.32c.07-.06.06-.11,0-.13A1,1,0,0,0,10,15c-.24,0-.45-.19-.71-.15l-.05,0c-.06-.06-.15-.05-.23-.06a.16.16,0,0,1-.14-.06.4.4,0,0,0-.26-.14,1,1,0,0,1-.34-.15c-.16-.08-.2-.06-.2.11C8.09,15,8.08,15.43,8.06,15.88ZM11,9a2.85,2.85,0,0,0-.52-.82c-.15-.2-.34-.35-.49-.55A1.57,1.57,0,0,0,9.8,7.4c-.09-.08-.14-.07-.19,0a1.43,1.43,0,0,1-.14.34,1.43,1.43,0,0,0-.15.39c-.06.15-.12.31-.19.45a1.15,1.15,0,0,0-.1.48A1.23,1.23,0,0,0,9.54,9a2,2,0,0,1,.6-.1,2.21,2.21,0,0,1,.68.12C10.88,9,10.94,9.06,11,9Zm7.31,33.63a3.8,3.8,0,0,0-.47.53,6.89,6.89,0,0,1-.4.64c-.05,0-.05.14,0,.16s.17.09.26.09h.73c.08,0,.13,0,.1-.11a2,2,0,0,0-.08-.35,1,1,0,0,1-.07-.28C18.38,43.1,18.39,42.88,18.33,42.64Zm5,1.36c-.05-.19-.12-.38-.16-.58a0,0,0,0,0-.08,0,3.67,3.67,0,0,0-.36.6c0,.1,0,.17.12.16a2.07,2.07,0,0,1,.35,0C23.25,44.14,23.3,44.1,23.29,44Z" transform="translate(0 -2.41)"/>
    <path d="M18.86,12.22a1.08,1.08,0,0,0,0,.18.51.51,0,0,1-.1.32,3.66,3.66,0,0,1-.38.5,1,1,0,0,1-.26.15,1,1,0,0,1-.6.15,1.58,1.58,0,0,1-.48-.15,1.67,1.67,0,0,0-.2-.08.14.14,0,0,1-.12-.11.59.59,0,0,0-.11-.19.9.9,0,0,1-.13-.39.86.86,0,0,0-.07-.21.34.34,0,0,1,0-.22,1.05,1.05,0,0,1,.23-.57,1.68,1.68,0,0,1,.66-.43l.05,0c.3.1.63,0,.91.14a1,1,0,0,1,.42.3,1.24,1.24,0,0,0,.14.18.17.17,0,0,1,.06.15v.3Z" transform="translate(0 -2.41)"/>
    <path d="M11.18,12a1.22,1.22,0,0,1-.18.75c-.08.12-.19.21-.26.34a.22.22,0,0,1-.18.1c-.17,0-.34,0-.51.09a.57.57,0,0,1-.44,0A3,3,0,0,0,9.25,13,.46.46,0,0,1,9,12.76l-.17-.45a.41.41,0,0,1,0-.39.28.28,0,0,0,0-.13.27.27,0,0,1,.08-.2s0,0,0-.06c0-.26.23-.35.39-.46a2.14,2.14,0,0,1,.53-.25H10a.45.45,0,0,0,.3,0,.81.81,0,0,1,.8.6A1.72,1.72,0,0,1,11.18,12Z" transform="translate(0 -2.41)"/>
    <path class="cls-1" d="M58.25,23.57v-9.2a1.73,1.73,0,0,1-.33.12,5,5,0,0,1-.54.16l-.54.15-.34.11V13.47l.49-.19c.2-.09.41-.18.62-.29a5.3,5.3,0,0,0,.62-.36,2.4,2.4,0,0,0,.47-.4h1.48V23.57Z" transform="translate(0 -2.41)"/>
    <path class="cls-1" d="M65.24,23.72a3.31,3.31,0,0,1-1.61-.34,2.06,2.06,0,0,1-.93-1,3.86,3.86,0,0,1-.29-1.57v-.15h1.85a2.61,2.61,0,0,0,.19,1.14c.12.25.39.37.8.37a.77.77,0,0,0,.59-.22,1.55,1.55,0,0,0,.31-.74,8.3,8.3,0,0,0,.09-1.36V18.51a1.32,1.32,0,0,1-.58.51,2.42,2.42,0,0,1-.94.19,2.13,2.13,0,0,1-1.45-.43,2.36,2.36,0,0,1-.77-1.19,6,6,0,0,1-.23-1.71,6.19,6.19,0,0,1,.29-2,2.74,2.74,0,0,1,1-1.33,2.83,2.83,0,0,1,1.72-.48,2.91,2.91,0,0,1,1.71.47,2.67,2.67,0,0,1,1,1.29,5.51,5.51,0,0,1,.31,1.89v4a7.23,7.23,0,0,1-.26,2,2.53,2.53,0,0,1-2.71,1.95Zm0-6a.92.92,0,0,0,.62-.19,1.77,1.77,0,0,0,.37-.42V15.36a4.09,4.09,0,0,0-.08-.89,1.36,1.36,0,0,0-.3-.64.79.79,0,0,0-.62-.25.76.76,0,0,0-.61.26,1.33,1.33,0,0,0-.3.7,5.26,5.26,0,0,0-.09,1.05c0,.4,0,.76.05,1.09a1.53,1.53,0,0,0,.26.77A.79.79,0,0,0,65.25,17.74Z" transform="translate(0 -2.41)"/>
    <path class="cls-1" d="M72.9,23.57V20.78H69.51V19.13l2.95-6.9h2.26v7h1.16v1.54H74.72v2.79Zm-1.77-4.33H72.9V14.31Z" transform="translate(0 -2.41)"/>
    <path class="cls-1" d="M79.73,23.72a3.31,3.31,0,0,1-1.61-.34,2.06,2.06,0,0,1-.93-1,3.86,3.86,0,0,1-.29-1.57v-.15h1.85a2.61,2.61,0,0,0,.19,1.14c.12.25.39.37.8.37a.77.77,0,0,0,.59-.22,1.55,1.55,0,0,0,.31-.74,8.3,8.3,0,0,0,.09-1.36V18.51a1.32,1.32,0,0,1-.58.51,2.42,2.42,0,0,1-.94.19,2.13,2.13,0,0,1-1.45-.43A2.36,2.36,0,0,1,77,17.59a6,6,0,0,1-.23-1.71,6.19,6.19,0,0,1,.29-2,2.74,2.74,0,0,1,1-1.33,2.83,2.83,0,0,1,1.72-.48,2.91,2.91,0,0,1,1.71.47,2.67,2.67,0,0,1,1,1.29,5.51,5.51,0,0,1,.3,1.89v4a7.25,7.25,0,0,1-.25,2,2.86,2.86,0,0,1-.9,1.42A2.77,2.77,0,0,1,79.73,23.72Zm0-6a.92.92,0,0,0,.62-.19,1.77,1.77,0,0,0,.37-.42V15.36a4.09,4.09,0,0,0-.08-.89,1.36,1.36,0,0,0-.3-.64.79.79,0,0,0-.62-.25.76.76,0,0,0-.61.26,1.33,1.33,0,0,0-.3.7,5.26,5.26,0,0,0-.09,1.05c0,.4,0,.76,0,1.09a1.53,1.53,0,0,0,.26.77A.79.79,0,0,0,79.74,17.74Z" transform="translate(0 -2.41)"/>
    <path class="cls-1" d="M55.87,40.37V39l2.8-4.32.58-.91a5.13,5.13,0,0,0,.45-.91,2.8,2.8,0,0,0,.18-1,1.74,1.74,0,0,0-.23-1,.77.77,0,0,0-.7-.34.94.94,0,0,0-.7.26,1.23,1.23,0,0,0-.34.65,4.16,4.16,0,0,0-.09.9v.48H55.91V32.3a4.83,4.83,0,0,1,.3-1.77,2.54,2.54,0,0,1,1-1.2,3.1,3.1,0,0,1,1.73-.43,2.85,2.85,0,0,1,2.18.78,3.13,3.13,0,0,1,.73,2.19,3.83,3.83,0,0,1-.2,1.26,5.18,5.18,0,0,1-.52,1.09c-.21.34-.44.7-.7,1.06l-2.32,3.53h3.44v1.56Z" transform="translate(0 -2.41)"/>
    <path class="cls-1" d="M66.06,40.53a3,3,0,0,1-1.64-.42,2.54,2.54,0,0,1-1-1.16,4.14,4.14,0,0,1-.33-1.71v-5a4.48,4.48,0,0,1,.31-1.75,2.47,2.47,0,0,1,1-1.16,3,3,0,0,1,1.67-.43,3.08,3.08,0,0,1,1.68.43,2.45,2.45,0,0,1,1,1.16A4.48,4.48,0,0,1,69,32.22v5A4.14,4.14,0,0,1,68.69,39a2.6,2.6,0,0,1-1,1.16A3,3,0,0,1,66.06,40.53Zm0-1.66a.78.78,0,0,0,.65-.27A1.49,1.49,0,0,0,67,38a4.76,4.76,0,0,0,.07-.75v-5a4,4,0,0,0-.07-.78,1.36,1.36,0,0,0-.27-.65.78.78,0,0,0-.66-.27.8.8,0,0,0-.66.27,1.47,1.47,0,0,0-.27.65,4.93,4.93,0,0,0-.06.78v5a3.19,3.19,0,0,0,.08.75,1.49,1.49,0,0,0,.28.64A.75.75,0,0,0,66.06,38.87Z" transform="translate(0 -2.41)"/>
    <path class="cls-1" d="M73.61,40.53A3,3,0,0,1,72,40.11,2.6,2.6,0,0,1,71,39a4.31,4.31,0,0,1-.32-1.71v-5A4.48,4.48,0,0,1,71,30.47a2.41,2.41,0,0,1,1-1.16,3.46,3.46,0,0,1,3.34,0,2.41,2.41,0,0,1,1,1.16,4.48,4.48,0,0,1,.31,1.75v5A4.14,4.14,0,0,1,76.23,39a2.48,2.48,0,0,1-1,1.16A3,3,0,0,1,73.61,40.53Zm0-1.66a.76.76,0,0,0,.64-.27,1.38,1.38,0,0,0,.28-.64,3.81,3.81,0,0,0,.07-.75v-5a4.93,4.93,0,0,0-.06-.78,1.36,1.36,0,0,0-.27-.65.94.94,0,0,0-1.32,0,1.36,1.36,0,0,0-.27.65,4.93,4.93,0,0,0-.06.78v5a3.81,3.81,0,0,0,.07.75,1.5,1.5,0,0,0,.29.64A.75.75,0,0,0,73.61,38.87Z" transform="translate(0 -2.41)"/>
    <path class="cls-1" d="M80.9,40.53a3.1,3.1,0,0,1-1.75-.42,2.07,2.07,0,0,1-.86-1.19,6,6,0,0,1-.24-1.8h1.89a6.08,6.08,0,0,0,.07,1,1.38,1.38,0,0,0,.31.69.87.87,0,0,0,.68.23.75.75,0,0,0,.69-.32,1.83,1.83,0,0,0,.26-.88A12.77,12.77,0,0,0,82,36.53a7.68,7.68,0,0,0-.08-1.15,1.52,1.52,0,0,0-.3-.76.86.86,0,0,0-.7-.27.9.9,0,0,0-.67.27,1.56,1.56,0,0,0-.39.72H78.2L78.31,29h5.1v1.73H79.94l-.11,2.73a1.52,1.52,0,0,1,.6-.41,3.13,3.13,0,0,1,.89-.18,2.23,2.23,0,0,1,1.46.38,2.49,2.49,0,0,1,.83,1.22,6.28,6.28,0,0,1,.26,1.9,10.7,10.7,0,0,1-.12,1.66,3.56,3.56,0,0,1-.44,1.3,2.22,2.22,0,0,1-.9.87A3.3,3.3,0,0,1,80.9,40.53Z" transform="translate(0 -2.41)"/>
    <line class="cls-2" x1="87.37" y1="0.88" x2="87.37" y2="45.88"/>
    <line class="cls-3" y1="48.67" x2="320" y2="48.52"/>
    <path class="cls-4" d="M289.6,19.67h-7.28a4.68,4.68,0,0,1-3.23-.7v1.12c0,7.69,0,15.39,0,23.08,0,.66.16.85.84.84q10.35,0,20.69,0c.62,0,.81-.15.8-.78,0-2,.07-4,0-5.94,0-.89.27-1.12,1.06-1a6.62,6.62,0,0,0,.77,0c0,2.81,0,5.62,0,8.42,0,.87-.28,1.18-1.16,1.18-7.88,0-15.76,0-23.64,0-1,0-1.26-.23-1.27-1.29v-.39c0-1.44,0-1.45-1.39-1.57a.88.88,0,0,1-.9-.89c0-.16,0-.32,0-.48,0-.51.17-1.12-.05-1.51s-.92-.13-1.41-.19a.85.85,0,0,1-.83-.86c0-.23,0-.45,0-.67,0-9.42,0-18.83,0-28.24a4.44,4.44,0,0,1,4.35-4.38c4.23.18,8.48,0,12.73,0,.4.56.12,1.18.18,1.77l-12.9.1a2.05,2.05,0,0,0-2.15,1.08,2.14,2.14,0,0,0,.43,2.52,5.9,5.9,0,0,1,.48-.74,3.67,3.67,0,0,1,2.66-1.62c3.76,0,7.52,0,11.28,0v1.69l-10.52.11A2,2,0,0,0,277,11.44a2.24,2.24,0,0,0,.42,2.55c.28-.08.35-.35.51-.54a3.61,3.61,0,0,1,2.75-1.64c3,0,5.93,0,8.89,0l0,1.72c-.34,0-.69,0-1,0-2.36,0-4.72,0-7.07.06a2.08,2.08,0,0,0-2.17,3,2,2,0,0,0,2,1.08l8.31,0Zm-15,18h.16V12.82h-.16Zm2.3,3.06H277V15.88h-.16Z" transform="translate(0 -2.41)"/>
    <path class="cls-5" d="M289.78,7.22c-.06-.59.22-1.21-.18-1.77a11.29,11.29,0,0,1,.23-1.76,1.67,1.67,0,0,1,1.7-1.27h15a1.15,1.15,0,0,1,.89.45q3.75,3.77,7.51,7.52a1.36,1.36,0,0,1,.52,1q0,11.12,0,22.21a11.19,11.19,0,0,1-1.71-1.73c0-6.32,0-12.64,0-19,0-.66-.22-.79-.81-.78-1.63,0-3.26,0-4.89,0a2.11,2.11,0,0,1-2.36-2.36c0-1.63,0-3.26,0-4.89,0-.6-.12-.81-.78-.81q-6.31.06-12.64,0c-.71,0-.93.2-.93.92q0,14.27,0,28.54c0,.77.28,1,1,1,5.17,0,10.34,0,15.52,0a4.81,4.81,0,0,1,0,1.65l-3.73,0-12.34-.1c-1.45,0-2-.57-2-2q0-5.31-.07-10.62c.11-2.82.11-5.65,0-8.47,0-.43,0-.86,0-1.3a6.14,6.14,0,0,0,0-2V10.29a6.48,6.48,0,0,0,0-1.76ZM312,10.32,307.53,5.8c0,1.18,0,2.51,0,3.84,0,.57.21.7.73.69C309.58,10.3,310.92,10.32,312,10.32Z" transform="translate(0 -2.41)"/>
    <path class="cls-6" d="M313.73,31.91a11.19,11.19,0,0,0,1.71,1.73l1.17,1.29a4.44,4.44,0,0,0-1.49.28h-1c-.67,0-.94.3-.5.94.76,1.42.73,1.37-.71,2.2-.78.44-1.09.38-1.44-.49-.65-1.56-.72-1.53-2-.43-.43.37-.87.72-1.38,1.15a17.19,17.19,0,0,1-.16-2.41,4.81,4.81,0,0,0,0-1.65V26.4l.45-.24Zm-5-3.15c0,2.36,0,4.77,0,7.18,0,.46.14.5.49.2.54-.46,1.12-.88,1.68-1.32l1,2,.05.09c.11.23.2.59.55.4s.25-.42.07-.72c-.37-.66-.67-1.36-1-2l2.55-.33Z" transform="translate(0 -2.41)"/>
    <path class="cls-7" d="M313.58,36.16c-.44-.64-.17-.9.5-.94h1A1.59,1.59,0,0,1,313.58,36.16Z" transform="translate(0 -2.41)"/>
    <path class="cls-8" d="M289.72,15c.11,2.82.11,5.65,0,8.47a25.9,25.9,0,0,1-.12-3.84V17.75A13.61,13.61,0,0,1,289.72,15Z" transform="translate(0 -2.41)"/>
    <path class="cls-9" d="M274.58,37.64V12.82h.16V37.64Z" transform="translate(0 -2.41)"/>
    <path class="cls-9" d="M276.88,40.7V15.88H277V40.71Z" transform="translate(0 -2.41)"/>
    <path class="cls-8" d="M289.58,11.82a.18.18,0,0,1,.17,0,6.14,6.14,0,0,1,0,2c-.08,0-.17-.08-.13-.2C289.6,13,289.59,12.39,289.58,11.82Z" transform="translate(0 -2.41)"/>
    <path class="cls-8" d="M289.76,10.29a.47.47,0,0,1-.17,0V8.57l.19,0A6.48,6.48,0,0,1,289.76,10.29Z" transform="translate(0 -2.41)"/>
    <path class="cls-10" d="M299.85,24.83c-2.1,0-4.2,0-6.31,0-.54,0-.7-.15-.69-.69,0-2.1,0-4.21,0-6.31,0-.56.17-.69.7-.69,4.27,0,8.54,0,12.81,0,.54,0,.7.16.69.7q0,3.15,0,6.31c0,.55-.17.69-.7.68C304.18,24.81,302,24.83,299.85,24.83Zm-5.59-3.08c1.17-.79,2.45-1.08,3.35-2a7.29,7.29,0,0,0-2.52,1c-.57.29-1.56.37-1.54,1,0,.5,1,.61,1.56.87a6.8,6.8,0,0,0,2.4.92A18.47,18.47,0,0,0,294.26,21.75Zm8,1.94.15.3c1.3-.66,2.61-1.32,3.91-2,.16-.08.28-.31,0-.44l-3.81-1.8-.13.26c.93.8,2.21,1,3.23,1.79C304.5,22.59,303.17,22.82,302.23,23.69Zm-3.63.58c.25,0,.32-.26.4-.45q1.28-2.76,2.52-5.53c.07-.16.35-.42,0-.54s-.37.15-.47.36c-.86,1.9-1.73,3.8-2.59,5.71C298.39,24,298.27,24.18,298.6,24.27Z" transform="translate(0 -2.41)"/>
    <path class="cls-11" d="M294.26,21.75a18.47,18.47,0,0,1,3.25,1.85,6.8,6.8,0,0,1-2.4-.92c-.56-.26-1.55-.37-1.56-.87,0-.68,1-.76,1.54-1a7.29,7.29,0,0,1,2.52-1C296.71,20.67,295.43,21,294.26,21.75Z" transform="translate(0 -2.41)"/>
    <path class="cls-11" d="M302.23,23.69c.94-.87,2.27-1.1,3.35-1.89-1-.74-2.3-1-3.23-1.79l.13-.26,3.81,1.8c.28.13.16.36,0,.44-1.3.68-2.61,1.34-3.91,2Z" transform="translate(0 -2.41)"/>
    <path class="cls-12" d="M298.6,24.27c-.33-.09-.21-.3-.14-.45.86-1.91,1.73-3.81,2.59-5.71.1-.21.22-.46.47-.36s.07.38,0,.54q-1.25,2.78-2.52,5.53C298.92,24,298.85,24.24,298.6,24.27Z" transform="translate(0 -2.41)"/>
</svg>