<svg xmlns="http://www.w3.org/2000/svg" id="svg68" viewBox="0 0 228 89.82">
  <defs>
    <style>
      .cls-1 {
        fill: #fff;
      }

      .cls-2 {
        fill: #048263;
      }
    </style>
  </defs>
  <rect class="cls-2" x="-1.5" y="-.59" width="231" height="91"/>
  <g>
    <path class="cls-1" d="m39.13,60.55l-29.24-11.25v-7.09l29.24-11.25v7.32l-21.97,7.21v.53l21.97,7.21v7.32Z"/>
    <path class="cls-1" d="m66.82,66.53l-8.55-13.27-12.77-17.78h8.5l8.67,13.8,12.66,17.26h-8.5Zm-21.33,0l12.66-17.26,8.67-13.8h8.5l-13.12,17.78-8.2,13.27h-8.5Z"/>
    <path class="cls-1" d="m80.97,66.53v-31.05h6.47l.7,6.56v24.49h-7.18Zm11.81,0v-22.71c0-1.76-.7-2.64-2.11-2.64-1.68,0-2.52,1.26-2.52,3.78l-1.82-5.62h2.14c.35-2.97,2-4.45,4.95-4.45,1.56,0,2.79.56,3.68,1.67s1.33,2.8,1.33,5.07v24.9h-5.65Zm10.22,0v-22.12c0-2.15-.69-3.22-2.08-3.22-1.66,0-2.49,1.26-2.49,3.78l-2.11-5.62h2.55c.14-1.31.65-2.38,1.54-3.21.89-.83,2.11-1.25,3.68-1.25,2.11,0,3.65.58,4.61,1.73.97,1.15,1.45,3.02,1.45,5.6v24.32h-7.15Z"/>
    <path class="cls-1" d="m115.71,29.15v-6.56h9.46v6.56h-9.46Zm19.63,37.97c-3.79,0-6.52-1.04-8.19-3.11-1.67-2.07-2.5-5.38-2.5-9.93v-31.49h7.21v31.2c0,1.43.15,2.59.44,3.5s.85,1.58,1.68,2.01c.83.43,2.07.64,3.71.64s3.81-.37,6.39-1.11l.82,7.06c-1.62.43-3.19.74-4.7.94s-3.13.29-4.85.29Z"/>
    <path class="cls-1" d="m151.05,72.09l23.03-52.73h7.32l-23.06,52.73h-7.29Z"/>
    <path class="cls-1" d="m187.14,60.55v-7.32l21.39-7.21v-.53l-21.39-7.21v-7.32l29.24,11.25v7.09l-29.24,11.25Z"/>
  </g>
</svg>